<svg width="114" height="19" viewBox="0 0 114 19" fill="none" xmlns="http://www.w3.org/2000/svg">
<path d="M105.097 7.59176L111.505 16.3733C111.88 16.8625 112.264 17.2376 112.655 17.4985C113.046 17.7431 113.495 17.8736 114 17.8899V18.1345H111.995C111.815 18.1345 111.514 18.1264 111.09 18.11C110.682 18.0937 110.217 18.0285 109.695 17.9144C109.173 17.8002 108.643 17.6045 108.105 17.3273C107.583 17.0338 107.127 16.6261 106.735 16.1042C106.654 15.9901 106.491 15.7699 106.246 15.4438C106.002 15.1176 105.716 14.7263 105.39 14.2696C105.064 13.813 104.721 13.3483 104.363 12.8754C104.02 12.3861 103.694 11.9295 103.384 11.5055C103.074 11.0815 102.822 10.7391 102.626 10.4782C102.447 10.2009 102.357 10.0623 102.357 10.0623L105.097 7.59176ZM111.236 1.18295L103.874 9.91557L102.357 10.0623L109.084 1.18295H111.236ZM112.949 1.01172V1.23187H112.851C112.313 1.23187 111.807 1.34602 111.334 1.57432C110.878 1.78632 110.486 2.0717 110.16 2.43046L108.179 2.38154C108.374 2.10432 108.407 1.8434 108.277 1.59879C108.146 1.35417 107.918 1.23187 107.592 1.23187H107.347V1.01172H112.851H112.949ZM101.574 1.01172V18.1345H97.905V1.01172H101.574ZM97.9784 16.3488V18.1345H96.0215V17.8899C96.0378 17.8899 96.0867 17.8899 96.1683 17.8899C96.2661 17.8899 96.3232 17.8899 96.3395 17.8899C96.7635 17.8899 97.1222 17.7431 97.4158 17.4496C97.7256 17.1398 97.8887 16.7728 97.905 16.3488H97.9784ZM97.9784 2.79738H97.905C97.8887 2.37339 97.7256 2.01463 97.4158 1.72109C97.1222 1.41125 96.7635 1.25633 96.3395 1.25633C96.3232 1.25633 96.2661 1.25633 96.1683 1.25633C96.0867 1.25633 96.0378 1.25633 96.0215 1.25633V1.01172H97.9784V2.79738ZM101.501 16.3488H101.574C101.59 16.7728 101.745 17.1398 102.039 17.4496C102.349 17.7431 102.716 17.8899 103.14 17.8899C103.156 17.8899 103.205 17.8899 103.286 17.8899C103.384 17.8899 103.441 17.8899 103.458 17.8899V18.1345H101.501V16.3488ZM101.501 2.79738V1.01172H103.458V1.25633C103.441 1.25633 103.384 1.25633 103.286 1.25633C103.205 1.25633 103.156 1.25633 103.14 1.25633C102.716 1.25633 102.349 1.41125 102.039 1.72109C101.745 2.01463 101.59 2.37339 101.574 2.79738H101.501Z" fill="#6E6E6B"/>
<path d="M81.525 1.01172V11.7746C81.525 12.9324 81.7125 13.9353 82.0876 14.7833C82.4789 15.6313 83.0252 16.2836 83.7265 16.7402C84.444 17.1968 85.292 17.4251 86.2704 17.4251C87.2652 17.4251 88.1213 17.2131 88.8388 16.7891C89.5727 16.3488 90.1353 15.7292 90.5266 14.9301C90.918 14.131 91.1137 13.1852 91.1137 12.0926V1.01172H92.8749V11.9458C92.8749 13.283 92.5895 14.4409 92.0188 15.4193C91.4643 16.3978 90.6571 17.1561 89.5971 17.6942C88.5535 18.216 87.2896 18.477 85.8057 18.477C84.0771 18.477 82.6176 18.216 81.4271 17.6942C80.2367 17.1561 79.3398 16.4059 78.7364 15.4438C78.1493 14.4653 77.8558 13.3075 77.8558 11.9703V1.01172H81.525ZM77.9292 1.01172V2.47939H77.8558C77.8558 2.12062 77.7253 1.82709 77.4644 1.59879C77.2198 1.37048 76.9181 1.25633 76.5593 1.25633C76.5593 1.25633 76.4941 1.25633 76.3637 1.25633C76.2332 1.25633 76.168 1.25633 76.168 1.25633V1.01172H77.9292ZM83.2128 1.01172V1.25633C83.2128 1.25633 83.1475 1.25633 83.0171 1.25633C82.8866 1.25633 82.8214 1.25633 82.8214 1.25633C82.4626 1.25633 82.1528 1.37048 81.8919 1.59879C81.6473 1.82709 81.525 2.12062 81.525 2.47939H81.476V1.01172H83.2128ZM91.1871 1.01172V2.47939H91.1137C91.1137 2.12062 90.9833 1.82709 90.7223 1.59879C90.4777 1.37048 90.176 1.25633 89.8173 1.25633C89.8173 1.25633 89.752 1.25633 89.6216 1.25633C89.4911 1.25633 89.4259 1.25633 89.4259 1.25633V1.01172H91.1871ZM94.5627 1.01172V1.25633C94.5627 1.25633 94.4975 1.25633 94.3671 1.25633C94.2366 1.25633 94.1714 1.25633 94.1714 1.25633C93.8126 1.25633 93.5028 1.37048 93.2418 1.59879C92.9972 1.82709 92.8749 2.12062 92.8749 2.47939H92.826V1.01172H94.5627Z" fill="#6E6E6B"/>
<path d="M66.4165 18.3794C65.9273 18.3794 65.5114 18.2082 65.169 17.8657C64.8265 17.5232 64.6553 17.1074 64.6553 16.6182C64.6553 16.1127 64.8265 15.6887 65.169 15.3462C65.5114 15.0037 65.9273 14.8325 66.4165 14.8325C66.922 14.8325 67.346 15.0037 67.6885 15.3462C68.0309 15.6887 68.2021 16.1127 68.2021 16.6182C68.2021 17.1074 68.0309 17.5232 67.6885 17.8657C67.346 18.2082 66.922 18.3794 66.4165 18.3794Z" fill="#6E6E6B"/>
<path d="M45.6458 1.01172H48.8013C49.5351 1.01172 50.2527 1.09326 50.9539 1.25633C51.6551 1.4194 52.2748 1.68032 52.8129 2.03909C53.3674 2.39785 53.8077 2.87076 54.1338 3.45783C54.46 4.0449 54.623 4.77058 54.623 5.63487C54.623 6.31978 54.4763 7.0047 54.1827 7.68961C53.9055 8.35821 53.4734 8.93712 52.8863 9.42635C52.2992 9.89926 51.5409 10.1846 50.6114 10.2825C51.1333 10.4456 51.6062 10.7391 52.0302 11.1631C52.4705 11.5871 52.8292 12.0111 53.1065 12.4351C53.1228 12.4677 53.2125 12.6144 53.3755 12.8754C53.5549 13.1363 53.7669 13.4624 54.0115 13.8538C54.2724 14.2289 54.5415 14.6121 54.8187 15.0035C55.096 15.3949 55.3487 15.7373 55.577 16.0309C55.9358 16.4712 56.2619 16.8299 56.5555 17.1071C56.849 17.3681 57.1589 17.5637 57.485 17.6942C57.8111 17.8084 58.1862 17.8736 58.6102 17.8899V18.1345H56.213C55.3324 18.1345 54.5334 18.0611 53.8158 17.9144C53.0983 17.7513 52.4623 17.4822 51.9079 17.1071C51.3534 16.7321 50.8723 16.2265 50.4647 15.5906C50.3342 15.3949 50.1874 15.1503 50.0244 14.8567C49.8776 14.5469 49.7227 14.2207 49.5596 13.8783C49.3965 13.5358 49.2334 13.2097 49.0704 12.8998C48.9236 12.5737 48.7931 12.2801 48.679 12.0192C48.5648 11.7583 48.4833 11.5545 48.4344 11.4077C48.2224 10.8859 47.9696 10.4945 47.6761 10.2336C47.3989 9.97265 47.0972 9.81773 46.771 9.7688V9.52419C46.82 9.52419 46.9178 9.52419 47.0646 9.52419C47.2113 9.52419 47.3662 9.52419 47.5293 9.52419C47.9696 9.52419 48.3936 9.4345 48.8013 9.25512C49.2253 9.07574 49.6004 8.7822 49.9265 8.37452C50.2527 7.96683 50.481 7.40423 50.6114 6.6867C50.644 6.53993 50.6685 6.36871 50.6848 6.17302C50.7174 5.97733 50.7256 5.75718 50.7093 5.51257C50.6603 4.33843 50.3668 3.48229 49.8287 2.94415C49.2905 2.3897 48.6219 2.10432 47.8229 2.08801C47.5946 2.0717 47.3418 2.0717 47.0646 2.08801C46.8036 2.08801 46.559 2.08801 46.3307 2.08801C46.1187 2.08801 45.972 2.08801 45.8904 2.08801C45.8904 2.0717 45.866 1.98201 45.817 1.81894C45.7844 1.63955 45.7437 1.46017 45.6947 1.28079C45.6621 1.10141 45.6458 1.01172 45.6458 1.01172ZM45.9638 1.01172V18.1345H42.2946V1.01172H45.9638ZM42.368 16.3488V18.1345H40.4111V17.8899C40.4274 17.8899 40.4764 17.8899 40.5579 17.8899C40.6557 17.8899 40.7128 17.8899 40.7291 17.8899C41.1531 17.8899 41.5119 17.7431 41.8054 17.4496C42.1153 17.1398 42.2783 16.7728 42.2946 16.3488H42.368ZM42.368 2.79738H42.2946C42.2783 2.37339 42.1153 2.01463 41.8054 1.72109C41.5119 1.41125 41.1531 1.25633 40.7291 1.25633C40.7128 1.25633 40.6557 1.25633 40.5579 1.25633C40.4764 1.25633 40.4274 1.25633 40.4111 1.25633V1.01172H42.368V2.79738ZM45.8904 16.3488H45.9638C45.9638 16.7728 46.1187 17.1398 46.4286 17.4496C46.7384 17.7431 47.1053 17.8899 47.5293 17.8899C47.5619 17.8899 47.619 17.8899 47.7005 17.8899C47.7821 17.8899 47.8229 17.8899 47.8229 17.8899V18.1345H45.8904V16.3488Z" fill="#6E6E6B"/>
<path d="M36.3933 1.01172V18.1345H32.7242V1.01172H36.3933ZM24.7988 1.01172V18.1345H21.1296V1.01172H24.7988ZM32.9443 9.08389V10.1357H24.5542V9.08389H32.9443ZM21.203 16.3488V18.1345H19.2461V17.8899C19.2461 17.8899 19.295 17.8899 19.3929 17.8899C19.507 17.8899 19.5641 17.8899 19.5641 17.8899C19.9881 17.8899 20.3468 17.7431 20.6404 17.4496C20.9502 17.1398 21.1133 16.7728 21.1296 16.3488H21.203ZM21.203 2.79738H21.1296C21.1133 2.37339 20.9502 2.01463 20.6404 1.72109C20.3468 1.41125 19.9881 1.25633 19.5641 1.25633C19.5641 1.25633 19.507 1.25633 19.3929 1.25633C19.295 1.25633 19.2461 1.25633 19.2461 1.25633V1.01172H21.203V2.79738ZM24.7254 16.3488H24.7988C24.8151 16.7728 24.97 17.1398 25.2635 17.4496C25.5734 17.7431 25.9403 17.8899 26.3643 17.8899C26.3643 17.8899 26.4132 17.8899 26.511 17.8899C26.6089 17.8899 26.666 17.8899 26.6823 17.8899V18.1345H24.7254V16.3488ZM24.7254 2.79738V1.01172H26.6823V1.25633C26.666 1.25633 26.6089 1.25633 26.511 1.25633C26.4132 1.25633 26.3643 1.25633 26.3643 1.25633C25.9403 1.25633 25.5734 1.41125 25.2635 1.72109C24.97 2.01463 24.8151 2.37339 24.7988 2.79738H24.7254ZM32.7976 16.3488V18.1345H30.8407V17.8899C30.857 17.8899 30.9141 17.8899 31.0119 17.8899C31.1097 17.8899 31.1587 17.8899 31.1587 17.8899C31.5827 17.8899 31.9496 17.7431 32.2594 17.4496C32.5693 17.1398 32.7242 16.7728 32.7242 16.3488H32.7976ZM32.7976 2.79738H32.7242C32.7242 2.37339 32.5693 2.01463 32.2594 1.72109C31.9496 1.41125 31.5827 1.25633 31.1587 1.25633C31.1587 1.25633 31.1097 1.25633 31.0119 1.25633C30.9141 1.25633 30.857 1.25633 30.8407 1.25633V1.01172H32.7976V2.79738ZM36.32 16.3488H36.3933C36.4097 16.7728 36.5646 17.1398 36.8581 17.4496C37.1679 17.7431 37.5349 17.8899 37.9589 17.8899C37.9589 17.8899 38.0078 17.8899 38.1056 17.8899C38.2198 17.8899 38.2768 17.8899 38.2768 17.8899V18.1345H36.32V16.3488ZM36.32 2.79738V1.01172H38.2768V1.25633C38.2768 1.25633 38.2198 1.25633 38.1056 1.25633C38.0078 1.25633 37.9589 1.25633 37.9589 1.25633C37.5349 1.25633 37.1679 1.41125 36.8581 1.72109C36.5646 2.01463 36.4097 2.37339 36.3933 2.79738H36.32Z" fill="#6E6E6B"/>
<path d="M9.34415 0.522949L17.3429 17.9882H12.9399L7.85202 5.24395L9.34415 0.522949ZM4.08501 16.3493C3.95455 16.6754 3.93009 16.9527 4.01162 17.181C4.09316 17.4093 4.23177 17.5887 4.42746 17.7191C4.62315 17.8333 4.81884 17.8904 5.01453 17.8904H5.23468V18.135H0V17.8904C0 17.8904 0.0407685 17.8904 0.122306 17.8904C0.187535 17.8904 0.22015 17.8904 0.22015 17.8904C0.595221 17.8904 0.978445 17.7762 1.36982 17.5479C1.77751 17.3033 2.11181 16.9037 2.37273 16.3493H4.08501ZM9.34415 0.522949L9.442 3.50721L3.37564 18.0616H1.58997L7.92541 3.72736C7.97433 3.62951 8.05587 3.45013 8.17002 3.18921C8.30048 2.91199 8.43094 2.60214 8.56139 2.25969C8.70816 1.91723 8.83862 1.59109 8.95277 1.28124C9.06693 0.955095 9.124 0.70233 9.124 0.522949H9.34415ZM11.9126 12.3132V13.3406H4.721V12.3132H11.9126ZM12.2795 16.3493H16.5602C16.8374 16.9037 17.1717 17.3033 17.5631 17.5479C17.9545 17.7762 18.3377 17.8904 18.7128 17.8904C18.7128 17.8904 18.7454 17.8904 18.8106 17.8904C18.8758 17.8904 18.9085 17.8904 18.9085 17.8904V18.135H11.1298V17.8904H11.35C11.6761 17.8904 11.9615 17.7599 12.2061 17.499C12.4507 17.2217 12.4752 16.8385 12.2795 16.3493Z" fill="#6E6E6B"/>
</svg>
