<svg width="18" height="20" viewBox="0 0 18 20" fill="none" xmlns="http://www.w3.org/2000/svg">
<path d="M16.9929 0.696188C16.5304 0.233649 15.9158 -0.0134217 15.2615 0.000562723C14.6076 0.0145471 14.0038 0.287633 13.5614 0.769547L5.22619 9.84974C4.09994 10.2129 3.28935 10.846 2.81705 11.7345C1.9992 13.2729 2.53435 14.9939 2.5576 15.0664L2.77427 15.7693L3.40447 15.3971C3.44306 15.3763 4.11025 15.0255 5.49127 14.7954C6.33295 14.6552 6.964 14.2913 7.36709 13.7138C7.66431 13.2879 7.76881 12.8403 7.79927 12.4999L16.9196 4.12775C17.4015 3.68541 17.6746 3.08162 17.6886 2.42763C17.7026 1.77365 17.4555 1.15873 16.9929 0.696188ZM7.33076 9.28841L8.4008 10.3585L7.34525 11.3274L6.36181 10.3439L7.33076 9.28841ZM5.29885 13.6406C4.53404 13.7679 3.95865 13.9292 3.55537 14.0689C3.50666 13.5816 3.52427 12.8929 3.85486 12.2765C4.15373 11.7191 4.67017 11.3009 5.39244 11.0303L6.63978 12.2776C6.63756 12.4144 6.61513 12.6331 6.51435 12.8547C6.32388 13.2735 5.91498 13.5379 5.29885 13.6406ZM16.1279 3.26525L9.26408 9.56599L8.12322 8.42513L14.4239 1.56127C14.6484 1.31677 14.9547 1.17818 15.2865 1.17111C15.6192 1.16435 15.9304 1.28935 16.1651 1.52408C16.3998 1.75877 16.5251 2.07076 16.5181 2.40259C16.511 2.73443 16.3724 3.0408 16.1279 3.26525Z" fill="#F8F8F5"/>
<path d="M2.48117 16.6567C1.55945 16.6567 0.80957 17.4066 0.80957 18.3283C0.80957 19.2501 1.55945 19.9999 2.48117 19.9999C3.40289 19.9999 4.15277 19.2501 4.15277 18.3283C4.15277 17.4066 3.40289 16.6567 2.48117 16.6567ZM2.48117 18.8292C2.205 18.8292 1.98035 18.6045 1.98035 18.3283C1.98035 18.0522 2.205 17.8275 2.48117 17.8275C2.75734 17.8275 2.98199 18.0522 2.98199 18.3283C2.98199 18.6045 2.75734 18.8292 2.48117 18.8292Z" fill="#F8F8F5"/>
<path d="M6.96227 16.1262C5.89426 16.1262 5.02539 16.9951 5.02539 18.0631C5.02539 19.1311 5.89426 20 6.96227 20C8.03027 20 8.89914 19.1311 8.89914 18.0631C8.89914 16.9951 8.03027 16.1262 6.96227 16.1262ZM6.96227 18.8292C6.53984 18.8292 6.19617 18.4855 6.19617 18.0631C6.19617 17.6407 6.5398 17.297 6.96227 17.297C7.38473 17.297 7.72836 17.6407 7.72836 18.0631C7.72836 18.4855 7.38469 18.8292 6.96227 18.8292Z" fill="#F8F8F5"/>
<path d="M12.2782 15.3635C10.9999 15.3635 9.95996 16.4035 9.95996 17.6818C9.95996 18.9601 10.9999 20.0001 12.2782 20.0001C13.5566 20.0001 14.5966 18.9601 14.5966 17.6818C14.5966 16.4036 13.5565 15.3635 12.2782 15.3635ZM12.2782 18.8293C11.6455 18.8293 11.1307 18.3146 11.1307 17.6818C11.1307 17.0491 11.6455 16.5343 12.2782 16.5343C12.911 16.5343 13.4257 17.0491 13.4257 17.6818C13.4257 18.3146 12.911 18.8293 12.2782 18.8293Z" fill="#F8F8F5"/>
</svg>
