<svg width="21" height="20" viewBox="0 0 21 20" fill="none" xmlns="http://www.w3.org/2000/svg">
<path fill-rule="evenodd" clip-rule="evenodd" d="M11.4375 16.5625C11.4375 17.08 11.0175 17.5 10.5 17.5C9.9825 17.5 9.5625 17.08 9.5625 16.5625C9.5625 16.39 9.4225 16.25 9.25 16.25C9.0775 16.25 8.9375 16.39 8.9375 16.5625C8.9375 17.425 9.6375 18.125 10.5 18.125C11.3625 18.125 12.0625 17.425 12.0625 16.5625C12.0625 16.39 11.9225 16.25 11.75 16.25C11.5775 16.25 11.4375 16.39 11.4375 16.5625Z" fill="#F8F8F5"/>
<path fill-rule="evenodd" clip-rule="evenodd" d="M4.25 8.125C4.25 11.5769 7.04781 14.375 10.5003 14.375C10.8844 14.375 11.2603 14.3403 11.625 14.2741C11.7947 14.2431 11.9075 14.0803 11.8766 13.9106C11.8459 13.7409 11.6831 13.6281 11.5134 13.6591C11.1847 13.7188 10.8459 13.75 10.5003 13.75C7.39312 13.75 4.875 11.2319 4.875 8.125C4.875 7.9525 4.735 7.8125 4.5625 7.8125C4.39 7.8125 4.25 7.9525 4.25 8.125Z" fill="#F8F8F5"/>
<path fill-rule="evenodd" clip-rule="evenodd" d="M13.6378 13.5316C15.499 12.4494 16.7503 10.4334 16.7503 8.125C16.7503 4.67313 13.9525 1.875 10.5006 1.875C9.32498 1.875 8.22561 2.19938 7.28654 2.76344C7.13842 2.85219 7.09061 3.04438 7.17936 3.19219C7.26811 3.34 7.46029 3.38812 7.60811 3.29937C8.45342 2.79156 9.44279 2.5 10.5006 2.5C13.6072 2.5 16.1253 5.01812 16.1253 8.125C16.1253 10.2028 14.999 12.0172 13.3237 12.9916C13.1747 13.0781 13.124 13.2697 13.2106 13.4187C13.2972 13.5678 13.4887 13.6184 13.6378 13.5316Z" fill="#F8F8F5"/>
<path fill-rule="evenodd" clip-rule="evenodd" d="M17.6875 8.125H18.625C18.7975 8.125 18.9375 7.985 18.9375 7.8125C18.9375 7.64 18.7975 7.5 18.625 7.5H17.6875C17.515 7.5 17.375 7.64 17.375 7.8125C17.375 7.985 17.515 8.125 17.6875 8.125Z" fill="#F8F8F5"/>
<path fill-rule="evenodd" clip-rule="evenodd" d="M16.5684 11.6769L17.3802 12.1456C17.5296 12.2319 17.7209 12.1806 17.8071 12.0313C17.8934 11.8819 17.8421 11.6906 17.6927 11.6044L16.8809 11.1356C16.7315 11.0494 16.5402 11.1006 16.454 11.25C16.3677 11.3994 16.419 11.5906 16.5684 11.6769Z" fill="#F8F8F5"/>
<path fill-rule="evenodd" clip-rule="evenodd" d="M4.1195 11.1356L3.30762 11.6044C3.15825 11.6906 3.107 11.8819 3.19325 12.0313C3.2795 12.1806 3.47075 12.2319 3.62012 12.1456L4.432 11.6769C4.58137 11.5906 4.63262 11.3994 4.54637 11.25C4.46012 11.1006 4.26887 11.0494 4.1195 11.1356Z" fill="#F8F8F5"/>
<path fill-rule="evenodd" clip-rule="evenodd" d="M2.375 8.125H3.3125C3.485 8.125 3.625 7.985 3.625 7.8125C3.625 7.64 3.485 7.5 3.3125 7.5H2.375C2.2025 7.5 2.0625 7.64 2.0625 7.8125C2.0625 7.985 2.2025 8.125 2.375 8.125Z" fill="#F8F8F5"/>
<path fill-rule="evenodd" clip-rule="evenodd" d="M3.30762 4.02063L4.1195 4.48938C4.26887 4.57563 4.46012 4.52438 4.54637 4.37501C4.63262 4.22563 4.58137 4.03438 4.432 3.94813L3.62012 3.47938C3.47075 3.39313 3.2795 3.44438 3.19325 3.59376C3.107 3.74313 3.15825 3.93438 3.30762 4.02063Z" fill="#F8F8F5"/>
<path fill-rule="evenodd" clip-rule="evenodd" d="M17.3802 3.47938L16.5684 3.94813C16.419 4.03438 16.3677 4.22563 16.454 4.37501C16.5402 4.52438 16.7315 4.57563 16.8809 4.48938L17.6927 4.02063C17.8421 3.93438 17.8934 3.74313 17.8071 3.59376C17.7209 3.44438 17.5296 3.39313 17.3802 3.47938Z" fill="#F8F8F5"/>
<path fill-rule="evenodd" clip-rule="evenodd" d="M5.93719 3.85381C4.89063 4.97099 4.25 6.47318 4.25 8.12506C4.25 8.29756 4.39 8.43756 4.5625 8.43756C4.735 8.43756 4.875 8.29756 4.875 8.12506C4.875 6.63849 5.45156 5.28662 6.39344 4.28099C6.51125 4.15506 6.50469 3.95724 6.37875 3.83912C6.25281 3.72131 6.055 3.72787 5.93719 3.85381Z" fill="#F8F8F5"/>
<path fill-rule="evenodd" clip-rule="evenodd" d="M7.52322 15.2515C7.52322 15.2515 7.5676 15.438 7.62385 15.6743C7.79166 16.378 8.42041 16.8749 9.14385 16.8749H11.857C12.5804 16.8749 13.2092 16.378 13.377 15.6743C13.6073 14.7058 13.9295 13.3536 13.9295 13.3536C13.9695 13.1858 13.8657 13.0171 13.6979 12.9771C13.5301 12.9371 13.3613 13.0408 13.3213 13.2086C13.3213 13.2086 12.9995 14.5611 12.7688 15.5296C12.6682 15.9518 12.291 16.2499 11.857 16.2499C11.0592 16.2499 9.94166 16.2499 9.14385 16.2499C8.70979 16.2499 8.3326 15.9518 8.23197 15.5296C8.17572 15.2933 8.13135 15.1068 8.13135 15.1068C8.09135 14.939 7.9226 14.8352 7.75479 14.8749C7.58697 14.9149 7.48322 15.0836 7.52322 15.2515Z" fill="#F8F8F5"/>
<path fill-rule="evenodd" clip-rule="evenodd" d="M10.4988 5.11219L10.5013 5.10344C10.5288 4.52437 11.0078 4.0625 11.5938 4.0625C12.1975 4.0625 12.6875 4.5525 12.6875 5.15625C12.6875 5.22469 12.6813 5.29188 12.6691 5.35688C12.7747 5.32781 12.8856 5.3125 13 5.3125C13.69 5.3125 14.25 5.8725 14.25 6.5625C14.25 6.84781 14.1544 7.11094 13.9931 7.32125C14.3322 7.50719 14.5625 7.8675 14.5625 8.28125C14.5625 8.74875 14.2687 9.14813 13.8559 9.30438C13.9084 9.42125 13.9375 9.55094 13.9375 9.6875C13.9375 10.205 13.5175 10.625 13 10.625C13 11.315 12.44 11.875 11.75 11.875C11.0609 11.875 10.5016 11.3166 10.5 10.6278C10.4984 11.3166 9.93906 11.875 9.25 11.875C8.56 11.875 8 11.315 8 10.625C7.4825 10.625 7.0625 10.205 7.0625 9.6875C7.0625 9.55094 7.09156 9.42125 7.14406 9.30438C6.73125 9.14813 6.4375 8.74875 6.4375 8.28125C6.4375 7.8675 6.66781 7.50719 7.00688 7.32125C6.84563 7.11094 6.75 6.84781 6.75 6.5625C6.75 5.8725 7.31 5.3125 8 5.3125C8.11437 5.3125 8.22531 5.32781 8.33094 5.35688C8.31875 5.29188 8.3125 5.22469 8.3125 5.15625C8.3125 4.5525 8.8025 4.0625 9.40625 4.0625C9.99219 4.0625 10.4713 4.52437 10.4988 5.10344V5.11219Z" fill="#F8F8F5"/>
</svg>
