<svg width="89" height="88" viewBox="0 0 89 88" fill="none" xmlns="http://www.w3.org/2000/svg">
<rect x="0.666016" width="88" height="88" rx="16" fill="#12120F"/>
<path fill-rule="evenodd" clip-rule="evenodd" d="M49.883 30.99C50.6066 30.6903 51.3822 30.536 52.1654 30.536C52.9486 30.536 53.7241 30.6903 54.4477 30.99C55.1713 31.2897 55.8288 31.729 56.3826 32.2828C56.9364 32.8367 57.3757 33.4941 57.6754 34.2177C57.9751 34.9413 58.1294 35.7169 58.1294 36.5001C58.1294 37.2833 57.9751 38.0588 57.6754 38.7824C57.3757 39.506 56.9364 40.1635 56.3826 40.7173L38.8826 58.2173C38.6482 58.4517 38.3302 58.5834 37.9987 58.5834H31.332C30.6417 58.5834 30.082 58.0237 30.082 57.3334V50.6667C30.082 50.3352 30.2137 50.0173 30.4481 49.7828L47.9481 32.2828C48.502 31.729 49.1594 31.2897 49.883 30.99ZM47.1654 36.6012L32.582 51.1845V56.0834H37.4809L52.0643 41.5001L47.1654 36.6012ZM53.832 39.7323L48.9331 34.8334L49.7159 34.0506C50.0376 33.7289 50.4195 33.4738 50.8397 33.2997C51.26 33.1256 51.7105 33.036 52.1654 33.036C52.6203 33.036 53.0707 33.1256 53.491 33.2997C53.9113 33.4738 54.2931 33.7289 54.6148 34.0506C54.9365 34.3723 55.1916 34.7541 55.3657 35.1744C55.5398 35.5947 55.6294 36.0451 55.6294 36.5001C55.6294 36.955 55.5398 37.4054 55.3657 37.8257C55.1916 38.246 54.9365 38.6278 54.6148 38.9495L53.832 39.7323Z" fill="#F8F8F5"/>
</svg>
