<svg width="88" height="88" viewBox="0 0 88 88" fill="none" xmlns="http://www.w3.org/2000/svg">
<rect width="88" height="88" rx="16" fill="#12120F"/>
<path fill-rule="evenodd" clip-rule="evenodd" d="M32.3333 31.9166C31.7808 31.9166 31.2509 32.1361 30.8602 32.5268C30.4775 32.9095 30.2591 33.4257 30.2503 33.966C30.6361 40.1469 33.2655 45.9749 37.6453 50.3547C42.025 54.7345 47.853 57.3638 54.034 57.7497C54.5742 57.7409 55.0905 57.5225 55.4731 57.1398C55.8638 56.7491 56.0833 56.2192 56.0833 55.6666V49.8463L49.5242 47.2226L47.5719 50.4764C47.2372 51.0343 46.5306 51.2421 45.9471 50.9544C42.0811 49.0477 38.9522 45.9188 37.0456 42.0529C36.7578 41.4694 36.9657 40.7628 37.5235 40.4281L40.7774 38.4758L38.1537 31.9166H32.3333ZM29.0924 30.7591C29.952 29.8995 31.1178 29.4166 32.3333 29.4166H39C39.5111 29.4166 39.9708 29.7278 40.1606 30.2024L43.4939 38.5357C43.7218 39.1054 43.5025 39.7562 42.9765 40.0718L39.8302 41.9596C41.3235 44.5353 43.4646 46.6765 46.0404 48.1698L47.9281 45.0235C48.2438 44.4974 48.8946 44.2782 49.4642 44.506L57.7976 47.8394C58.2721 48.0292 58.5833 48.4888 58.5833 49V55.6666C58.5833 56.8822 58.1004 58.048 57.2409 58.9075C56.3814 59.7671 55.2156 60.25 54 60.25C53.9747 60.25 53.9494 60.2492 53.9242 60.2477C47.1182 59.8341 40.6989 56.9439 35.8775 52.1225C31.0561 47.301 28.1659 40.8818 27.7523 34.0758C27.7508 34.0505 27.75 34.0253 27.75 34C27.75 32.7844 28.2329 31.6186 29.0924 30.7591Z" fill="#F8F8F5"/>
</svg>
