<svg width="89" height="88" viewBox="0 0 89 88" fill="none" xmlns="http://www.w3.org/2000/svg">
<rect x="0.332031" width="88" height="88" rx="16" fill="#12120F"/>
<path fill-rule="evenodd" clip-rule="evenodd" d="M34.3314 33.5833C33.7788 33.5833 33.2489 33.8028 32.8582 34.1935C32.4675 34.5842 32.248 35.1141 32.248 35.6667V55.6667C32.248 56.2192 32.4675 56.7491 32.8582 57.1398C33.2489 57.5305 33.7788 57.75 34.3314 57.75H54.3314C54.8839 57.75 55.4138 57.5305 55.8045 57.1398C56.1952 56.7491 56.4147 56.2192 56.4147 55.6667V35.6667C56.4147 35.1141 56.1952 34.5842 55.8045 34.1935C55.4138 33.8028 54.8839 33.5833 54.3314 33.5833H34.3314ZM31.0905 32.4258C31.95 31.5662 33.1158 31.0833 34.3314 31.0833H54.3314C55.547 31.0833 56.7127 31.5662 57.5723 32.4258C58.4318 33.2853 58.9147 34.4511 58.9147 35.6667V55.6667C58.9147 56.8822 58.4318 58.048 57.5723 58.9076C56.7127 59.7671 55.547 60.25 54.3314 60.25H34.3314C33.1158 60.25 31.95 59.7671 31.0905 58.9076C30.2309 58.048 29.748 56.8822 29.748 55.6667V35.6667C29.748 34.4511 30.2309 33.2853 31.0905 32.4258Z" fill="#F8F8F5"/>
<path fill-rule="evenodd" clip-rule="evenodd" d="M50.998 27.75C51.6884 27.75 52.248 28.3096 52.248 29V35.6667C52.248 36.357 51.6884 36.9167 50.998 36.9167C50.3077 36.9167 49.748 36.357 49.748 35.6667V29C49.748 28.3096 50.3077 27.75 50.998 27.75Z" fill="#F8F8F5"/>
<path fill-rule="evenodd" clip-rule="evenodd" d="M37.6647 27.75C38.3551 27.75 38.9147 28.3096 38.9147 29V35.6667C38.9147 36.357 38.3551 36.9167 37.6647 36.9167C36.9744 36.9167 36.4147 36.357 36.4147 35.6667V29C36.4147 28.3096 36.9744 27.75 37.6647 27.75Z" fill="#F8F8F5"/>
<path fill-rule="evenodd" clip-rule="evenodd" d="M29.748 42.3333C29.748 41.643 30.3077 41.0833 30.998 41.0833H57.6647C58.3551 41.0833 58.9147 41.643 58.9147 42.3333C58.9147 43.0237 58.3551 43.5833 57.6647 43.5833H30.998C30.3077 43.5833 29.748 43.0237 29.748 42.3333Z" fill="#F8F8F5"/>
</svg>
