<svg width="1309" height="892" viewBox="0 0 1309 892" fill="none" xmlns="http://www.w3.org/2000/svg">
<path d="M1255.08 20.2034C1253.1 20.2034 1251.44 19.444 1250.09 17.9251C1248.77 16.4062 1248.1 14.6296 1248.1 12.5954C1248.1 10.507 1248.72 8.78465 1249.97 7.4285C1251.22 6.05878 1252.85 5.37393 1254.87 5.37393C1256.48 5.37393 1257.86 5.76043 1259.02 6.53344C1260.19 7.29288 1260.77 8.2015 1260.77 9.2593C1260.77 9.73395 1260.62 10.1205 1260.31 10.4188C1260.01 10.7172 1259.6 10.8663 1259.09 10.8663C1258.62 10.8663 1258.21 10.7307 1257.84 10.4595C1257.48 10.1747 1257.17 9.83566 1256.93 9.44238C1256.7 9.04909 1256.46 8.65581 1256.22 8.26253C1255.97 7.85568 1255.68 7.51664 1255.32 7.24542C1254.98 6.96062 1254.59 6.81823 1254.14 6.81823C1253.46 6.81823 1252.88 7.13692 1252.39 7.77431C1251.92 8.4117 1251.68 9.27286 1251.68 10.3578C1251.68 12.2699 1252.14 13.8431 1253.06 15.0772C1253.99 16.2977 1255.05 16.908 1256.26 16.908C1256.71 16.908 1257.11 16.8402 1257.48 16.7046C1257.86 16.5689 1258.19 16.3791 1258.48 16.135C1258.77 15.8773 1259 15.6535 1259.15 15.4637C1259.31 15.2738 1259.49 15.0365 1259.7 14.7517C1259.89 14.5212 1260.12 14.4466 1260.41 14.5279C1260.69 14.5957 1260.83 14.7924 1260.81 15.1179C1260.76 16.5283 1260.24 17.7284 1259.25 18.7184C1258.27 19.7084 1256.88 20.2034 1255.08 20.2034ZM1266.94 20.2034C1265.36 20.2034 1264.03 19.722 1262.93 18.7591C1261.84 17.7827 1261.3 16.5622 1261.3 15.0975C1261.3 13.6329 1261.84 12.4259 1262.93 11.4766C1264.01 10.5137 1265.3 10.0323 1266.79 10.0323C1268.34 10.0323 1269.65 10.5137 1270.74 11.4766C1271.82 12.4395 1272.37 13.66 1272.37 15.1382C1272.37 16.6028 1271.84 17.8166 1270.78 18.7795C1269.72 19.7288 1268.44 20.2034 1266.94 20.2034ZM1267.36 19.2067C1268.23 19.2067 1268.66 18.3726 1268.66 16.7046C1268.66 16.0943 1268.58 15.3687 1268.4 14.5279C1268.24 13.6871 1267.95 12.8938 1267.55 12.1479C1267.15 11.402 1266.71 11.0291 1266.22 11.0291C1265.75 11.0291 1265.41 11.2393 1265.21 11.6597C1265 12.0801 1264.9 12.7175 1264.9 13.5719C1264.9 14.0194 1264.96 14.5483 1265.06 15.1585C1265.17 15.7688 1265.32 16.3859 1265.51 17.0097C1265.7 17.62 1265.96 18.1421 1266.28 18.576C1266.62 18.9964 1266.98 19.2067 1267.36 19.2067ZM1273.3 20C1272.99 20 1272.83 19.8712 1272.83 19.6135V19.5321C1272.83 19.3694 1272.96 19.1253 1273.22 18.7998C1273.49 18.4608 1273.63 18.1217 1273.63 17.7827V8.48629C1273.63 8.13369 1273.49 7.79466 1273.22 7.46918C1272.96 7.13014 1272.83 6.89282 1272.83 6.7572V6.67583C1272.83 6.52666 1272.98 6.3707 1273.28 6.20796L1276.35 4.70264C1276.64 4.58058 1276.86 4.5738 1277.02 4.68229C1277.2 4.77722 1277.29 4.9264 1277.29 5.12982V17.7827C1277.29 18.1217 1277.44 18.4608 1277.74 18.7998C1278.03 19.1253 1278.18 19.3694 1278.18 19.5321V19.6135C1278.18 19.8712 1278.02 20 1277.69 20H1273.3ZM1284.22 20.2034C1282.65 20.2034 1281.31 19.722 1280.21 18.7591C1279.13 17.7827 1278.58 16.5622 1278.58 15.0975C1278.58 13.6329 1279.13 12.4259 1280.21 11.4766C1281.3 10.5137 1282.58 10.0323 1284.08 10.0323C1285.62 10.0323 1286.94 10.5137 1288.02 11.4766C1289.11 12.4395 1289.65 13.66 1289.65 15.1382C1289.65 16.6028 1289.12 17.8166 1288.06 18.7795C1287.01 19.7288 1285.72 20.2034 1284.22 20.2034ZM1284.65 19.2067C1285.51 19.2067 1285.95 18.3726 1285.95 16.7046C1285.95 16.0943 1285.86 15.3687 1285.68 14.5279C1285.52 13.6871 1285.24 12.8938 1284.83 12.1479C1284.44 11.402 1284 11.0291 1283.51 11.0291C1283.03 11.0291 1282.69 11.2393 1282.49 11.6597C1282.29 12.0801 1282.18 12.7175 1282.18 13.5719C1282.18 14.0194 1282.24 14.5483 1282.35 15.1585C1282.46 15.7688 1282.61 16.3859 1282.8 17.0097C1282.98 17.62 1283.24 18.1421 1283.57 18.576C1283.91 18.9964 1284.27 19.2067 1284.65 19.2067ZM1297.01 10.0323C1297.6 10.0323 1298.06 10.2222 1298.4 10.6019C1298.75 10.9816 1298.92 11.463 1298.92 12.0462C1298.92 13.321 1298.4 13.9584 1297.36 13.9584C1296.94 13.9584 1296.62 13.8634 1296.4 13.6736C1296.19 13.4701 1296.06 13.2464 1296.02 13.0023C1295.99 12.7582 1295.92 12.5412 1295.81 12.3513C1295.7 12.1479 1295.54 12.0462 1295.32 12.0462C1294.82 12.0462 1294.57 12.6971 1294.57 13.999V17.7827C1294.57 18.1217 1294.75 18.4608 1295.1 18.7998C1295.47 19.1253 1295.65 19.3694 1295.65 19.5321V19.6135C1295.65 19.8712 1295.49 20 1295.16 20H1290.79C1290.46 20 1290.3 19.8712 1290.3 19.6135V19.5321C1290.3 19.3694 1290.44 19.1253 1290.71 18.7998C1290.98 18.4608 1291.11 18.1217 1291.11 17.7827V13.7346C1291.11 13.4634 1291.03 13.2328 1290.87 13.043C1290.71 12.8531 1290.54 12.6904 1290.38 12.5547C1290.22 12.4191 1290.14 12.2699 1290.14 12.1072V12.0462C1290.14 11.8156 1290.29 11.619 1290.6 11.4563L1293.47 10.1137C1293.74 10.0187 1293.93 10.012 1294.04 10.0933C1294.15 10.1747 1294.21 10.3307 1294.21 10.5612V12.0462C1294.67 10.7036 1295.6 10.0323 1297.01 10.0323ZM1303.38 20.1831C1302.08 20.1831 1301.01 19.9661 1300.17 19.5321C1299.33 19.0846 1298.91 18.5082 1298.91 17.803C1298.91 17.3691 1299.04 17.0436 1299.29 16.8266C1299.57 16.6096 1299.92 16.5011 1300.35 16.5011C1300.81 16.5011 1301.18 16.6503 1301.45 16.9487C1301.72 17.2335 1301.91 17.5522 1302 17.9047C1302.1 18.2438 1302.26 18.5625 1302.49 18.8608C1302.72 19.1456 1303.02 19.288 1303.38 19.288C1304.12 19.288 1304.48 18.9151 1304.48 18.1692C1304.48 17.681 1304.29 17.2945 1303.91 17.0097C1303.55 16.7249 1303.1 16.5079 1302.57 16.3587C1302.04 16.2096 1301.51 16.04 1300.98 15.8502C1300.47 15.6603 1300.02 15.3416 1299.64 14.8941C1299.27 14.4466 1299.09 13.8566 1299.09 13.1243C1299.09 12.2157 1299.49 11.4766 1300.29 10.907C1301.09 10.3239 1302.12 10.0323 1303.38 10.0323C1304.64 10.0323 1305.67 10.2696 1306.46 10.7443C1307.26 11.2189 1307.66 11.7953 1307.66 12.4734C1307.66 12.826 1307.52 13.1243 1307.25 13.3684C1306.99 13.599 1306.67 13.7142 1306.29 13.7142C1305.85 13.7142 1305.49 13.5719 1305.23 13.2871C1304.98 13.0023 1304.8 12.6904 1304.71 12.3513C1304.62 11.9987 1304.49 11.68 1304.3 11.3952C1304.12 11.1104 1303.88 10.968 1303.57 10.968C1303.27 10.968 1303.03 11.0833 1302.85 11.3139C1302.69 11.5444 1302.61 11.8156 1302.61 12.1276C1302.61 12.6293 1302.79 13.0362 1303.14 13.3481C1303.51 13.66 1303.94 13.8973 1304.44 14.0601C1304.96 14.2228 1305.47 14.3991 1305.97 14.589C1306.48 14.7788 1306.92 15.0907 1307.27 15.5247C1307.64 15.9451 1307.82 16.5011 1307.82 17.1928C1307.82 18.0607 1307.42 18.7795 1306.62 19.349C1305.83 19.9051 1304.75 20.1831 1303.38 20.1831Z" fill="#1E1D24" fill-opacity="0.4"/>
<g filter="url(#filter0_d_220_72807)">
<rect x="313.331" y="72.075" width="296.658" height="296.658" rx="20.3422" fill="#DDEA64"/>
</g>
<g filter="url(#filter1_d_220_72807)">
<rect x="698.139" y="72.075" width="296.658" height="296.658" rx="20.3422" fill="#1E1D24"/>
</g>
<path d="M313.331 226.528C310.457 208.025 301.511 193.654 280.277 199.813C263.92 204.557 253.457 226.629 265.068 241.128C267.849 244.601 274.05 244.067 277.593 242.121C283.198 239.041 284.533 233.625 282.912 227.621C279.966 216.714 267.874 205.816 255.972 209.248C237.346 214.619 228.088 233.482 226.199 251.605C225.822 255.215 227.559 282.344 231.467 267.595C232.177 264.918 233.984 256.824 233.108 259.451C231.655 263.806 231.02 266.314 231.02 271.021C231.02 271.955 231.704 276.839 229.628 275.142C225.379 271.669 220.881 268.539 216.705 264.963" stroke="#1E1D24" stroke-width="4.23797" stroke-linecap="round"/>
<path d="M169.991 323.382C170.407 323.382 170.615 323.536 170.615 323.843V325.254C170.615 325.561 170.407 325.715 169.991 325.715H167.333L166.601 328.427H169.205C169.621 328.427 169.829 328.581 169.829 328.888V330.326C169.829 330.615 169.621 330.76 169.205 330.76H166.004L164.621 335.994C164.549 336.266 164.314 336.401 163.916 336.401H162.071C161.674 336.401 161.529 336.166 161.638 335.696L162.967 330.76H159.278L157.895 335.994C157.822 336.266 157.587 336.401 157.189 336.401H155.345C154.947 336.401 154.803 336.166 154.911 335.696L156.24 330.76H154.179C153.763 330.76 153.555 330.615 153.555 330.326V328.888C153.555 328.761 153.609 328.653 153.718 328.563C153.844 328.472 153.998 328.427 154.179 328.427H156.864L157.569 325.715H154.965C154.549 325.715 154.341 325.561 154.341 325.254V323.843C154.341 323.536 154.549 323.382 154.965 323.382H158.193L159.522 318.446C159.594 318.156 159.775 318.012 160.064 318.012H162.017C162.415 318.012 162.551 318.256 162.424 318.744L161.204 323.382H164.919L166.248 318.446C166.321 318.156 166.502 318.012 166.791 318.012H168.744C169.142 318.012 169.277 318.256 169.151 318.744L167.93 323.382H169.991ZM163.59 328.427L164.296 325.715H160.607L159.875 328.427H163.59ZM173.152 336.401C172.718 336.401 172.501 336.229 172.501 335.886V335.777C172.501 335.56 172.682 335.235 173.043 334.801C173.405 334.349 173.586 333.897 173.586 333.445V320.1C173.586 319.648 173.405 319.205 173.043 318.771C172.682 318.319 172.501 317.985 172.501 317.768V317.659C172.501 317.316 172.718 317.144 173.152 317.144H179.553C183.332 317.144 186.27 318.039 188.368 319.829C190.483 321.619 191.541 323.97 191.541 326.881C191.541 329.72 190.565 332.016 188.612 333.77C186.677 335.524 184.11 336.401 180.909 336.401H173.152ZM180.801 334.503H181.885C183.224 334.503 184.308 334.041 185.14 333.119C185.972 332.197 186.388 330.877 186.388 329.159C186.388 327.405 186.117 325.76 185.574 324.223C185.032 322.668 184.263 321.42 183.269 320.48C182.274 319.522 181.171 319.042 179.96 319.042H179.661C178.848 319.042 178.441 319.476 178.441 320.344V331.709C178.441 332.595 178.649 333.282 179.065 333.77C179.481 334.258 180.059 334.503 180.801 334.503ZM193.838 336.401C193.404 336.401 193.187 336.229 193.187 335.886V335.777C193.187 335.56 193.368 335.235 193.73 334.801C194.092 334.349 194.272 333.897 194.272 333.445V320.1C194.272 319.648 194.092 319.205 193.73 318.771C193.368 318.319 193.187 317.985 193.187 317.768V317.659C193.187 317.316 193.404 317.144 193.838 317.144H200.239C204.019 317.144 206.957 318.039 209.054 319.829C211.17 321.619 212.228 323.97 212.228 326.881C212.228 329.72 211.251 332.016 209.299 333.77C207.364 335.524 204.796 336.401 201.596 336.401H193.838ZM201.487 334.503H202.572C203.91 334.503 204.995 334.041 205.827 333.119C206.659 332.197 207.074 330.877 207.074 329.159C207.074 327.405 206.803 325.76 206.261 324.223C205.718 322.668 204.95 321.42 203.955 320.48C202.961 319.522 201.858 319.042 200.646 319.042H200.348C199.534 319.042 199.127 319.476 199.127 320.344V331.709C199.127 332.595 199.335 333.282 199.751 333.77C200.167 334.258 200.746 334.503 201.487 334.503ZM214.525 336.401C214.091 336.401 213.874 336.229 213.874 335.886V335.777C213.874 335.56 214.055 335.235 214.417 334.801C214.778 334.349 214.959 333.888 214.959 333.418V320.127C214.959 319.657 214.778 319.205 214.417 318.771C214.055 318.319 213.874 317.985 213.874 317.768V317.659C213.874 317.316 214.082 317.144 214.498 317.144H226.92C227.21 317.144 227.417 317.207 227.544 317.334C227.689 317.46 227.788 317.677 227.842 317.985L228.493 321.402C228.53 321.637 228.484 321.827 228.358 321.972C228.231 322.116 228.05 322.189 227.815 322.189H227.68C227.336 322.189 226.984 322.026 226.622 321.7C226.278 321.357 225.971 320.995 225.7 320.616C225.447 320.218 225.112 319.856 224.696 319.531C224.298 319.187 223.882 319.015 223.448 319.015H221.062C220.248 319.015 219.841 319.458 219.841 320.344V325.66H222.689C223.015 325.66 223.304 325.552 223.557 325.335C223.81 325.1 224 324.847 224.127 324.576C224.253 324.304 224.398 324.06 224.561 323.843C224.741 323.608 224.913 323.491 225.076 323.491H225.293C225.654 323.491 225.835 323.699 225.835 324.114V328.997C225.835 329.412 225.654 329.62 225.293 329.62H225.076C224.913 329.62 224.741 329.512 224.561 329.295C224.398 329.078 224.253 328.843 224.127 328.59C224 328.337 223.81 328.101 223.557 327.885C223.304 327.668 223.015 327.559 222.689 327.559H219.841V332.55C219.841 333.092 219.968 333.562 220.221 333.96C220.474 334.34 220.89 334.53 221.468 334.53H224.316C224.75 334.53 225.148 334.358 225.51 334.014C225.89 333.653 226.197 333.264 226.432 332.848C226.667 332.432 226.947 332.052 227.273 331.709C227.616 331.347 227.969 331.166 228.331 331.166H228.575C228.774 331.166 228.927 331.257 229.036 331.438C229.144 331.6 229.18 331.781 229.144 331.98L228.548 335.533C228.493 335.841 228.394 336.067 228.249 336.211C228.123 336.338 227.906 336.401 227.598 336.401H214.525ZM247.427 333.445C247.626 333.933 247.933 334.385 248.349 334.801C248.783 335.199 249 335.524 249 335.777V335.886C249 336.229 248.783 336.401 248.349 336.401H241.324C240.909 336.401 240.701 336.229 240.701 335.886V335.777C240.701 335.578 240.827 335.37 241.08 335.153C241.352 334.918 241.578 334.665 241.758 334.394C241.957 334.123 241.993 333.806 241.867 333.445L241.27 331.763H234.381L233.784 333.445C233.658 333.806 233.685 334.123 233.866 334.394C234.065 334.665 234.291 334.918 234.544 335.153C234.815 335.37 234.951 335.578 234.951 335.777V335.886C234.951 336.229 234.734 336.401 234.3 336.401H230.285C229.851 336.401 229.634 336.229 229.634 335.886V335.777C229.634 335.542 229.842 335.217 230.258 334.801C230.692 334.385 231.009 333.933 231.208 333.445L236.28 320.317C236.406 320.01 236.379 319.693 236.198 319.368C236.035 319.042 235.837 318.735 235.601 318.446C235.384 318.156 235.276 317.93 235.276 317.768V317.659C235.276 317.316 235.484 317.144 235.9 317.144H239.372C240.258 317.144 240.881 317.578 241.243 318.446L247.427 333.445ZM235.113 329.729H240.538L237.826 322.162L235.113 329.729ZM257.401 323.735C258.485 323.735 259.489 323.952 260.411 324.386C261.333 324.82 262.111 325.552 262.744 326.583C263.395 327.595 263.72 328.834 263.72 330.298C263.72 332.215 263.033 333.761 261.659 334.936C260.303 336.094 258.63 336.672 256.641 336.672C254.417 336.672 252.573 335.804 251.108 334.069C249.643 332.315 248.911 330.036 248.911 327.234C248.911 325.317 249.209 323.59 249.806 322.053C250.421 320.498 251.361 319.25 252.627 318.31C253.893 317.352 255.393 316.873 257.129 316.873C259.1 316.873 260.673 317.297 261.849 318.147C263.042 318.979 263.639 320.001 263.639 321.212C263.639 321.972 263.422 322.541 262.988 322.921C262.554 323.283 261.984 323.463 261.279 323.463C260.646 323.463 260.113 323.301 259.679 322.975C259.245 322.65 258.928 322.261 258.73 321.809C258.531 321.339 258.35 320.878 258.187 320.426C258.042 319.956 257.853 319.558 257.618 319.232C257.401 318.907 257.129 318.744 256.804 318.744C256.099 318.744 255.493 319.25 254.987 320.263C254.498 321.257 254.191 322.785 254.064 324.847C254.914 324.105 256.026 323.735 257.401 323.735ZM257.211 334.801C257.753 334.801 258.178 334.584 258.485 334.15C258.811 333.698 258.974 333.065 258.974 332.251C258.974 330.732 258.711 329.25 258.187 327.803C257.663 326.357 256.948 325.633 256.044 325.633C255.448 325.633 254.968 325.85 254.607 326.284C254.263 326.7 254.073 327.261 254.037 327.966C254.146 329.901 254.471 331.528 255.014 332.848C255.556 334.15 256.288 334.801 257.211 334.801ZM279.648 329.81C280.027 329.81 280.217 329.991 280.217 330.353V331.275C280.217 331.637 280.027 331.817 279.648 331.817H278.047V333.418C278.047 333.888 278.246 334.349 278.644 334.801C279.06 335.235 279.268 335.56 279.268 335.777V335.886C279.268 336.229 279.06 336.401 278.644 336.401H272.677C272.243 336.401 272.026 336.229 272.026 335.886V335.777C272.026 335.56 272.207 335.235 272.569 334.801C272.948 334.349 273.138 333.888 273.138 333.418V331.817H266.005C265.173 331.817 264.757 331.483 264.757 330.814V330.678C264.757 330.1 264.911 329.566 265.218 329.078L272.243 318.337C272.749 317.542 273.446 317.144 274.332 317.144H277.342C277.812 317.144 278.047 317.379 278.047 317.849V329.81H279.648ZM267.334 329.81H273.138V320.914L267.334 329.81Z" fill="black"/>
<path d="M994.796 226.528C997.67 208.025 1006.62 193.654 1027.85 199.813C1044.21 204.557 1054.67 226.629 1043.06 241.128C1040.28 244.601 1034.08 244.067 1030.53 242.121C1024.93 239.041 1023.59 233.625 1025.22 227.621C1028.16 216.714 1040.25 205.816 1052.16 209.248C1070.78 214.619 1080.04 233.482 1081.93 251.605C1082.3 255.215 1080.57 282.344 1076.66 267.595C1075.95 264.918 1074.14 256.824 1075.02 259.451C1076.47 263.806 1077.11 266.314 1077.11 271.021C1077.11 271.955 1076.42 276.839 1078.5 275.142C1082.75 271.669 1087.25 268.539 1091.42 264.963" stroke="#1E1D24" stroke-width="4.23797" stroke-linecap="round"/>
<path d="M1044.71 323.382C1045.12 323.382 1045.33 323.536 1045.33 323.843V325.254C1045.33 325.561 1045.12 325.715 1044.71 325.715H1042.05L1041.32 328.427H1043.92C1044.34 328.427 1044.55 328.581 1044.55 328.888V330.326C1044.55 330.615 1044.34 330.76 1043.92 330.76H1040.72L1039.34 335.994C1039.27 336.266 1039.03 336.401 1038.63 336.401H1036.79C1036.39 336.401 1036.25 336.166 1036.35 335.696L1037.68 330.76H1033.99L1032.61 335.994C1032.54 336.266 1032.3 336.401 1031.91 336.401H1030.06C1029.66 336.401 1029.52 336.166 1029.63 335.696L1030.96 330.76H1028.9C1028.48 330.76 1028.27 330.615 1028.27 330.326V328.888C1028.27 328.761 1028.33 328.653 1028.43 328.563C1028.56 328.472 1028.71 328.427 1028.9 328.427H1031.58L1032.29 325.715H1029.68C1029.27 325.715 1029.06 325.561 1029.06 325.254V323.843C1029.06 323.536 1029.27 323.382 1029.68 323.382H1032.91L1034.24 318.446C1034.31 318.156 1034.49 318.012 1034.78 318.012H1036.73C1037.13 318.012 1037.27 318.256 1037.14 318.744L1035.92 323.382H1039.64L1040.97 318.446C1041.04 318.156 1041.22 318.012 1041.51 318.012H1043.46C1043.86 318.012 1043.99 318.256 1043.87 318.744L1042.65 323.382H1044.71ZM1038.31 328.427L1039.01 325.715H1035.32L1034.59 328.427H1038.31ZM1047.87 336.401C1047.43 336.401 1047.22 336.229 1047.22 335.886V335.777C1047.22 335.56 1047.4 335.235 1047.76 334.801C1048.12 334.349 1048.3 333.897 1048.3 333.445V320.1C1048.3 319.648 1048.12 319.205 1047.76 318.771C1047.4 318.319 1047.22 317.985 1047.22 317.768V317.659C1047.22 317.316 1047.43 317.144 1047.87 317.144H1054.27C1058.05 317.144 1060.99 318.039 1063.08 319.829C1065.2 321.619 1066.26 323.97 1066.26 326.881C1066.26 329.72 1065.28 332.016 1063.33 333.77C1061.39 335.524 1058.83 336.401 1055.63 336.401H1047.87ZM1055.52 334.503H1056.6C1057.94 334.503 1059.03 334.041 1059.86 333.119C1060.69 332.197 1061.1 330.877 1061.1 329.159C1061.1 327.405 1060.83 325.76 1060.29 324.223C1059.75 322.668 1058.98 321.42 1057.99 320.48C1056.99 319.522 1055.89 319.042 1054.68 319.042H1054.38C1053.56 319.042 1053.16 319.476 1053.16 320.344V331.709C1053.16 332.595 1053.37 333.282 1053.78 333.77C1054.2 334.258 1054.78 334.503 1055.52 334.503ZM1068.56 336.401C1068.12 336.401 1067.9 336.229 1067.9 335.886V335.777C1067.9 335.56 1068.09 335.235 1068.45 334.801C1068.81 334.349 1068.99 333.897 1068.99 333.445V320.1C1068.99 319.648 1068.81 319.205 1068.45 318.771C1068.09 318.319 1067.9 317.985 1067.9 317.768V317.659C1067.9 317.316 1068.12 317.144 1068.56 317.144H1074.96C1078.74 317.144 1081.67 318.039 1083.77 319.829C1085.89 321.619 1086.94 323.97 1086.94 326.881C1086.94 329.72 1085.97 332.016 1084.02 333.77C1082.08 335.524 1079.51 336.401 1076.31 336.401H1068.56ZM1076.2 334.503H1077.29C1078.63 334.503 1079.71 334.041 1080.54 333.119C1081.38 332.197 1081.79 330.877 1081.79 329.159C1081.79 327.405 1081.52 325.76 1080.98 324.223C1080.44 322.668 1079.67 321.42 1078.67 320.48C1077.68 319.522 1076.57 319.042 1075.36 319.042H1075.06C1074.25 319.042 1073.84 319.476 1073.84 320.344V331.709C1073.84 332.595 1074.05 333.282 1074.47 333.77C1074.88 334.258 1075.46 334.503 1076.2 334.503ZM1089.24 336.401C1088.81 336.401 1088.59 336.229 1088.59 335.886V335.777C1088.59 335.56 1088.77 335.235 1089.13 334.801C1089.49 334.349 1089.68 333.888 1089.68 333.418V320.127C1089.68 319.657 1089.49 319.205 1089.13 318.771C1088.77 318.319 1088.59 317.985 1088.59 317.768V317.659C1088.59 317.316 1088.8 317.144 1089.21 317.144H1101.64C1101.93 317.144 1102.13 317.207 1102.26 317.334C1102.41 317.46 1102.5 317.677 1102.56 317.985L1103.21 321.402C1103.25 321.637 1103.2 321.827 1103.07 321.972C1102.95 322.116 1102.77 322.189 1102.53 322.189H1102.4C1102.05 322.189 1101.7 322.026 1101.34 321.7C1101 321.357 1100.69 320.995 1100.42 320.616C1100.16 320.218 1099.83 319.856 1099.41 319.531C1099.02 319.187 1098.6 319.015 1098.17 319.015H1095.78C1094.96 319.015 1094.56 319.458 1094.56 320.344V325.66H1097.41C1097.73 325.66 1098.02 325.552 1098.27 325.335C1098.53 325.1 1098.72 324.847 1098.84 324.576C1098.97 324.304 1099.11 324.06 1099.28 323.843C1099.46 323.608 1099.63 323.491 1099.79 323.491H1100.01C1100.37 323.491 1100.55 323.699 1100.55 324.114V328.997C1100.55 329.412 1100.37 329.62 1100.01 329.62H1099.79C1099.63 329.62 1099.46 329.512 1099.28 329.295C1099.11 329.078 1098.97 328.843 1098.84 328.59C1098.72 328.337 1098.53 328.101 1098.27 327.885C1098.02 327.668 1097.73 327.559 1097.41 327.559H1094.56V332.55C1094.56 333.092 1094.68 333.562 1094.94 333.96C1095.19 334.34 1095.61 334.53 1096.19 334.53H1099.03C1099.47 334.53 1099.86 334.358 1100.23 334.014C1100.61 333.653 1100.91 333.264 1101.15 332.848C1101.38 332.432 1101.66 332.052 1101.99 331.709C1102.33 331.347 1102.69 331.166 1103.05 331.166H1103.29C1103.49 331.166 1103.64 331.257 1103.75 331.438C1103.86 331.6 1103.9 331.781 1103.86 331.98L1103.26 335.533C1103.21 335.841 1103.11 336.067 1102.97 336.211C1102.84 336.338 1102.62 336.401 1102.32 336.401H1089.24ZM1122.14 333.445C1122.34 333.933 1122.65 334.385 1123.07 334.801C1123.5 335.199 1123.72 335.524 1123.72 335.777V335.886C1123.72 336.229 1123.5 336.401 1123.07 336.401H1116.04C1115.63 336.401 1115.42 336.229 1115.42 335.886V335.777C1115.42 335.578 1115.54 335.37 1115.8 335.153C1116.07 334.918 1116.29 334.665 1116.48 334.394C1116.67 334.123 1116.71 333.806 1116.58 333.445L1115.99 331.763H1109.1L1108.5 333.445C1108.37 333.806 1108.4 334.123 1108.58 334.394C1108.78 334.665 1109.01 334.918 1109.26 335.153C1109.53 335.37 1109.67 335.578 1109.67 335.777V335.886C1109.67 336.229 1109.45 336.401 1109.02 336.401H1105C1104.57 336.401 1104.35 336.229 1104.35 335.886V335.777C1104.35 335.542 1104.56 335.217 1104.98 334.801C1105.41 334.385 1105.73 333.933 1105.92 333.445L1111 320.317C1111.12 320.01 1111.1 319.693 1110.91 319.368C1110.75 319.042 1110.55 318.735 1110.32 318.446C1110.1 318.156 1109.99 317.93 1109.99 317.768V317.659C1109.99 317.316 1110.2 317.144 1110.62 317.144H1114.09C1114.97 317.144 1115.6 317.578 1115.96 318.446L1122.14 333.445ZM1109.83 329.729H1115.25L1112.54 322.162L1109.83 329.729ZM1132.12 323.735C1133.2 323.735 1134.21 323.952 1135.13 324.386C1136.05 324.82 1136.83 325.552 1137.46 326.583C1138.11 327.595 1138.44 328.834 1138.44 330.298C1138.44 332.215 1137.75 333.761 1136.38 334.936C1135.02 336.094 1133.35 336.672 1131.36 336.672C1129.13 336.672 1127.29 335.804 1125.82 334.069C1124.36 332.315 1123.63 330.036 1123.63 327.234C1123.63 325.317 1123.93 323.59 1124.52 322.053C1125.14 320.498 1126.08 319.25 1127.34 318.31C1128.61 317.352 1130.11 316.873 1131.85 316.873C1133.82 316.873 1135.39 317.297 1136.57 318.147C1137.76 318.979 1138.36 320.001 1138.36 321.212C1138.36 321.972 1138.14 322.541 1137.7 322.921C1137.27 323.283 1136.7 323.463 1136 323.463C1135.36 323.463 1134.83 323.301 1134.4 322.975C1133.96 322.65 1133.65 322.261 1133.45 321.809C1133.25 321.339 1133.07 320.878 1132.9 320.426C1132.76 319.956 1132.57 319.558 1132.33 319.232C1132.12 318.907 1131.85 318.744 1131.52 318.744C1130.82 318.744 1130.21 319.25 1129.7 320.263C1129.22 321.257 1128.91 322.785 1128.78 324.847C1129.63 324.105 1130.74 323.735 1132.12 323.735ZM1131.93 334.801C1132.47 334.801 1132.89 334.584 1133.2 334.15C1133.53 333.698 1133.69 333.065 1133.69 332.251C1133.69 330.732 1133.43 329.25 1132.9 327.803C1132.38 326.357 1131.67 325.633 1130.76 325.633C1130.16 325.633 1129.69 325.85 1129.32 326.284C1128.98 326.7 1128.79 327.261 1128.75 327.966C1128.86 329.901 1129.19 331.528 1129.73 332.848C1130.27 334.15 1131.01 334.801 1131.93 334.801ZM1154.36 329.81C1154.74 329.81 1154.93 329.991 1154.93 330.353V331.275C1154.93 331.637 1154.74 331.817 1154.36 331.817H1152.76V333.418C1152.76 333.888 1152.96 334.349 1153.36 334.801C1153.78 335.235 1153.98 335.56 1153.98 335.777V335.886C1153.98 336.229 1153.78 336.401 1153.36 336.401H1147.39C1146.96 336.401 1146.74 336.229 1146.74 335.886V335.777C1146.74 335.56 1146.92 335.235 1147.29 334.801C1147.67 334.349 1147.86 333.888 1147.86 333.418V331.817H1140.72C1139.89 331.817 1139.47 331.483 1139.47 330.814V330.678C1139.47 330.1 1139.63 329.566 1139.94 329.078L1146.96 318.337C1147.47 317.542 1148.16 317.144 1149.05 317.144H1152.06C1152.53 317.144 1152.76 317.379 1152.76 317.849V329.81H1154.36ZM1142.05 329.81H1147.86V320.914L1142.05 329.81Z" fill="black"/>
<g filter="url(#filter2_d_220_72807)">
<rect x="861.14" y="412.807" width="277.163" height="277.163" rx="20.3422" fill="#E95C49"/>
</g>
<g filter="url(#filter3_d_220_72807)">
<rect x="122.038" y="412.807" width="277.163" height="277.163" rx="20.3422" fill="white"/>
</g>
<g filter="url(#filter4_d_220_72807)">
<rect x="491.588" y="412.807" width="277.163" height="277.163" rx="20.3422" fill="#4C4B55"/>
</g>
<path d="M151.288 867.537C151.704 867.537 151.912 867.691 151.912 867.998V869.409C151.912 869.716 151.704 869.87 151.288 869.87H148.63L147.898 872.582H150.502C150.917 872.582 151.125 872.736 151.125 873.043V874.481C151.125 874.77 150.917 874.915 150.502 874.915H147.301L145.918 880.149C145.845 880.421 145.61 880.556 145.213 880.556H143.368C142.97 880.556 142.826 880.321 142.934 879.851L144.263 874.915H140.575L139.191 880.149C139.119 880.421 138.884 880.556 138.486 880.556H136.642C136.244 880.556 136.099 880.321 136.208 879.851L137.537 874.915H135.475C135.06 874.915 134.852 874.77 134.852 874.481V873.043C134.852 872.917 134.906 872.808 135.014 872.718C135.141 872.627 135.295 872.582 135.475 872.582H138.161L138.866 869.87H136.262C135.846 869.87 135.638 869.716 135.638 869.409V867.998C135.638 867.691 135.846 867.537 136.262 867.537H139.49L140.819 862.601C140.891 862.311 141.072 862.167 141.361 862.167H143.314C143.712 862.167 143.847 862.411 143.721 862.899L142.5 867.537H146.216L147.545 862.601C147.618 862.311 147.798 862.167 148.088 862.167H150.04C150.438 862.167 150.574 862.411 150.447 862.899L149.227 867.537H151.288ZM144.887 872.582L145.592 869.87H141.904L141.171 872.582H144.887ZM154.449 880.556C154.015 880.556 153.798 880.384 153.798 880.041V879.932C153.798 879.715 153.978 879.39 154.34 878.956C154.702 878.504 154.883 878.052 154.883 877.6V864.255C154.883 863.803 154.702 863.36 154.34 862.926C153.978 862.474 153.798 862.14 153.798 861.923V861.814C153.798 861.471 154.006 861.299 154.421 861.299H167.169C167.459 861.299 167.667 861.371 167.793 861.516C167.938 861.642 168.037 861.859 168.091 862.167L168.742 865.584C168.779 865.819 168.733 866.009 168.607 866.154C168.48 866.299 168.299 866.371 168.064 866.371H167.929C167.585 866.371 167.233 866.208 166.871 865.883C166.527 865.539 166.22 865.177 165.949 864.798C165.696 864.4 165.361 864.038 164.945 863.713C164.547 863.369 164.132 863.197 163.698 863.197H161.094C160.262 863.197 159.846 863.631 159.846 864.499V870.575H162.884C163.173 870.575 163.435 870.466 163.67 870.249C163.924 870.014 164.122 869.761 164.267 869.49C164.412 869.201 164.575 868.948 164.755 868.731C164.954 868.495 165.135 868.378 165.298 868.378H165.542C165.885 868.378 166.057 868.586 166.057 869.002V873.884C166.057 874.3 165.885 874.508 165.542 874.508H165.298C165.081 874.508 164.855 874.345 164.62 874.02C164.403 873.676 164.15 873.332 163.86 872.989C163.571 872.645 163.246 872.474 162.884 872.474H159.846V877.6C159.846 878.052 160.045 878.504 160.443 878.956C160.859 879.39 161.067 879.715 161.067 879.932V880.041C161.067 880.384 160.85 880.556 160.416 880.556H154.449ZM170.791 880.556C170.357 880.556 170.14 880.384 170.14 880.041V879.932C170.14 879.715 170.321 879.39 170.683 878.956C171.044 878.504 171.225 878.052 171.225 877.6V864.255C171.225 863.803 171.044 863.36 170.683 862.926C170.321 862.474 170.14 862.14 170.14 861.923V861.814C170.14 861.471 170.348 861.299 170.764 861.299H183.512C183.801 861.299 184.009 861.371 184.136 861.516C184.28 861.642 184.38 861.859 184.434 862.167L185.085 865.584C185.121 865.819 185.076 866.009 184.949 866.154C184.823 866.299 184.642 866.371 184.407 866.371H184.271C183.928 866.371 183.575 866.208 183.214 865.883C182.87 865.539 182.563 865.177 182.291 864.798C182.038 864.4 181.704 864.038 181.288 863.713C180.89 863.369 180.474 863.197 180.04 863.197H177.436C176.605 863.197 176.189 863.631 176.189 864.499V870.575H179.227C179.516 870.575 179.778 870.466 180.013 870.249C180.266 870.014 180.465 869.761 180.61 869.49C180.754 869.201 180.917 868.948 181.098 868.731C181.297 868.495 181.478 868.378 181.64 868.378H181.885C182.228 868.378 182.4 868.586 182.4 869.002V873.884C182.4 874.3 182.228 874.508 181.885 874.508H181.64C181.423 874.508 181.197 874.345 180.962 874.02C180.745 873.676 180.492 873.332 180.203 872.989C179.914 872.645 179.588 872.474 179.227 872.474H176.189V877.6C176.189 878.052 176.388 878.504 176.785 878.956C177.201 879.39 177.409 879.715 177.409 879.932V880.041C177.409 880.384 177.192 880.556 176.758 880.556H170.791ZM187.134 880.556C186.7 880.556 186.483 880.384 186.483 880.041V879.932C186.483 879.715 186.664 879.39 187.025 878.956C187.387 878.504 187.568 878.052 187.568 877.6V864.255C187.568 863.803 187.387 863.36 187.025 862.926C186.664 862.474 186.483 862.14 186.483 861.923V861.814C186.483 861.471 186.691 861.299 187.107 861.299H199.855C200.144 861.299 200.352 861.371 200.478 861.516C200.623 861.642 200.723 861.859 200.777 862.167L201.428 865.584C201.464 865.819 201.419 866.009 201.292 866.154C201.166 866.299 200.985 866.371 200.75 866.371H200.614C200.271 866.371 199.918 866.208 199.556 865.883C199.213 865.539 198.905 865.177 198.634 864.798C198.381 864.4 198.046 864.038 197.631 863.713C197.233 863.369 196.817 863.197 196.383 863.197H193.779C192.947 863.197 192.531 863.631 192.531 864.499V870.575H195.569C195.859 870.575 196.121 870.466 196.356 870.249C196.609 870.014 196.808 869.761 196.952 869.49C197.097 869.201 197.26 868.948 197.441 868.731C197.64 868.495 197.82 868.378 197.983 868.378H198.227C198.571 868.378 198.743 868.586 198.743 869.002V873.884C198.743 874.3 198.571 874.508 198.227 874.508H197.983C197.766 874.508 197.54 874.345 197.305 874.02C197.088 873.676 196.835 873.332 196.546 872.989C196.256 872.645 195.931 872.474 195.569 872.474H192.531V877.6C192.531 878.052 192.73 878.504 193.128 878.956C193.544 879.39 193.752 879.715 193.752 879.932V880.041C193.752 880.384 193.535 880.556 193.101 880.556H187.134ZM203.477 880.556C203.043 880.556 202.826 880.384 202.826 880.041V879.932C202.826 879.715 203.006 879.39 203.368 878.956C203.73 878.504 203.911 878.052 203.911 877.6V864.255C203.911 863.803 203.73 863.36 203.368 862.926C203.006 862.474 202.826 862.14 202.826 861.923V861.814C202.826 861.471 203.034 861.299 203.449 861.299H216.197C216.487 861.299 216.695 861.371 216.821 861.516C216.966 861.642 217.065 861.859 217.119 862.167L217.77 865.584C217.807 865.819 217.761 866.009 217.635 866.154C217.508 866.299 217.327 866.371 217.092 866.371H216.957C216.613 866.371 216.261 866.208 215.899 865.883C215.555 865.539 215.248 865.177 214.977 864.798C214.724 864.4 214.389 864.038 213.973 863.713C213.575 863.369 213.16 863.197 212.726 863.197H210.122C209.29 863.197 208.874 863.631 208.874 864.499V870.575H211.912C212.201 870.575 212.463 870.466 212.698 870.249C212.952 870.014 213.15 869.761 213.295 869.49C213.44 869.201 213.603 868.948 213.783 868.731C213.982 868.495 214.163 868.378 214.326 868.378H214.57C214.913 868.378 215.085 868.586 215.085 869.002V873.884C215.085 874.3 214.913 874.508 214.57 874.508H214.326C214.109 874.508 213.883 874.345 213.648 874.02C213.431 873.676 213.178 873.332 212.888 872.989C212.599 872.645 212.273 872.474 211.912 872.474H208.874V877.6C208.874 878.052 209.073 878.504 209.471 878.956C209.887 879.39 210.095 879.715 210.095 879.932V880.041C210.095 880.384 209.878 880.556 209.444 880.556H203.477ZM219.819 880.556C219.385 880.556 219.168 880.384 219.168 880.041V879.932C219.168 879.715 219.349 879.39 219.711 878.956C220.072 878.504 220.253 878.052 220.253 877.6V864.255C220.253 863.803 220.072 863.36 219.711 862.926C219.349 862.474 219.168 862.14 219.168 861.923V861.814C219.168 861.471 219.376 861.299 219.792 861.299H232.54C232.829 861.299 233.037 861.371 233.164 861.516C233.308 861.642 233.408 861.859 233.462 862.167L234.113 865.584C234.149 865.819 234.104 866.009 233.977 866.154C233.851 866.299 233.67 866.371 233.435 866.371H233.299C232.956 866.371 232.603 866.208 232.242 865.883C231.898 865.539 231.591 865.177 231.319 864.798C231.066 864.4 230.732 864.038 230.316 863.713C229.918 863.369 229.502 863.197 229.068 863.197H226.464C225.633 863.197 225.217 863.631 225.217 864.499V870.575H228.255C228.544 870.575 228.806 870.466 229.041 870.249C229.294 870.014 229.493 869.761 229.638 869.49C229.782 869.201 229.945 868.948 230.126 868.731C230.325 868.495 230.506 868.378 230.668 868.378H230.913C231.256 868.378 231.428 868.586 231.428 869.002V873.884C231.428 874.3 231.256 874.508 230.913 874.508H230.668C230.451 874.508 230.225 874.345 229.99 874.02C229.773 873.676 229.52 873.332 229.231 872.989C228.942 872.645 228.616 872.474 228.255 872.474H225.217V877.6C225.217 878.052 225.416 878.504 225.813 878.956C226.229 879.39 226.437 879.715 226.437 879.932V880.041C226.437 880.384 226.22 880.556 225.786 880.556H219.819ZM236.162 880.556C235.728 880.556 235.511 880.384 235.511 880.041V879.932C235.511 879.715 235.692 879.39 236.053 878.956C236.415 878.504 236.596 878.052 236.596 877.6V864.255C236.596 863.803 236.415 863.36 236.053 862.926C235.692 862.474 235.511 862.14 235.511 861.923V861.814C235.511 861.471 235.719 861.299 236.135 861.299H248.883C249.172 861.299 249.38 861.371 249.506 861.516C249.651 861.642 249.751 861.859 249.805 862.167L250.456 865.584C250.492 865.819 250.447 866.009 250.32 866.154C250.194 866.299 250.013 866.371 249.778 866.371H249.642C249.298 866.371 248.946 866.208 248.584 865.883C248.241 865.539 247.933 865.177 247.662 864.798C247.409 864.4 247.074 864.038 246.659 863.713C246.261 863.369 245.845 863.197 245.411 863.197H242.807C241.975 863.197 241.559 863.631 241.559 864.499V870.575H244.597C244.886 870.575 245.149 870.466 245.384 870.249C245.637 870.014 245.836 869.761 245.98 869.49C246.125 869.201 246.288 868.948 246.469 868.731C246.668 868.495 246.848 868.378 247.011 868.378H247.255C247.599 868.378 247.771 868.586 247.771 869.002V873.884C247.771 874.3 247.599 874.508 247.255 874.508H247.011C246.794 874.508 246.568 874.345 246.333 874.02C246.116 873.676 245.863 873.332 245.574 872.989C245.284 872.645 244.959 872.474 244.597 872.474H241.559V877.6C241.559 878.052 241.758 878.504 242.156 878.956C242.572 879.39 242.78 879.715 242.78 879.932V880.041C242.78 880.384 242.563 880.556 242.129 880.556H236.162Z" fill="black"/>
<path d="M122.028 679.18C106.518 687.503 98.4443 692.102 105.528 708.548C109.076 716.787 113.806 719.398 121.797 717.877C127.11 716.866 124.396 709.1 118.944 710.137C111.831 711.491 105.434 715.649 102.014 722.331C94.028 737.936 110.331 758.209 122.009 766.154C126.649 769.31 137.801 768.29 131.864 761.518C127.671 756.735 119.032 761.76 116.427 765.835C104.625 784.295 124.188 800.111 137.651 809.27C142.175 812.348 152.328 818.185 157.615 818.663C161.9 819.051 150.16 830.393 155.792 823.995C159.05 820.293 163.479 813.263 163.108 808.031C162.929 805.508 168.62 818.64 169.935 820.537C172.143 823.721 177.85 830.96 172.69 829.37C168.417 828.053 161.255 826.33 157.077 827.125" stroke="#1E1D24" stroke-width="4.23797" stroke-linecap="round"/>
<path d="M1115.22 867.537C1115.63 867.537 1115.84 867.691 1115.84 867.998V869.409C1115.84 869.716 1115.63 869.87 1115.22 869.87H1112.56L1111.83 872.582H1114.43C1114.85 872.582 1115.06 872.736 1115.06 873.043V874.481C1115.06 874.77 1114.85 874.915 1114.43 874.915H1111.23L1109.85 880.149C1109.78 880.421 1109.54 880.556 1109.14 880.556H1107.3C1106.9 880.556 1106.76 880.321 1106.86 879.851L1108.19 874.915H1104.5L1103.12 880.149C1103.05 880.421 1102.81 880.556 1102.42 880.556H1100.57C1100.17 880.556 1100.03 880.321 1100.14 879.851L1101.47 874.915H1099.41C1098.99 874.915 1098.78 874.77 1098.78 874.481V873.043C1098.78 872.917 1098.84 872.808 1098.94 872.718C1099.07 872.627 1099.22 872.582 1099.41 872.582H1102.09L1102.8 869.87H1100.19C1099.78 869.87 1099.57 869.716 1099.57 869.409V867.998C1099.57 867.691 1099.78 867.537 1100.19 867.537H1103.42L1104.75 862.601C1104.82 862.311 1105 862.167 1105.29 862.167H1107.24C1107.64 862.167 1107.78 862.411 1107.65 862.899L1106.43 867.537H1110.15L1111.48 862.601C1111.55 862.311 1111.73 862.167 1112.02 862.167H1113.97C1114.37 862.167 1114.5 862.411 1114.38 862.899L1113.16 867.537H1115.22ZM1108.82 872.582L1109.52 869.87H1105.83L1105.1 872.582H1108.82ZM1118.38 880.556C1117.94 880.556 1117.73 880.384 1117.73 880.041V879.932C1117.73 879.715 1117.91 879.39 1118.27 878.956C1118.63 878.504 1118.81 878.043 1118.81 877.573V864.282C1118.81 863.812 1118.63 863.36 1118.27 862.926C1117.91 862.474 1117.73 862.14 1117.73 861.923V861.814C1117.73 861.471 1117.94 861.299 1118.35 861.299H1130.77C1131.06 861.299 1131.27 861.362 1131.4 861.489C1131.54 861.615 1131.64 861.832 1131.7 862.14L1132.35 865.557C1132.38 865.792 1132.34 865.982 1132.21 866.127C1132.08 866.271 1131.9 866.344 1131.67 866.344H1131.53C1131.19 866.344 1130.84 866.181 1130.48 865.855C1130.13 865.512 1129.82 865.15 1129.55 864.771C1129.3 864.373 1128.97 864.011 1128.55 863.686C1128.15 863.342 1127.74 863.17 1127.3 863.17H1124.92C1124.1 863.17 1123.69 863.613 1123.69 864.499V869.815H1126.54C1126.87 869.815 1127.16 869.707 1127.41 869.49C1127.66 869.255 1127.85 869.002 1127.98 868.731C1128.11 868.459 1128.25 868.215 1128.41 867.998C1128.6 867.763 1128.77 867.646 1128.93 867.646H1129.15C1129.51 867.646 1129.69 867.854 1129.69 868.269V873.152C1129.69 873.567 1129.51 873.775 1129.15 873.775H1128.93C1128.77 873.775 1128.6 873.667 1128.41 873.45C1128.25 873.233 1128.11 872.998 1127.98 872.745C1127.85 872.492 1127.66 872.257 1127.41 872.04C1127.16 871.823 1126.87 871.714 1126.54 871.714H1123.69V876.705C1123.69 877.247 1123.82 877.717 1124.07 878.115C1124.33 878.495 1124.74 878.685 1125.32 878.685H1128.17C1128.6 878.685 1129 878.513 1129.36 878.169C1129.74 877.808 1130.05 877.419 1130.29 877.003C1130.52 876.587 1130.8 876.207 1131.13 875.864C1131.47 875.502 1131.82 875.321 1132.18 875.321H1132.43C1132.63 875.321 1132.78 875.412 1132.89 875.593C1133 875.755 1133.03 875.936 1133 876.135L1132.4 879.688C1132.35 879.996 1132.25 880.222 1132.1 880.366C1131.98 880.493 1131.76 880.556 1131.45 880.556H1118.38ZM1141.52 861.028C1143.78 861.028 1145.62 861.896 1147.05 863.631C1148.5 865.367 1149.22 867.646 1149.22 870.466C1149.22 873.577 1148.56 876.081 1147.24 877.979C1145.92 879.878 1143.91 880.827 1141.22 880.827C1139.46 880.827 1137.94 880.402 1136.63 879.553C1135.35 878.685 1134.71 877.663 1134.71 876.488C1134.71 875.783 1134.93 875.231 1135.39 874.833C1135.84 874.435 1136.4 874.236 1137.07 874.236C1137.68 874.236 1138.19 874.399 1138.59 874.725C1139 875.05 1139.31 875.448 1139.51 875.918C1139.73 876.37 1139.92 876.831 1140.08 877.301C1140.24 877.753 1140.44 878.142 1140.68 878.468C1140.91 878.793 1141.21 878.956 1141.57 878.956C1143.09 878.956 1143.94 876.795 1144.12 872.474C1143.31 873.233 1142.19 873.613 1140.76 873.613C1139.94 873.613 1139.18 873.504 1138.45 873.287C1137.73 873.052 1137.06 872.7 1136.44 872.229C1135.83 871.759 1135.34 871.108 1134.98 870.277C1134.62 869.445 1134.44 868.477 1134.44 867.374C1134.44 865.458 1135.11 863.921 1136.44 862.763C1137.8 861.606 1139.49 861.028 1141.52 861.028ZM1142.11 871.741C1143.42 871.741 1144.07 870.882 1144.07 869.164C1143.94 867.392 1143.61 865.91 1143.06 864.716C1142.52 863.505 1141.8 862.899 1140.89 862.899C1140.35 862.899 1139.93 863.116 1139.62 863.55C1139.31 863.984 1139.16 864.608 1139.16 865.422C1139.16 866.308 1139.26 867.221 1139.46 868.161C1139.65 869.083 1139.99 869.915 1140.46 870.656C1140.93 871.38 1141.48 871.741 1142.11 871.741ZM1158.77 868.351C1160.53 868.351 1162.07 868.875 1163.41 869.924C1164.75 870.955 1165.42 872.383 1165.42 874.209C1165.42 876.144 1164.71 877.735 1163.28 878.983C1161.87 880.213 1160.03 880.827 1157.77 880.827C1155.6 880.827 1153.9 880.457 1152.67 879.715C1151.44 878.974 1150.83 877.989 1150.83 876.759C1150.83 875.981 1151.05 875.412 1151.51 875.05C1151.98 874.67 1152.54 874.481 1153.19 874.481C1153.66 874.481 1154.06 874.634 1154.38 874.942C1154.72 875.249 1155 875.62 1155.19 876.054C1155.39 876.488 1155.59 876.922 1155.79 877.356C1156.01 877.79 1156.28 878.16 1156.6 878.468C1156.95 878.775 1157.35 878.929 1157.8 878.929C1158.56 878.929 1159.17 878.594 1159.64 877.925C1160.13 877.256 1160.37 876.235 1160.37 874.86C1160.37 871.786 1159.33 870.249 1157.23 870.249C1156.29 870.249 1155.33 870.638 1154.35 871.416C1153.87 871.814 1153.3 871.895 1152.67 871.66C1152.06 871.425 1151.79 871.027 1151.86 870.466L1152.86 861.896C1152.92 861.498 1153.16 861.299 1153.59 861.299H1164.04C1164.49 861.299 1164.71 861.525 1164.71 861.977V864.499C1164.71 864.951 1164.49 865.177 1164.04 865.177H1154.81L1154.16 869.951C1155.5 868.884 1157.04 868.351 1158.77 868.351ZM1176.07 880.827C1173.43 880.827 1171.22 879.815 1169.43 877.79C1167.66 875.764 1166.77 873.396 1166.77 870.683C1166.77 867.899 1167.6 865.602 1169.27 863.794C1170.93 861.968 1173.11 861.055 1175.8 861.055C1177.94 861.055 1179.78 861.57 1181.34 862.601C1182.89 863.613 1183.67 864.825 1183.67 866.235C1183.67 866.868 1183.46 867.383 1183.05 867.781C1182.65 868.179 1182.11 868.378 1181.42 868.378C1180.8 868.378 1180.25 868.197 1179.76 867.835C1179.28 867.456 1178.87 867.004 1178.54 866.479C1178.24 865.955 1177.92 865.431 1177.59 864.906C1177.27 864.364 1176.87 863.912 1176.4 863.55C1175.95 863.17 1175.42 862.98 1174.83 862.98C1173.92 862.98 1173.15 863.405 1172.49 864.255C1171.86 865.105 1171.55 866.253 1171.55 867.7C1171.55 870.249 1172.16 872.347 1173.39 873.992C1174.62 875.62 1176.04 876.433 1177.65 876.433C1178.24 876.433 1178.79 876.343 1179.28 876.162C1179.78 875.981 1180.22 875.728 1180.6 875.403C1181 875.059 1181.3 874.761 1181.5 874.508C1181.72 874.255 1181.96 873.938 1182.23 873.558C1182.48 873.251 1182.8 873.152 1183.18 873.26C1183.56 873.35 1183.74 873.613 1183.72 874.047C1183.65 875.927 1182.95 877.527 1181.63 878.847C1180.33 880.167 1178.48 880.827 1176.07 880.827ZM1199.45 873.965C1199.83 873.965 1200.02 874.146 1200.02 874.508V875.43C1200.02 875.792 1199.83 875.972 1199.45 875.972H1197.85V877.573C1197.85 878.043 1198.05 878.504 1198.44 878.956C1198.86 879.39 1199.07 879.715 1199.07 879.932V880.041C1199.07 880.384 1198.86 880.556 1198.44 880.556H1192.48C1192.04 880.556 1191.83 880.384 1191.83 880.041V879.932C1191.83 879.715 1192.01 879.39 1192.37 878.956C1192.75 878.504 1192.94 878.043 1192.94 877.573V875.972H1185.8C1184.97 875.972 1184.56 875.638 1184.56 874.969V874.833C1184.56 874.255 1184.71 873.721 1185.02 873.233L1192.04 862.492C1192.55 861.697 1193.24 861.299 1194.13 861.299H1197.14C1197.61 861.299 1197.85 861.534 1197.85 862.004V873.965H1199.45ZM1187.13 873.965H1192.94V865.069L1187.13 873.965ZM1208.64 861.028C1210.9 861.028 1212.74 861.896 1214.17 863.631C1215.62 865.367 1216.34 867.646 1216.34 870.466C1216.34 873.577 1215.68 876.081 1214.36 877.979C1213.04 879.878 1211.03 880.827 1208.34 880.827C1206.58 880.827 1205.06 880.402 1203.75 879.553C1202.47 878.685 1201.83 877.663 1201.83 876.488C1201.83 875.783 1202.05 875.231 1202.51 874.833C1202.96 874.435 1203.52 874.236 1204.19 874.236C1204.8 874.236 1205.31 874.399 1205.71 874.725C1206.12 875.05 1206.43 875.448 1206.63 875.918C1206.85 876.37 1207.04 876.831 1207.2 877.301C1207.36 877.753 1207.56 878.142 1207.79 878.468C1208.03 878.793 1208.33 878.956 1208.69 878.956C1210.21 878.956 1211.06 876.795 1211.24 872.474C1210.43 873.233 1209.3 873.613 1207.88 873.613C1207.06 873.613 1206.29 873.504 1205.57 873.287C1204.85 873.052 1204.18 872.7 1203.56 872.229C1202.95 871.759 1202.46 871.108 1202.1 870.277C1201.74 869.445 1201.56 868.477 1201.56 867.374C1201.56 865.458 1202.23 863.921 1203.56 862.763C1204.92 861.606 1206.61 861.028 1208.64 861.028ZM1209.23 871.741C1210.53 871.741 1211.19 870.882 1211.19 869.164C1211.06 867.392 1210.72 865.91 1210.18 864.716C1209.64 863.505 1208.92 862.899 1208.01 862.899C1207.47 862.899 1207.04 863.116 1206.74 863.55C1206.43 863.984 1206.28 864.608 1206.28 865.422C1206.28 866.308 1206.38 867.221 1206.57 868.161C1206.77 869.083 1207.11 869.915 1207.58 870.656C1208.05 871.38 1208.6 871.741 1209.23 871.741Z" fill="black"/>
<path d="M631.344 867.537C631.76 867.537 631.968 867.691 631.968 867.998V869.409C631.968 869.716 631.76 869.87 631.344 869.87H628.686L627.954 872.582H630.558C630.974 872.582 631.182 872.736 631.182 873.043V874.481C631.182 874.77 630.974 874.915 630.558 874.915H627.357L625.974 880.149C625.902 880.421 625.667 880.556 625.269 880.556H623.425C623.027 880.556 622.882 880.321 622.991 879.851L624.32 874.915H620.631L619.248 880.149C619.175 880.421 618.94 880.556 618.542 880.556H616.698C616.3 880.556 616.156 880.321 616.264 879.851L617.593 874.915H615.532C615.116 874.915 614.908 874.77 614.908 874.481V873.043C614.908 872.917 614.962 872.808 615.071 872.718C615.197 872.627 615.351 872.582 615.532 872.582H618.217L618.922 869.87H616.318C615.902 869.87 615.695 869.716 615.695 869.409V867.998C615.695 867.691 615.902 867.537 616.318 867.537H619.546L620.875 862.601C620.947 862.311 621.128 862.167 621.417 862.167H623.37C623.768 862.167 623.904 862.411 623.777 862.899L622.557 867.537H626.272L627.602 862.601C627.674 862.311 627.855 862.167 628.144 862.167H630.097C630.495 862.167 630.63 862.411 630.504 862.899L629.283 867.537H631.344ZM624.943 872.582L625.649 869.87H621.96L621.228 872.582H624.943ZM647.66 873.965C648.039 873.965 648.229 874.146 648.229 874.508V875.43C648.229 875.792 648.039 875.972 647.66 875.972H646.059V877.573C646.059 878.043 646.258 878.504 646.656 878.956C647.072 879.39 647.28 879.715 647.28 879.932V880.041C647.28 880.384 647.072 880.556 646.656 880.556H640.689C640.255 880.556 640.038 880.384 640.038 880.041V879.932C640.038 879.715 640.219 879.39 640.581 878.956C640.96 878.504 641.15 878.043 641.15 877.573V875.972H634.017C633.185 875.972 632.769 875.638 632.769 874.969V874.833C632.769 874.255 632.923 873.721 633.23 873.233L640.255 862.492C640.761 861.697 641.457 861.299 642.344 861.299H645.354C645.824 861.299 646.059 861.534 646.059 862.004V873.965H647.66ZM635.346 873.965H641.15V865.069L635.346 873.965ZM658.774 880.827C656.134 880.827 653.919 879.815 652.129 877.79C650.357 875.764 649.471 873.396 649.471 870.683C649.471 867.899 650.302 865.602 651.966 863.794C653.63 861.968 655.808 861.055 658.503 861.055C660.636 861.055 662.481 861.57 664.036 862.601C665.591 863.613 666.368 864.825 666.368 866.235C666.368 866.868 666.16 867.383 665.744 867.781C665.347 868.179 664.804 868.378 664.117 868.378C663.502 868.378 662.951 868.197 662.463 867.835C661.974 867.456 661.568 867.004 661.242 866.479C660.935 865.955 660.618 865.431 660.293 864.906C659.967 864.364 659.569 863.912 659.099 863.55C658.647 863.17 658.123 862.98 657.526 862.98C656.622 862.98 655.845 863.405 655.194 864.255C654.561 865.105 654.244 866.253 654.244 867.7C654.244 870.249 654.859 872.347 656.089 873.992C657.318 875.62 658.738 876.433 660.347 876.433C660.944 876.433 661.486 876.343 661.974 876.162C662.481 875.981 662.924 875.728 663.303 875.403C663.701 875.059 664 874.761 664.198 874.508C664.415 874.255 664.66 873.938 664.931 873.558C665.184 873.251 665.5 873.152 665.88 873.26C666.26 873.35 666.441 873.613 666.423 874.047C666.35 875.927 665.654 877.527 664.334 878.847C663.032 880.167 661.179 880.827 658.774 880.827ZM682.146 873.965C682.526 873.965 682.716 874.146 682.716 874.508V875.43C682.716 875.792 682.526 875.972 682.146 875.972H680.546V877.573C680.546 878.043 680.745 878.504 681.143 878.956C681.558 879.39 681.766 879.715 681.766 879.932V880.041C681.766 880.384 681.558 880.556 681.143 880.556H675.175C674.741 880.556 674.525 880.384 674.525 880.041V879.932C674.525 879.715 674.705 879.39 675.067 878.956C675.447 878.504 675.637 878.043 675.637 877.573V875.972H668.503C667.671 875.972 667.256 875.638 667.256 874.969V874.833C667.256 874.255 667.409 873.721 667.717 873.233L674.741 862.492C675.248 861.697 675.944 861.299 676.83 861.299H679.841C680.311 861.299 680.546 861.534 680.546 862.004V873.965H682.146ZM669.832 873.965H675.637V865.069L669.832 873.965ZM696.542 870.195C698.097 870.412 699.327 870.964 700.231 871.85C701.135 872.736 701.587 873.83 701.587 875.132C701.587 876.795 700.828 878.115 699.309 879.092C697.79 880.068 695.521 880.556 692.501 880.556H685.069C684.635 880.556 684.418 880.384 684.418 880.041V879.932C684.418 879.715 684.599 879.39 684.961 878.956C685.322 878.504 685.503 878.052 685.503 877.6V864.255C685.503 863.803 685.322 863.36 684.961 862.926C684.599 862.474 684.418 862.14 684.418 861.923V861.814C684.418 861.471 684.635 861.299 685.069 861.299H692.582C694.915 861.299 696.678 861.751 697.871 862.655C699.083 863.559 699.688 864.734 699.688 866.181C699.688 867.194 699.399 868.052 698.821 868.758C698.26 869.463 697.501 869.942 696.542 870.195ZM690.385 864.608V868.025C690.385 868.459 690.521 868.803 690.792 869.056C691.063 869.309 691.416 869.436 691.85 869.436H693.206C693.893 869.436 694.445 869.21 694.861 868.758C695.276 868.288 695.484 867.664 695.484 866.886C695.484 865.729 695.204 864.825 694.644 864.174C694.101 863.523 693.36 863.197 692.42 863.197H691.66C690.81 863.197 690.385 863.668 690.385 864.608ZM693.721 878.658C694.571 878.658 695.231 878.404 695.701 877.898C696.19 877.374 696.434 876.687 696.434 875.837C696.434 874.716 695.991 873.685 695.105 872.745C694.237 871.804 693.043 871.334 691.524 871.334H690.385V876.352C690.385 877.021 690.566 877.573 690.928 878.007C691.307 878.441 691.805 878.658 692.42 878.658H693.721ZM710.817 868.351C712.571 868.351 714.117 868.875 715.455 869.924C716.793 870.955 717.463 872.383 717.463 874.209C717.463 876.144 716.748 877.735 715.32 878.983C713.909 880.213 712.074 880.827 709.814 880.827C707.644 880.827 705.944 880.457 704.715 879.715C703.485 878.974 702.87 877.989 702.87 876.759C702.87 875.981 703.096 875.412 703.548 875.05C704.019 874.67 704.579 874.481 705.23 874.481C705.7 874.481 706.098 874.634 706.423 874.942C706.767 875.249 707.038 875.62 707.237 876.054C707.436 876.488 707.635 876.922 707.834 877.356C708.051 877.79 708.322 878.16 708.648 878.468C708.991 878.775 709.389 878.929 709.841 878.929C710.6 878.929 711.215 878.594 711.685 877.925C712.174 877.256 712.418 876.235 712.418 874.86C712.418 871.786 711.369 870.249 709.271 870.249C708.331 870.249 707.373 870.638 706.396 871.416C705.908 871.814 705.348 871.895 704.715 871.66C704.1 871.425 703.829 871.027 703.901 870.466L704.905 861.896C704.959 861.498 705.203 861.299 705.637 861.299H716.079C716.531 861.299 716.757 861.525 716.757 861.977V864.499C716.757 864.951 716.531 865.177 716.079 865.177H706.857L706.206 869.951C707.545 868.884 709.082 868.351 710.817 868.351ZM726.816 868.351C728.57 868.351 730.116 868.875 731.454 869.924C732.792 870.955 733.461 872.383 733.461 874.209C733.461 876.144 732.747 877.735 731.318 878.983C729.908 880.213 728.072 880.827 725.812 880.827C723.642 880.827 721.943 880.457 720.713 879.715C719.483 878.974 718.869 877.989 718.869 876.759C718.869 875.981 719.095 875.412 719.547 875.05C720.017 874.67 720.577 874.481 721.228 874.481C721.699 874.481 722.096 874.634 722.422 874.942C722.765 875.249 723.037 875.62 723.235 876.054C723.434 876.488 723.633 876.922 723.832 877.356C724.049 877.79 724.32 878.16 724.646 878.468C724.989 878.775 725.387 878.929 725.839 878.929C726.599 878.929 727.214 878.594 727.684 877.925C728.172 877.256 728.416 876.235 728.416 874.86C728.416 871.786 727.367 870.249 725.27 870.249C724.329 870.249 723.371 870.638 722.395 871.416C721.906 871.814 721.346 871.895 720.713 871.66C720.098 871.425 719.827 871.027 719.899 870.466L720.903 861.896C720.957 861.498 721.201 861.299 721.635 861.299H732.078C732.53 861.299 732.756 861.525 732.756 861.977V864.499C732.756 864.951 732.53 865.177 732.078 865.177H722.856L722.205 869.951C723.543 868.884 725.08 868.351 726.816 868.351Z" fill="black"/>
<path d="M1137.45 681.016C1152.73 683.481 1160.77 685.014 1160.73 702.815C1160.71 711.733 1157.82 715.794 1150.89 717.111C1146.29 717.987 1145.81 709.797 1150.53 708.898C1156.69 707.726 1163.24 709.421 1168.27 714.496C1180.01 726.346 1173.9 750.884 1167.27 762.313C1164.63 766.854 1155.35 769.721 1157.78 761.356C1159.5 755.448 1168.15 757.186 1171.63 760.102C1187.41 773.314 1177.16 794.803 1169.51 807.979C1166.94 812.406 1160.81 821.341 1156.74 823.6C1153.44 825.431 1166.73 832.011 1160.02 827.96C1156.15 825.615 1150.19 820.562 1148.69 815.544C1147.97 813.123 1147.91 827.349 1147.51 829.574C1146.83 833.306 1144.74 842.029 1148.33 838.774C1151.3 836.079 1156.45 832.015 1160.07 831.326" stroke="#1E1D24" stroke-width="4.23797" stroke-linecap="round"/>
<path d="M594.147 689.97C616.519 724.466 641.201 754.387 666.619 785.919C668.054 787.699 683.421 805.929 683.421 804.292C683.421 790.415 670.111 778.263 668.846 765.504C667.496 751.893 677.123 792.015 685.243 802.25C688.178 805.95 675.689 798.949 673.907 798.167C663.264 793.501 652.77 794.084 641.517 794.084" stroke="#1C1C1C" stroke-width="4.23797" stroke-linecap="round"/>
<defs>
<filter id="filter0_d_220_72807" x="304.686" y="55.8012" width="335.986" height="335.986" filterUnits="userSpaceOnUse" color-interpolation-filters="sRGB">
<feFlood flood-opacity="0" result="BackgroundImageFix"/>
<feColorMatrix in="SourceAlpha" type="matrix" values="0 0 0 0 0 0 0 0 0 0 0 0 0 0 0 0 0 0 127 0" result="hardAlpha"/>
<feOffset dx="11.0187" dy="3.39037"/>
<feGaussianBlur stdDeviation="9.83208"/>
<feComposite in2="hardAlpha" operator="out"/>
<feColorMatrix type="matrix" values="0 0 0 0 0 0 0 0 0 0 0 0 0 0 0 0 0 0 0.12 0"/>
<feBlend mode="normal" in2="BackgroundImageFix" result="effect1_dropShadow_220_72807"/>
<feBlend mode="normal" in="SourceGraphic" in2="effect1_dropShadow_220_72807" result="shape"/>
</filter>
<filter id="filter1_d_220_72807" x="689.493" y="55.8012" width="335.986" height="335.986" filterUnits="userSpaceOnUse" color-interpolation-filters="sRGB">
<feFlood flood-opacity="0" result="BackgroundImageFix"/>
<feColorMatrix in="SourceAlpha" type="matrix" values="0 0 0 0 0 0 0 0 0 0 0 0 0 0 0 0 0 0 127 0" result="hardAlpha"/>
<feOffset dx="11.0187" dy="3.39037"/>
<feGaussianBlur stdDeviation="9.83208"/>
<feComposite in2="hardAlpha" operator="out"/>
<feColorMatrix type="matrix" values="0 0 0 0 0 0 0 0 0 0 0 0 0 0 0 0 0 0 0.12 0"/>
<feBlend mode="normal" in2="BackgroundImageFix" result="effect1_dropShadow_220_72807"/>
<feBlend mode="normal" in="SourceGraphic" in2="effect1_dropShadow_220_72807" result="shape"/>
</filter>
<filter id="filter2_d_220_72807" x="852.494" y="396.534" width="316.491" height="316.491" filterUnits="userSpaceOnUse" color-interpolation-filters="sRGB">
<feFlood flood-opacity="0" result="BackgroundImageFix"/>
<feColorMatrix in="SourceAlpha" type="matrix" values="0 0 0 0 0 0 0 0 0 0 0 0 0 0 0 0 0 0 127 0" result="hardAlpha"/>
<feOffset dx="11.0187" dy="3.39037"/>
<feGaussianBlur stdDeviation="9.83208"/>
<feComposite in2="hardAlpha" operator="out"/>
<feColorMatrix type="matrix" values="0 0 0 0 0 0 0 0 0 0 0 0 0 0 0 0 0 0 0.12 0"/>
<feBlend mode="normal" in2="BackgroundImageFix" result="effect1_dropShadow_220_72807"/>
<feBlend mode="normal" in="SourceGraphic" in2="effect1_dropShadow_220_72807" result="shape"/>
</filter>
<filter id="filter3_d_220_72807" x="113.393" y="396.534" width="316.491" height="316.491" filterUnits="userSpaceOnUse" color-interpolation-filters="sRGB">
<feFlood flood-opacity="0" result="BackgroundImageFix"/>
<feColorMatrix in="SourceAlpha" type="matrix" values="0 0 0 0 0 0 0 0 0 0 0 0 0 0 0 0 0 0 127 0" result="hardAlpha"/>
<feOffset dx="11.0187" dy="3.39037"/>
<feGaussianBlur stdDeviation="9.83208"/>
<feComposite in2="hardAlpha" operator="out"/>
<feColorMatrix type="matrix" values="0 0 0 0 0 0 0 0 0 0 0 0 0 0 0 0 0 0 0.12 0"/>
<feBlend mode="normal" in2="BackgroundImageFix" result="effect1_dropShadow_220_72807"/>
<feBlend mode="normal" in="SourceGraphic" in2="effect1_dropShadow_220_72807" result="shape"/>
</filter>
<filter id="filter4_d_220_72807" x="482.942" y="396.534" width="316.491" height="316.491" filterUnits="userSpaceOnUse" color-interpolation-filters="sRGB">
<feFlood flood-opacity="0" result="BackgroundImageFix"/>
<feColorMatrix in="SourceAlpha" type="matrix" values="0 0 0 0 0 0 0 0 0 0 0 0 0 0 0 0 0 0 127 0" result="hardAlpha"/>
<feOffset dx="11.0187" dy="3.39037"/>
<feGaussianBlur stdDeviation="9.83208"/>
<feComposite in2="hardAlpha" operator="out"/>
<feColorMatrix type="matrix" values="0 0 0 0 0 0 0 0 0 0 0 0 0 0 0 0 0 0 0.12 0"/>
<feBlend mode="normal" in2="BackgroundImageFix" result="effect1_dropShadow_220_72807"/>
<feBlend mode="normal" in="SourceGraphic" in2="effect1_dropShadow_220_72807" result="shape"/>
</filter>
</defs>
</svg>
