<svg width="102" height="37" viewBox="0 0 102 37" fill="none" xmlns="http://www.w3.org/2000/svg">
<path d="M0.74707 17.8616C0.784643 17.824 0.822215 17.7864 0.859787 17.7113C1.12279 17.2228 1.57366 17.0725 2.09967 17.1477C2.62568 17.2604 2.96383 17.6737 3.00141 18.2373C3.00141 18.876 2.55054 19.3645 1.94938 19.402C1.49852 19.402 1.12279 19.2142 0.897359 18.8009C0.897359 18.7633 0.822215 18.7257 0.784643 18.6882C0.784643 18.4251 0.784643 18.1621 0.784643 17.8616H0.74707Z" fill="#6E6E6B"/>
<path d="M19.1572 0.165014C19.3451 0.315303 19.5705 0.42802 19.7584 0.615881C20.0965 0.991603 20.059 1.59276 19.7208 1.96848C19.3451 2.38178 18.7815 2.49449 18.2931 2.19392C17.9174 1.96848 17.7295 1.63033 17.7295 1.21704C17.7295 0.76617 17.9925 0.390447 18.4058 0.202586C18.4058 0.202586 18.4809 0.165014 18.5185 0.127441C18.7439 0.127441 18.9318 0.127441 19.1572 0.127441V0.165014Z" fill="#6E6E6B"/>
<path d="M48.2007 14.4802V6.92822C48.2758 6.92822 48.351 6.92822 48.4261 6.92822C49.666 6.92822 50.9435 6.92822 52.1833 6.92822C52.3712 6.92822 52.4088 7.00337 52.4088 7.19123C52.4088 12.4138 52.4088 17.6363 52.4088 22.8589C52.4088 23.0467 52.3712 23.1219 52.1833 23.0843C51.77 23.0843 51.3192 23.0843 50.9059 23.0843C50.7556 23.0843 50.6805 23.0843 50.5677 22.934C49.7411 22.1074 48.9145 21.2808 48.0504 20.4167C46.4348 18.8011 44.8192 17.223 43.2036 15.6074C43.166 15.5698 43.0909 15.5323 43.0157 15.4196V15.7201C43.0157 18.0496 43.0157 20.4167 43.0157 22.7461C43.0157 22.9465 42.928 23.0467 42.7527 23.0467C41.5128 23.0467 40.3105 23.0467 39.0706 23.0467H38.8076V6.92822C38.8452 6.92822 38.9203 6.92822 38.9955 6.92822C39.4463 6.92822 39.8972 6.92822 40.3857 6.92822C40.4608 6.92822 40.6111 6.96579 40.6487 7.04094C43.0533 9.44556 45.4579 11.8502 47.8625 14.2548C47.9377 14.33 48.0128 14.4427 48.088 14.5554C48.088 14.5554 48.1631 14.5178 48.2007 14.4802Z" fill="#6E6E6B"/>
<path d="M72.7735 18.8386C72.7735 18.9513 72.7735 19.0265 72.7735 19.1392C72.7735 20.3791 72.7735 21.619 72.7735 22.8589C72.7735 23.0467 72.7359 23.1219 72.5105 23.1219C71.233 23.1219 69.9931 23.1219 68.7157 23.1219H68.4902V6.92822H68.7532C70.97 6.92822 73.1868 6.92822 75.4035 6.92822C76.155 6.92822 76.8688 7.04094 77.5451 7.34152C78.2966 7.67967 79.0105 8.09296 79.574 8.69412C80.4758 9.59585 81.0394 10.6854 81.1897 11.9629C81.3399 13.2779 81.1897 14.5178 80.5509 15.6826C80.4006 15.9831 80.2128 16.2461 80.0249 16.5091C79.8371 16.7722 79.6116 16.9976 79.3862 17.2606C80.5134 19.1768 81.603 21.093 82.7677 23.0467C82.655 23.0467 82.5798 23.0467 82.5047 23.0467C81.0394 23.0467 79.574 23.0467 78.1463 23.0467C77.996 23.0467 77.8833 23.0091 77.8082 22.8589C77.0567 21.5814 76.2677 20.3039 75.5162 19.0265C75.4035 18.8762 75.3284 18.8011 75.1405 18.8011C74.3515 18.8011 73.6001 18.8011 72.7735 18.8011V18.8386ZM72.7359 15.0814C72.7735 15.0814 72.811 15.0814 72.8486 15.0814C73.7879 15.0814 74.6897 15.0814 75.629 15.0814C76.3053 15.0814 76.8688 14.7433 77.2821 14.1421C77.6203 13.6537 77.7706 13.0901 77.6954 12.4889C77.5827 11.3617 76.5307 10.5352 75.5538 10.4976C74.6897 10.4976 73.8631 10.4976 72.9989 10.4976C72.9238 10.4976 72.8486 10.4976 72.7359 10.4976V15.0814Z" fill="#6E6E6B"/>
<path d="M101.29 23.0467C101.14 23.0467 101.102 23.0467 101.027 23.0467C99.7874 23.0467 98.5851 23.0467 97.3452 23.0467C97.1949 23.0467 97.1198 22.9716 97.0446 22.8589C96.7816 22.2953 96.5186 21.7317 96.2556 21.1681C96.1805 21.0178 96.1053 20.9803 95.955 20.9803C93.8885 20.9803 91.8221 20.9803 89.7556 20.9803C89.6053 20.9803 89.5302 21.0178 89.455 21.1681C89.192 21.7317 88.929 22.3329 88.6284 22.8965C88.6284 22.9716 88.5157 23.0467 88.4406 23.0467C87.088 23.0467 85.7354 23.0467 84.4203 23.0467C84.4203 23.0467 84.3828 23.0467 84.3076 23.0467C84.4579 22.7462 84.5706 22.4456 84.7209 22.1826C85.6602 20.1537 86.5995 18.1624 87.5388 16.171C88.2151 14.7057 88.929 13.2404 89.6053 11.8126C90.3192 10.2722 91.0706 8.69414 91.7845 7.15368C91.8596 7.04096 91.8972 6.96582 92.0475 6.96582C92.5735 6.96582 93.0995 6.96582 93.6255 6.96582C93.7758 6.96582 93.851 7.00339 93.8885 7.15368C94.7527 9.03229 95.6544 10.8733 96.5186 12.7144C97.4579 14.6681 98.3596 16.6219 99.2989 18.5756C99.9377 19.8907 100.539 21.2057 101.178 22.5207C101.253 22.7086 101.29 22.8965 101.365 23.1219L101.29 23.0467ZM92.8365 13.9167C92.3105 15.0814 91.7845 16.2086 91.2585 17.3358H94.377C93.851 16.2086 93.3625 15.0814 92.8365 13.9167Z" fill="#6E6E6B"/>
<path d="M66.8742 6.92822V7.19123C66.8742 8.39354 66.8742 9.63342 66.8742 10.8357C66.8742 11.0111 66.774 11.0987 66.5736 11.0987C65.3337 11.0987 64.0563 11.0987 62.8164 11.0987H62.5158V23.0467H58.3077V11.0987H54.0996V6.92822H66.8366H66.8742Z" fill="#6E6E6B"/>
<path d="M60.4493 30.2226H65.8597V28.9827H66.3105V30.2226H67.0244V28.9827C67.062 28.9827 67.0996 28.9827 67.1371 28.9827C67.6631 28.9827 67.5504 28.9827 67.5504 29.3585C67.5504 29.659 67.5504 29.922 67.5504 30.2226H68.2643C68.2643 29.922 68.2643 29.6215 68.2643 29.3209C68.2643 28.9452 68.2643 28.607 68.2643 28.2313C68.2643 28.0059 68.377 28.0059 68.5273 28.0059C68.7152 28.0059 68.7527 28.0434 68.7527 28.2313C68.7527 28.9827 68.7527 29.6966 68.7527 30.4481C68.7527 30.5983 68.7152 30.6735 68.5649 30.6735C68.1516 30.6735 67.7383 30.6735 67.325 30.6735C63.5302 30.6735 59.773 30.6735 55.9782 30.6735C55.7527 30.6735 55.5273 30.6359 55.3019 30.5983C55.2267 30.8614 55.2267 31.1995 54.9637 31.3498C54.7759 31.4625 54.588 31.5001 54.3626 31.5752C54.2874 31.2371 54.2874 31.1995 54.5504 31.0868C54.7007 31.0116 54.7759 30.8989 54.7759 30.7111C54.7759 30.3353 54.7759 29.9596 54.8134 29.6215C54.851 29.1706 55.2267 28.9076 55.7527 28.9452C56.0909 28.9452 56.3915 29.2833 56.3915 29.6966C56.3915 29.8845 56.3915 30.0348 56.3915 30.2602H57.1429V29.0203C57.1805 29.0203 57.1805 29.0203 57.2181 29.0203C57.5186 29.0203 57.6689 29.1581 57.6689 29.4336C57.6689 29.6966 57.6689 29.9596 57.6689 30.2602C57.6689 30.2602 57.6689 30.2602 57.6689 30.3353C57.7816 30.3353 57.8944 30.3353 58.0071 30.3353C58.1198 30.3353 58.2325 30.3353 58.3452 30.3353V28.1186H58.7961V29.5463C59.0215 29.396 59.2094 29.2082 59.4348 29.0579C59.8481 28.8325 60.3366 29.0203 60.4493 29.4336C60.4868 29.5839 60.4493 29.7342 60.4493 29.8845C60.4493 29.9972 60.4493 30.1475 60.4493 30.2978V30.2226ZM59.9608 30.2226C59.9608 30.0348 59.9608 29.8845 59.9608 29.6966C59.9608 29.3209 59.7354 29.1706 59.3973 29.396C59.0967 29.5839 58.9088 29.8845 58.7961 30.2226H59.9608ZM55.9406 30.2226C55.9406 29.9972 55.9406 29.7342 55.8655 29.5463C55.8655 29.4712 55.7152 29.3209 55.6025 29.3209C55.5273 29.3209 55.377 29.396 55.3394 29.5087C55.1892 29.6966 55.2267 29.9596 55.3394 30.1099C55.4522 30.2978 55.6776 30.2602 55.903 30.2226H55.9406Z" fill="#6E6E6B"/>
<path d="M7.35987 7.67945C7.35987 8.6939 6.57085 9.48291 5.5564 9.48291C4.57952 9.48291 3.75293 8.76904 3.75293 7.64187C3.75293 6.58985 4.54195 5.87598 5.5564 5.87598C6.4957 5.87598 7.32229 6.51471 7.35987 7.71702V7.67945Z" fill="#6E6E6B"/>
<path d="M10.0649 4.97419C10.0649 5.95107 9.23835 6.74009 8.2239 6.70251C7.24702 6.70251 6.45801 5.87592 6.45801 4.89905C6.45801 3.92217 7.24703 3.13315 8.29905 3.17072C9.27593 3.17072 10.0274 3.95974 10.0649 4.97419Z" fill="#6E6E6B"/>
<path d="M99.1492 28.0434C99.1868 28.0434 99.1868 28.0434 99.2243 28.0434C99.5249 28.0184 99.6752 28.1436 99.6752 28.4192C99.6752 29.0955 99.6752 29.7718 99.6752 30.4481C99.6752 30.5983 99.6376 30.6735 99.4873 30.6735C96.2937 30.6735 93.1 30.6735 89.944 30.6735C89.7561 30.6735 89.7185 30.5983 89.7185 30.4481C89.7185 29.8845 89.7185 29.2833 89.7185 28.7197C89.7185 28.4943 89.7185 28.3816 89.418 28.3816V28.081C89.6058 28.081 89.7937 28.0434 90.0191 28.0059C90.1694 28.0059 90.207 28.0434 90.207 28.1937C90.207 28.7573 90.207 29.3585 90.207 29.922V30.1851H90.8081C90.8081 29.659 90.996 29.4336 91.3342 29.4336C91.8602 29.4336 91.9729 29.5463 92.048 30.1851H92.2735C92.3486 29.5088 92.0105 29.0955 91.4844 29.1706C91.2214 29.1706 90.996 29.2082 90.733 29.2457C90.6579 28.87 90.6954 28.8325 91.0711 28.8325C91.3342 28.8325 91.5972 28.8325 91.8226 28.8325C92.4237 28.9076 92.6868 29.3585 92.7619 29.922C92.7619 29.9972 92.7619 30.1099 92.7619 30.2226C94.4902 30.2226 96.2186 30.2226 97.9469 30.2226C98.022 29.6966 97.9093 29.3585 97.4584 29.3585C97.3081 29.3585 97.1579 29.3585 97.0076 29.3585C97.0076 29.2457 97.0076 29.1706 97.0076 29.0955C97.0076 29.0579 97.0451 28.9827 97.0827 28.9827C97.4584 28.9827 97.8717 28.9827 98.2099 29.2082C98.4729 29.396 98.4353 29.6966 98.4729 29.9596C98.4729 30.0348 98.4729 30.1099 98.4729 30.2226H99.1868V28.0434H99.1492ZM91.5596 30.2226C91.5596 30.0723 91.6347 29.8845 91.4093 29.8469C91.3717 29.8469 91.2214 29.9596 91.2214 30.0348C91.2214 30.1851 91.3342 30.2978 91.5596 30.2226Z" fill="#6E6E6B"/>
<path d="M14.1978 8.09288C13.2961 8.16802 12.4695 7.26629 12.5071 6.36455C12.5071 5.3501 13.3337 4.63623 14.2354 4.63623C15.2499 4.63623 15.9262 5.38768 15.9637 6.36455C15.9637 7.34143 15.1372 8.13045 14.1978 8.09288Z" fill="#6E6E6B"/>
<path d="M10.8913 10.0089C9.91444 10.0089 9.163 9.25745 9.20057 8.28057C9.20057 7.30369 9.8393 6.58982 10.8913 6.55225C11.9058 6.55225 12.6196 7.30369 12.6196 8.28057C12.6196 9.25745 11.8306 10.0089 10.8913 9.97132V10.0089Z" fill="#6E6E6B"/>
<path d="M77.3569 30.6359C77.169 31.2746 76.8685 31.5001 76.2297 31.5001C76.1922 31.5001 76.1546 31.5001 76.117 31.5001C75.7413 31.5001 75.7037 31.4625 75.7789 31.0868C75.9667 31.0868 76.1922 31.0868 76.38 31.0868C76.643 31.0868 76.7933 30.9365 76.8309 30.6735C76.643 30.6735 76.4552 30.5983 76.2673 30.5608C76.0419 30.5232 75.8916 30.3729 75.8164 30.1475C75.6286 29.4712 75.9667 28.9076 76.6806 28.9076C76.8685 28.9076 77.0563 28.9076 77.2818 28.9452V30.2226H83.1806C83.0303 29.7718 83.0303 29.3209 83.4812 29.0579C83.7818 28.87 84.1951 28.87 84.4581 29.0579C84.8338 29.3585 84.7962 29.7718 84.6459 30.2226H85.3598C85.3598 30.1099 85.3598 29.9972 85.3598 29.8845C85.3598 29.3209 85.3598 28.7949 85.3598 28.2313C85.3598 28.0434 85.4349 28.0059 85.6228 28.0059C85.8107 28.0059 85.8858 28.0434 85.8858 28.2313C85.8858 28.9452 85.8858 29.659 85.8858 30.3729C85.8858 30.5983 85.8107 30.6359 85.6228 30.6359C82.9552 30.6359 80.2875 30.6359 77.6199 30.6359H77.3193H77.3569ZM83.6315 29.7718C83.6315 29.9596 83.6315 30.1475 83.8193 30.2226C84.0072 30.2978 84.1199 30.2226 84.1951 30.0723C84.3078 29.922 84.3078 29.5839 84.1951 29.4336C84.0823 29.3209 83.9696 29.2833 83.8193 29.3585C83.669 29.4336 83.5939 29.5839 83.6315 29.7718ZM76.8685 30.2226V29.3585C76.6806 29.2833 76.5303 29.2833 76.38 29.4336C76.2673 29.5463 76.2673 29.8845 76.38 30.0348C76.4927 30.2226 76.6806 30.2602 76.906 30.2226H76.8685Z" fill="#6E6E6B"/>
<path d="M19.5334 5.53792C19.571 6.43965 18.8571 7.1911 17.9178 7.1911C17.0161 7.1911 16.2646 6.5148 16.2646 5.53792C16.2646 4.63619 16.9785 3.84717 17.9554 3.84717C18.8571 3.84717 19.6086 4.63619 19.5334 5.50035V5.53792Z" fill="#6E6E6B"/>
<path d="M13.0711 2.9452C13.1086 3.80936 12.3572 4.5608 11.4555 4.5608C10.5161 4.5608 9.83984 3.84693 9.83984 2.9452C9.83984 2.00589 10.5913 1.32959 11.4555 1.32959C12.3948 1.32959 13.1086 2.11861 13.0335 2.9452H13.0711Z" fill="#6E6E6B"/>
<path d="M16.9784 11.512C16.1143 11.5495 15.4004 10.7981 15.4004 9.9715C15.4004 9.14491 16.1518 8.39347 17.016 8.43104C17.8802 8.43104 18.5565 9.14491 18.5565 9.9715C18.5565 10.8357 17.805 11.5495 16.9784 11.4744V11.512Z" fill="#6E6E6B"/>
<path d="M15.0995 11.5869C15.0995 12.4135 14.4232 13.0898 13.5966 13.0898C12.6573 13.0898 12.0186 12.4135 12.0186 11.5869C12.0186 10.7227 12.6949 10.084 13.5214 10.084C14.3856 10.084 15.0995 10.7603 15.0619 11.5869H15.0995Z" fill="#6E6E6B"/>
<path d="M13.5972 1.70555C13.5221 0.916535 14.236 0.277807 15.0626 0.240234C15.814 0.240234 16.4903 0.916535 16.5279 1.63041C16.5279 2.457 15.8516 3.1333 15.1001 3.1333C14.2735 3.1333 13.5221 2.41943 13.5972 1.66798V1.70555Z" fill="#6E6E6B"/>
<path d="M21.6748 7.26609C20.8107 7.26609 20.2471 6.66494 20.2471 5.80077C20.2471 5.0869 20.9234 4.37303 21.7124 4.4106C22.5014 4.4106 23.1026 5.04933 23.1026 5.83835C23.1026 6.62736 22.4263 7.30366 21.6372 7.26609H21.6748Z" fill="#6E6E6B"/>
<path d="M22.1636 10.0088C22.2388 10.7602 21.4873 11.4365 20.7734 11.4365C20.022 11.4365 19.3833 10.8354 19.3457 10.0088C19.3457 9.18219 19.9844 8.58103 20.6983 8.54346C21.5249 8.54346 22.2012 9.25733 22.1261 9.9712L22.1636 10.0088Z" fill="#6E6E6B"/>
<path d="M22.6519 15.0059C23.4785 15.0059 24.0796 15.607 24.0796 16.4336C24.0796 17.2602 23.4785 17.8614 22.6519 17.8614C21.8253 17.8614 21.2617 17.2602 21.2617 16.4336C21.2617 15.6822 21.8629 15.0059 22.6519 15.0434V15.0059Z" fill="#6E6E6B"/>
<path d="M50.0419 28.9827C50.0419 29.0203 50.0419 29.0579 50.0419 29.133C50.0419 29.6215 50.0419 30.1475 50.0419 30.6735H49.7789C47.8628 30.6735 45.9466 30.6735 44.0304 30.6735C43.855 30.6735 43.7674 30.5733 43.7674 30.3729C43.7674 29.8093 43.7674 29.2457 43.7674 28.7197C43.7674 28.4943 43.7674 28.3816 43.4668 28.3816V28.081C43.6547 28.081 43.8425 28.0434 44.068 28.0059C44.2182 28.0059 44.2558 28.0434 44.2558 28.1937C44.2558 28.7949 44.2558 29.396 44.2558 29.9596C44.2558 30.0348 44.2558 30.1099 44.2558 30.1851H46.6604V28.9452H47.1113V29.4712C47.2992 29.3209 47.4495 29.133 47.6373 29.0203C48.2385 28.6446 48.8021 28.9827 48.8396 29.6966C48.8396 29.8469 48.8396 30.0348 48.8396 30.2226H49.5535V29.5463C49.5535 29.4712 49.5535 29.4336 49.5535 29.3585C49.5535 28.9076 49.5535 28.9076 50.0419 28.9827ZM48.276 30.2226C48.276 30.1475 48.276 30.1099 48.276 30.0723C48.276 29.922 48.276 29.7718 48.276 29.6215C48.276 29.396 48.1633 29.2833 47.9003 29.3209C47.5997 29.3585 47.1489 29.8845 47.1489 30.2226H48.2385H48.276Z" fill="#6E6E6B"/>
<path d="M22.6892 21.4683C21.9002 21.4683 21.2991 20.8296 21.3366 20.0406C21.3366 19.2515 21.9002 18.6504 22.7268 18.6504C23.591 18.6504 24.117 19.2891 24.117 20.0781C24.117 20.8296 23.5534 21.4683 22.6892 21.4683Z" fill="#6E6E6B"/>
<path d="M22.1261 26.5782C22.1636 27.3296 21.5249 27.9683 20.7359 27.9683C19.8717 27.9683 19.3457 27.2545 19.3457 26.5782C19.3457 25.8267 19.9844 25.2256 20.7359 25.188C21.5249 25.188 22.2012 25.9019 22.1261 26.5782Z" fill="#6E6E6B"/>
<path d="M19.8335 12.714C20.6226 12.6388 21.1861 13.4278 21.1861 14.0666C21.1861 14.8556 20.585 15.4943 19.8335 15.4943C19.1572 15.4943 18.4434 14.9683 18.4434 14.1041C18.4434 13.3527 19.0445 12.6764 19.8335 12.714Z" fill="#6E6E6B"/>
<path d="M20.3594 30.6362C20.3594 29.9599 20.923 29.2461 21.712 29.2836C22.501 29.2836 23.0646 29.8097 23.1021 30.6362C23.1021 31.4253 22.501 32.0264 21.7495 32.0264C20.9981 32.0264 20.3594 31.4628 20.3594 30.6362Z" fill="#6E6E6B"/>
<path d="M19.796 23.7606C19.0445 23.7606 18.4434 23.1594 18.4434 22.4456C18.4434 21.619 19.1197 21.0178 19.8335 21.0554C20.6226 21.0554 21.2237 21.6565 21.2237 22.408C21.2237 23.197 20.5474 23.7982 19.8335 23.7606H19.796Z" fill="#6E6E6B"/>
<path d="M20.2474 18.2373C20.2474 18.9888 19.6086 19.6275 18.8572 19.5899C18.0682 19.5899 17.467 18.9512 17.5046 18.1997C17.5046 17.3356 18.1058 16.8471 18.8948 16.8096C19.6838 16.8096 20.2474 17.4107 20.2474 18.1997V18.2373Z" fill="#6E6E6B"/>
<path d="M16.2271 16.2833C15.5133 16.3209 14.837 15.7197 14.8745 14.9307C14.8745 14.1793 15.4757 13.5781 16.2271 13.5781C17.0162 13.5781 17.6173 14.1793 17.6173 14.9307C17.6173 15.6822 17.0162 16.3209 16.2271 16.2833Z" fill="#6E6E6B"/>
<path d="M6.98438 11.0612C6.98438 10.3849 7.54796 9.70855 8.33698 9.74613C8.56241 9.74613 8.86299 9.74613 9.01328 9.85884C9.389 10.197 9.68958 10.5727 9.65201 11.1363C9.61443 11.8502 9.08842 12.4513 8.33698 12.4513C7.6231 12.4513 6.98438 11.9253 7.02195 11.0612H6.98438Z" fill="#6E6E6B"/>
<path d="M15.663 26.5406C15.6254 25.7892 16.2265 25.1128 16.978 25.1504C17.7294 25.1504 18.293 25.714 18.293 26.503C18.293 27.2545 17.6919 27.8556 16.9404 27.8556C16.2641 27.8556 15.5878 27.1418 15.663 26.5406Z" fill="#6E6E6B"/>
<path d="M4.84295 10.8355C4.88052 11.6245 4.24179 12.1881 3.56549 12.1881C2.81405 12.1881 2.25046 11.6245 2.21289 10.8731C2.21289 10.1968 2.77647 9.48289 3.60306 9.52046C4.20422 9.52046 4.91809 10.084 4.84295 10.8731V10.8355Z" fill="#6E6E6B"/>
<path d="M22.6144 3.0582C21.9756 3.0582 21.3369 2.45705 21.3369 1.7056C21.3369 0.99173 21.8629 0.31543 22.6519 0.31543C23.4034 0.31543 23.9294 0.879014 23.967 1.66803C23.967 2.45705 23.3282 3.09578 22.6144 3.0582Z" fill="#6E6E6B"/>
<path d="M22.6519 36.1217C21.9005 36.1593 21.3369 35.5206 21.3369 34.8067C21.3369 34.0553 21.8629 33.4917 22.6144 33.4541C23.3282 33.4541 23.967 34.0177 23.967 34.8067C23.967 35.5582 23.3282 36.1969 22.6519 36.1217Z" fill="#6E6E6B"/>
<path d="M27.8361 21.9195C27.8361 22.6334 27.2725 23.2345 26.5587 23.2721C25.8072 23.2721 25.2061 22.6334 25.2061 21.9947C25.2061 21.1681 25.8824 20.6421 26.4459 20.6045C27.3101 20.6045 27.8737 21.2808 27.8361 21.9195Z" fill="#6E6E6B"/>
<path d="M16.2271 20.2661C16.941 20.2661 17.5422 20.8673 17.5422 21.5811C17.5422 22.3326 16.9034 22.9338 16.152 22.8962C15.5133 22.8962 14.837 22.3702 14.8745 21.4684C14.8745 20.8673 15.4757 20.191 16.1896 20.2285L16.2271 20.2661Z" fill="#6E6E6B"/>
<path d="M17.9176 29.6593C18.5939 29.5841 19.2326 30.298 19.2326 30.9743C19.2326 31.613 18.6314 32.2893 17.9176 32.2893C17.2037 32.2893 16.6025 31.6506 16.6025 30.9743C16.6025 30.2604 17.2788 29.6217 17.9176 29.6968V29.6593Z" fill="#6E6E6B"/>
<path d="M71.7217 30.2228V28.9454C71.9847 28.9454 72.2101 28.9078 72.4731 28.9078C72.924 28.9078 73.187 29.2084 73.2245 29.7344C73.2245 29.8847 73.2245 30.035 73.2245 30.1853C73.6754 30.298 73.9008 30.1853 73.9008 29.6968C73.9008 29.0205 74.502 28.7951 74.9904 28.9454C75.291 29.0205 75.4037 29.246 75.4413 29.509C75.4789 29.8471 75.4789 30.1853 75.4789 30.5234C75.4789 30.561 75.4037 30.6737 75.3662 30.6737C74.9153 30.6737 74.4269 30.7488 74.0136 30.4483C73.6754 30.7864 73.187 30.6737 72.7737 30.6737C72.7737 30.6737 72.6985 30.561 72.6985 30.5234C72.6985 30.298 72.6985 30.035 72.6985 29.8095C72.6985 29.4338 72.5483 29.3211 72.1725 29.3963V30.6737C71.8344 30.6737 71.5338 30.6737 71.2332 30.6737C71.0454 30.6737 70.8951 30.6737 70.7072 30.5986C70.1812 30.4483 69.8806 30.0725 69.9558 29.4714C70.0309 29.0581 70.0309 29.0957 70.4818 29.0205C70.4066 29.3963 70.2563 29.8095 70.6321 30.1101C70.9326 30.3731 71.3084 30.298 71.7217 30.298V30.2228ZM74.9904 30.2228C74.9904 29.9974 74.9904 29.7344 74.9153 29.509C74.9153 29.4338 74.765 29.2835 74.6523 29.2835C74.5396 29.2835 74.3893 29.3962 74.3893 29.4714C74.3893 29.6593 74.3517 29.8847 74.4269 30.0725C74.502 30.2604 74.765 30.2228 74.9904 30.1853V30.2228Z" fill="#6E6E6B"/>
<path d="M22.9149 24.8873C22.8398 24.211 23.5161 23.5723 24.1924 23.5723C24.9062 23.5723 25.5074 24.1734 25.4698 24.8873C25.4698 25.6012 24.9062 26.1648 24.1924 26.1648C23.5161 26.1648 22.8773 25.6387 22.9149 24.8873Z" fill="#6E6E6B"/>
<path d="M18.8566 36.5349C18.1803 36.5349 17.5791 35.9713 17.5791 35.2198C17.5791 34.506 18.1427 33.9424 18.8566 33.9424C19.5704 33.9424 20.134 34.506 20.134 35.2574C20.134 35.9713 19.5704 36.5349 18.8566 36.5349Z" fill="#6E6E6B"/>
<path d="M32.7209 16.3585C32.7585 16.9597 32.2325 17.636 31.5186 17.636C30.7296 17.636 30.2036 17.11 30.166 16.3585C30.166 15.6446 30.692 15.0811 31.4435 15.0811C32.1573 15.0811 32.7585 15.7198 32.7209 16.3585Z" fill="#6E6E6B"/>
<path d="M25.2443 8.46869C24.5304 8.46869 23.9668 7.86754 23.9668 7.19124C23.9668 6.47736 24.568 5.87621 25.2818 5.91378C25.9957 5.95135 26.5217 6.47736 26.5217 7.19124C26.5217 7.98025 25.9206 8.43112 25.2443 8.46869Z" fill="#6E6E6B"/>
<path d="M16.3396 34.8067C16.3772 35.483 15.8512 36.0842 15.0997 36.0842C14.3483 36.0842 13.8223 35.483 13.8223 34.7692C13.8223 34.168 14.2731 33.5293 15.0997 33.4917C15.8136 33.4917 16.4148 34.0929 16.3396 34.8067Z" fill="#6E6E6B"/>
<path d="M31.444 21.3933C30.8804 21.4685 30.2041 20.9049 30.2041 20.1159C30.2041 19.4396 30.7677 18.876 31.4816 18.876C32.1579 18.876 32.6839 19.4396 32.7214 20.0783C32.759 20.8673 32.0451 21.4685 31.444 21.3933Z" fill="#6E6E6B"/>
<path d="M27.4613 2.983C27.4988 3.62173 26.9353 4.22288 26.2965 4.22288C25.5827 4.22288 25.0566 3.62173 25.0566 2.94543C25.0566 2.26912 25.5827 1.66797 26.259 1.66797C26.9353 1.66797 27.5364 2.26912 27.4613 2.983Z" fill="#6E6E6B"/>
<path d="M11.0796 13.3528C11.7559 13.2777 12.3946 13.7661 12.4322 14.5176C12.4322 15.1187 12.094 15.6823 11.3426 15.795C10.6663 15.9077 10.0276 15.4193 9.95243 14.743C9.87728 14.217 10.1779 13.4655 11.1172 13.3904L11.0796 13.3528Z" fill="#6E6E6B"/>
<path d="M25.244 28.0436C25.9579 28.006 26.4463 28.6447 26.4839 29.2459C26.4839 29.9598 25.8828 30.4858 25.2816 30.5233C24.6053 30.5233 24.0041 29.8846 24.0417 29.2835C24.0417 28.6823 24.6429 28.006 25.244 28.0811V28.0436Z" fill="#6E6E6B"/>
<path d="M14.6114 17.035C15.3629 17.035 15.8513 17.561 15.8138 18.35C15.8138 18.9512 15.2126 19.4772 14.5739 19.4772C13.86 19.4772 13.334 18.9136 13.334 18.2373C13.334 17.561 13.8976 16.9974 14.5739 17.035H14.6114Z" fill="#6E6E6B"/>
<path d="M30.3537 13.8787C29.6774 13.8787 29.1514 13.3527 29.1514 12.6764C29.1514 12.0001 29.6774 11.4741 30.3537 11.4365C31.03 11.4365 31.5936 12.0001 31.556 12.714C31.556 13.3527 30.9173 13.9539 30.3161 13.8787H30.3537Z" fill="#6E6E6B"/>
<path d="M10.8913 29.3586C10.1774 29.3962 9.72656 28.7575 9.72656 28.2315C9.72656 27.5927 10.215 26.9164 11.004 26.9916C11.4925 26.9916 12.1312 27.4049 12.1312 28.2315C12.1312 28.8326 11.6427 29.4338 10.8913 29.3962V29.3586Z" fill="#6E6E6B"/>
<path d="M30.3537 24.9627C29.715 25.0003 29.1514 24.3991 29.1514 23.7604C29.1514 23.0841 29.6398 22.5581 30.3161 22.5581C31.03 22.5581 31.5184 23.0841 31.5184 23.7604C31.5184 24.3991 30.9548 25.0003 30.3161 24.9627H30.3537Z" fill="#6E6E6B"/>
<path d="M14.1979 28.9078C14.799 28.9078 15.4753 29.3962 15.3626 30.1852C15.2875 30.824 14.799 31.2748 14.1603 31.2748C13.4464 31.2748 12.958 30.7113 12.958 30.0725C12.958 29.3587 13.5216 28.8702 14.1979 28.9078Z" fill="#6E6E6B"/>
<path d="M12.3943 24.8874C12.3943 24.2862 12.8827 23.7227 13.5966 23.7227C14.1977 23.7227 14.7613 24.2862 14.7237 24.8874C14.7237 25.5637 14.2729 26.0521 13.559 26.0521C12.9578 26.0521 12.3567 25.5637 12.3943 24.8874Z" fill="#6E6E6B"/>
<path d="M34.1867 24.4741C34.8254 24.4741 35.3139 24.9626 35.3139 25.6389C35.3139 26.2776 34.8254 26.8036 34.1491 26.8036C33.5104 26.8036 32.9844 26.2776 32.9844 25.6389C32.9844 24.9626 33.4728 24.4741 34.1491 24.4741H34.1867Z" fill="#6E6E6B"/>
<path d="M11.4929 32.4019C12.0564 32.4019 12.62 32.8527 12.62 33.5666C12.62 34.2805 11.9813 34.6938 11.4929 34.6938C10.8166 34.6938 10.3281 34.2053 10.3281 33.529C10.3281 32.8903 10.8541 32.4019 11.4929 32.4019Z" fill="#6E6E6B"/>
<path d="M29.3393 9.59592C29.3393 10.2346 28.8509 10.7607 28.2121 10.7231C27.4983 10.7231 27.085 10.1971 27.085 9.59592C27.085 8.95719 27.5358 8.46875 28.2121 8.46875C28.8509 8.46875 29.3393 8.95719 29.3393 9.63349V9.59592Z" fill="#6E6E6B"/>
<path d="M25.1318 33.529C25.0566 32.9278 25.6578 32.3643 26.2214 32.3643C26.8601 32.3643 27.3485 32.8527 27.3485 33.529C27.3485 34.1677 26.8601 34.6562 26.1838 34.6562C25.6202 34.6562 25.0566 34.1302 25.1318 33.4914V33.529Z" fill="#6E6E6B"/>
<path d="M11.1921 20.8297C11.8309 20.8297 12.3193 21.3181 12.3193 21.9568C12.3193 22.6331 11.8309 23.084 11.1921 23.084C10.5158 23.084 10.1025 22.5956 10.1025 21.9568C10.1025 21.2805 10.7037 20.7921 11.2297 20.8297H11.1921Z" fill="#6E6E6B"/>
<path d="M29.3022 26.9538C29.3398 27.6301 28.7762 28.1185 28.2126 28.081C27.6115 28.081 27.123 27.5925 27.123 26.9162C27.123 26.3151 27.6115 25.7891 28.2126 25.7891C28.7762 25.7891 29.3774 26.3151 29.3022 26.9538Z" fill="#6E6E6B"/>
<path d="M11.4551 18.2751C11.4551 18.9138 11.0042 19.3647 10.3655 19.4023C9.83949 19.4023 9.31348 18.9138 9.31348 18.3127C9.31348 17.6739 9.80192 17.1479 10.3655 17.1855C11.0042 17.1855 11.4175 17.6364 11.4551 18.3127V18.2751Z" fill="#6E6E6B"/>
<path d="M33.21 28.8704C33.2476 29.4339 32.8343 29.9224 32.1956 29.9224C31.6696 29.9224 31.1436 29.5842 31.1436 28.8704C31.1436 28.2316 31.6696 27.8183 32.158 27.7808C32.7216 27.7808 33.2852 28.3068 33.2476 28.8328L33.21 28.8704Z" fill="#6E6E6B"/>
<path d="M8.2239 30.4856C8.82505 30.4856 9.27592 30.9365 9.27592 31.5C9.27592 32.0636 8.78748 32.5521 8.2239 32.5521C7.58517 32.5521 7.17188 32.1388 7.17188 31.5C7.17188 30.8989 7.66031 30.448 8.2239 30.4856Z" fill="#6E6E6B"/>
<path d="M30.4288 31.5003C30.4288 32.0639 30.0155 32.5148 29.452 32.5148C28.8884 32.5148 28.4375 32.0639 28.4375 31.5003C28.4375 30.9743 28.8884 30.5234 29.452 30.5234C30.0155 30.5234 30.4664 30.9743 30.4664 31.5379L30.4288 31.5003Z" fill="#6E6E6B"/>
<path d="M2.28784 15.4572C1.76182 15.4572 1.23581 15.0063 1.27338 14.5179C1.31096 13.9167 1.61153 13.541 2.25026 13.541C2.81385 13.541 3.26471 13.8792 3.26471 14.5555C3.26471 15.1191 2.81385 15.4572 2.25026 15.4948L2.28784 15.4572Z" fill="#6E6E6B"/>
<path d="M38.8457 24.2114C38.996 24.2114 39.1087 24.2114 39.2214 24.2114C39.3717 24.2114 39.4469 24.2114 39.522 24.3617C39.785 24.8877 40.048 25.3762 40.3486 25.9022C40.3486 25.9773 40.4237 26.0149 40.4989 26.1276V24.249H40.9122V26.6912C40.7619 26.6912 40.574 26.6912 40.4237 26.6912C40.3862 26.6912 40.311 26.6161 40.2734 26.5409C39.9729 26.0149 39.7099 25.4889 39.4469 24.9253C39.4469 24.8877 39.3717 24.8502 39.3341 24.7374V26.6536H38.9208V24.2114H38.8457Z" fill="#6E6E6B"/>
<path d="M82.6172 24.7749C82.805 24.8125 82.9929 24.6622 83.1056 24.9252C83.2559 24.6997 83.4438 24.6622 83.6692 24.7373C83.6692 24.7373 83.7068 24.7373 83.7444 24.7373C84.0825 24.6622 84.1577 24.85 84.2328 25.113C84.3455 25.4888 84.4582 25.8645 84.6085 26.2778C84.7588 25.8269 84.8715 25.4512 85.0218 25.0379C85.1345 24.6997 85.1345 24.6997 85.5478 24.7373C85.4351 25.0003 85.36 25.2258 85.2848 25.4888C85.097 25.9772 84.9091 26.4656 84.7212 26.9541C84.6461 27.1795 84.4582 27.3298 84.1952 27.3674C83.8946 27.4049 83.8946 27.3674 83.8946 27.1044C83.9698 27.1044 84.0449 27.1044 84.1201 27.0668C84.3455 26.9917 84.4582 26.8038 84.3831 26.5784C84.1577 26.0148 83.9322 25.4136 83.7444 24.8876C83.6692 24.9628 83.5941 25.0379 83.4814 25.0755C83.2183 25.1882 83.1056 25.3009 83.1056 25.5639C83.1056 25.9021 83.1056 26.2778 83.1056 26.6535H82.6548V24.7749H82.6172Z" fill="#6E6E6B"/>
<path d="M73.4493 24.9253C73.4994 24.8001 73.6497 24.75 73.9001 24.775C73.9001 24.8877 73.9001 25.038 73.9001 25.1507C73.9001 25.6392 73.9001 26.1276 73.8626 26.6536C73.8626 27.2924 73.2238 27.5178 72.7354 27.4426C72.247 27.3675 72.0967 27.1796 72.0591 26.7663C72.247 26.7663 72.3972 26.6912 72.51 26.9542C72.5851 27.1421 72.8481 27.1796 73.036 27.1421C73.2238 27.1045 73.3741 26.9918 73.4117 26.7663C73.4117 26.6536 73.4117 26.5785 73.4117 26.4282C73.2238 26.6536 72.9984 26.7288 72.7354 26.7288C72.4724 26.7288 72.247 26.5785 72.0967 26.3906C71.8337 26.0149 71.8337 25.301 72.247 24.9629C72.5475 24.6999 73.1111 24.6999 73.3741 24.9629L73.4493 24.9253ZM72.4348 25.7143C72.4348 25.7895 72.4348 25.827 72.4348 25.9022C72.4348 26.1276 72.5475 26.3155 72.8105 26.3906C72.9984 26.4282 73.1863 26.3906 73.3365 26.2403C73.5244 25.9773 73.562 25.4889 73.3365 25.1883C73.2238 25.038 72.9984 24.9629 72.8105 25.038C72.5475 25.1132 72.4348 25.301 72.4348 25.7143Z" fill="#6E6E6B"/>
<path d="M4.61719 28.8324C4.61719 28.3064 5.03048 27.818 5.55649 27.8556C6.08251 27.8556 6.53337 28.1937 6.4958 28.8324C6.4958 29.396 6.15765 29.8093 5.55649 29.8093C4.99291 29.8093 4.61719 29.396 4.61719 28.8324Z" fill="#6E6E6B"/>
<path d="M64.4699 26.6533H64.0566V24.7747C64.2069 24.7747 64.3948 24.662 64.4699 24.925C64.7705 24.6244 65.1462 24.662 65.522 25.0377C65.6347 24.8123 65.8225 24.7371 66.0855 24.7371C66.4613 24.7371 66.6491 24.925 66.6867 25.3007C66.6867 25.7516 66.6867 26.2025 66.6867 26.6533H66.2734C66.2734 26.503 66.2734 26.3527 66.2734 26.2025C66.2734 25.9019 66.2734 25.6013 66.2358 25.3007C66.2358 25.1129 66.0855 25.0001 65.9353 25.0377C65.8225 25.0377 65.6722 25.1504 65.6347 25.2631C65.5595 25.451 65.5595 25.6389 65.522 25.8267C65.522 26.0897 65.522 26.3527 65.522 26.6533H65.1087C65.1087 26.24 65.1087 25.8267 65.1087 25.4134C65.1087 25.1504 64.9959 25.0001 64.8081 25.0001C64.6578 25.0001 64.4699 25.1504 64.4699 25.3759C64.4699 25.6764 64.4699 25.9394 64.4324 26.24C64.4324 26.3903 64.4324 26.503 64.4324 26.6533H64.4699Z" fill="#6E6E6B"/>
<path d="M3.5272 26.5407C3.03876 26.5783 2.58789 26.0899 2.58789 25.6014C2.58789 25.1505 2.96361 24.6621 3.45205 24.6621C3.97806 24.6621 4.39136 25.0378 4.39136 25.6014C4.39136 26.0899 4.05321 26.5783 3.48962 26.5407H3.5272Z" fill="#6E6E6B"/>
<path d="M68.4148 25.6392V26.6536H68.0391V24.2114C68.4524 24.2114 68.8656 24.2114 69.2789 24.2114C69.5795 24.2114 69.7674 24.4369 69.8425 24.7374C69.9177 25.0004 69.7674 25.2635 69.4292 25.4513C69.8425 25.7519 69.6547 26.2779 69.8801 26.6536C69.805 26.6536 69.7298 26.6536 69.6922 26.6536C69.4668 26.6912 69.3917 26.5785 69.3541 26.3906C69.3541 26.2779 69.3541 26.1276 69.3165 26.0149C69.3165 25.7895 69.1287 25.6392 68.9032 25.6392C68.7529 25.6392 68.6026 25.6392 68.4524 25.6392H68.4148ZM68.4148 25.301C68.6402 25.301 68.8281 25.301 69.0159 25.301C69.2414 25.301 69.3541 25.1507 69.3541 24.9253C69.3541 24.6999 69.2789 24.5496 69.0911 24.512C68.8656 24.512 68.6402 24.512 68.4148 24.512V25.301Z" fill="#6E6E6B"/>
<path d="M2.24969 21.1679C2.73813 21.1679 3.0387 21.506 3.07628 21.9945C3.07628 22.6708 2.66298 22.9338 2.21211 22.9338C1.79882 22.9338 1.46067 22.4829 1.4231 22.0696C1.38552 21.6187 1.83639 21.0927 2.24969 21.1679Z" fill="#6E6E6B"/>
<path d="M86.3369 26.6536C86.5623 25.9773 86.8254 25.3386 87.0508 24.6623C87.0508 24.5872 87.0884 24.512 87.1259 24.4744C87.1635 24.249 87.2762 24.2114 87.5017 24.2114C87.7271 24.2114 87.8022 24.2866 87.8398 24.4744C88.0652 25.1507 88.2907 25.7895 88.5161 26.4658C88.5161 26.5409 88.5537 26.5785 88.5912 26.6912C88.5161 26.6912 88.441 26.6912 88.4034 26.6912C88.2155 26.6912 88.1404 26.6536 88.1028 26.4658C88.1028 26.3155 87.9901 26.2028 87.9901 26.0525C87.9901 25.9022 87.8774 25.8646 87.7271 25.8646C87.0884 25.8646 87.0884 25.8646 86.9381 26.3906C86.8253 26.7288 86.8254 26.7288 86.4121 26.6536H86.3369ZM87.7647 25.5265C87.6519 25.1883 87.5768 24.8877 87.4641 24.5496C87.3514 24.8877 87.2386 25.1883 87.1635 25.5265H87.7647Z" fill="#6E6E6B"/>
<path d="M92.5363 24.0234V25.0003C92.7242 24.7373 92.9496 24.6997 93.2126 24.6997C93.5508 24.6997 93.8138 24.8876 93.8138 25.2257C93.8138 25.6766 93.8138 26.165 93.8138 26.6535H93.4005C93.4005 26.2402 93.4005 25.8645 93.4005 25.4512C93.4005 25.2633 93.3629 25.113 93.1751 25.0379C92.9872 24.9251 92.7242 25.0379 92.6491 25.2257C92.5739 25.4136 92.5363 25.6014 92.5363 25.7893C92.5363 26.0899 92.5363 26.3529 92.5363 26.6535H92.123C92.123 26.5783 92.123 26.5032 92.123 26.428C92.123 25.7142 92.123 25.0379 92.123 24.324C92.123 24.0735 92.2608 23.9608 92.5363 23.9858V24.0234Z" fill="#6E6E6B"/>
<path d="M39.1832 28.9453C39.1832 29.1707 39.0705 29.3586 39.1081 29.5465C39.1832 30.0349 39.3335 30.1101 39.8595 30.2228C40.0474 30.2228 40.2728 30.2228 40.5358 30.2228C40.5358 29.8846 40.5358 29.584 40.5358 29.2835C40.5358 29.058 40.6486 28.9453 40.874 28.9453C40.9116 28.9453 40.9491 28.9453 41.0243 28.9453C41.0243 29.3586 41.0243 29.7343 41.0243 30.1476C41.0243 30.4733 40.8615 30.6361 40.5358 30.6361C40.085 30.6361 39.5965 30.6361 39.1832 30.4482C38.8451 30.2979 38.6572 30.0349 38.6572 29.6592C38.6572 29.5465 38.6572 29.4338 38.6572 29.2835C38.6572 29.0956 38.7324 28.9453 38.9578 28.9829C39.0329 28.9829 39.1081 28.9829 39.1832 28.9453Z" fill="#6E6E6B"/>
<path d="M55.4145 25.8268C55.4145 26.2025 55.5647 26.3528 55.7526 26.3904C55.9405 26.4655 56.1283 26.3904 56.241 26.2401C56.3538 26.0146 56.5416 26.0522 56.7295 26.0898C56.6543 26.4279 56.4289 26.6909 56.0908 26.7285C55.5648 26.8037 55.1515 26.5782 55.0387 26.0522C54.926 25.5262 55.0387 25.0378 55.5647 24.8123C55.8653 24.6996 56.1659 24.6996 56.4289 24.925C56.7295 25.1505 56.7671 25.4886 56.7671 25.8643H55.4145V25.8268ZM55.452 25.5262H56.3162C56.3162 25.2256 56.1659 25.0378 55.9405 25.0002C55.7526 25.0002 55.452 25.1505 55.452 25.5262Z" fill="#6E6E6B"/>
<path d="M59.6229 26.0525C59.5101 26.5409 59.2096 26.7288 58.646 26.6912C58.2703 26.6912 57.9321 26.3155 57.8945 25.9398C57.8945 25.5265 57.8945 25.1132 58.2703 24.8502C58.6835 24.5496 59.4726 24.6248 59.6229 25.3762C59.698 25.7895 59.8107 25.8271 59.2471 25.7895C58.9466 25.7895 58.6084 25.7895 58.3078 25.7895C58.3078 26.2404 58.5708 26.4658 58.909 26.3531C58.9841 26.3531 59.0968 26.2779 59.1344 26.2028C59.2471 25.9398 59.435 26.0149 59.6229 26.0149V26.0525ZM59.2096 25.5265C59.2096 25.2259 59.0217 25.0005 58.7963 25.0005C58.5708 25.0005 58.3454 25.1883 58.3078 25.5265H59.172H59.2096Z" fill="#6E6E6B"/>
<path d="M71.7962 25.8269H70.406C70.406 26.09 70.4812 26.3154 70.7442 26.3905C70.932 26.4657 71.1575 26.3905 71.2326 26.2402C71.3453 26.0148 71.5332 26.0524 71.7211 26.09C71.6459 26.4657 71.4205 26.6535 71.1199 26.7287C70.7818 26.8038 70.3685 26.6911 70.1806 26.4281C69.88 26.0148 69.9176 25.2634 70.3309 24.9252C70.5939 24.6998 70.8945 24.6998 71.1951 24.7749C71.4956 24.8501 71.6459 25.0755 71.7211 25.3761C71.7211 25.5264 71.7586 25.6767 71.7962 25.8269ZM71.3078 25.5264C71.3078 25.2258 71.1575 25.0004 70.8945 25.0004C70.6315 25.0004 70.4436 25.2258 70.4436 25.5264H71.3078Z" fill="#6E6E6B"/>
<path d="M50.6057 25.4512C50.6433 25.1882 50.6057 25.0755 50.3803 25.0003C50.1924 24.9627 50.0421 25.0755 49.9294 25.376C49.8542 25.376 49.8167 25.376 49.7415 25.376C49.7039 25.376 49.6288 25.376 49.5912 25.376C49.5537 25.0379 49.7791 24.7373 50.1172 24.7373C50.1924 24.7373 50.23 24.7373 50.3051 24.7373C50.8687 24.7373 51.0565 24.9252 51.0565 25.4512C51.0565 25.8645 51.0565 26.2402 51.0565 26.6535C50.9438 26.6535 50.756 26.7662 50.6433 26.5032C50.3803 26.7662 50.1172 26.7662 49.8167 26.6535C49.5912 26.5783 49.4785 26.4281 49.4785 26.1651C49.4785 25.9396 49.5537 25.7142 49.7791 25.639C50.0421 25.5263 50.3051 25.4888 50.6057 25.4136V25.4512ZM50.6057 25.7518C50.4178 25.7518 50.2675 25.7893 50.1172 25.8269C49.967 25.8645 49.8542 26.0899 49.9294 26.2402C50.0045 26.3905 50.1548 26.3905 50.3051 26.3905C50.5681 26.3153 50.6433 26.165 50.6057 25.7518Z" fill="#6E6E6B"/>
<path d="M42.3772 25.4513C42.4147 25.1507 42.3772 25.038 42.1517 25.0004C41.9639 24.9629 41.8512 25.0756 41.7009 25.2635C41.6633 25.3386 41.4754 25.3386 41.3627 25.4137C41.2876 25.038 41.513 24.7374 41.8887 24.6999C41.8887 24.6999 41.9263 24.6999 41.9639 24.6999C42.6026 24.6623 42.8656 24.8502 42.828 25.5265C42.828 25.7143 42.828 25.9022 42.828 26.09C42.828 26.2779 42.828 26.4282 42.828 26.6161C42.7153 26.6161 42.5275 26.7288 42.4147 26.5033C42.1893 26.7288 41.9263 26.7288 41.6633 26.6912C41.4379 26.6536 41.25 26.4282 41.25 26.1652C41.25 25.8646 41.3627 25.6767 41.6633 25.564C41.776 25.564 41.8887 25.5265 42.0014 25.4889C42.1142 25.4889 42.2269 25.4513 42.3772 25.4137V25.4513ZM42.3396 25.7519C42.1517 25.7519 41.9639 25.7895 41.8136 25.8646C41.7384 25.9022 41.6257 26.0525 41.6257 26.1652C41.6257 26.2403 41.776 26.353 41.8512 26.3906C42.1893 26.4658 42.4147 26.2028 42.302 25.7519H42.3396Z" fill="#6E6E6B"/>
<path d="M78.8979 26.6535C78.7852 26.6159 78.5597 26.8038 78.5222 26.4657C78.3343 26.7662 78.0713 26.7287 77.8083 26.6911C77.5453 26.6911 77.395 26.4657 77.3574 26.2027C77.3574 25.9772 77.4701 25.6766 77.7331 25.6015C77.9586 25.5264 78.2216 25.4888 78.4846 25.4136C78.5597 25.1506 78.4846 25.0755 78.3343 25.0003C78.1089 24.9252 77.9962 25.0003 77.8459 25.3385H77.5077C77.5077 25.1131 77.5829 24.8876 77.8459 24.7749C78.1089 24.6622 78.4094 24.6246 78.6349 24.7749C78.7852 24.8501 78.9355 25.0003 78.9355 25.1506C78.9355 25.6391 78.9355 26.1651 78.9355 26.6535H78.8979ZM78.4846 25.7518C78.2967 25.7518 78.1464 25.7894 77.9962 25.8645C77.8459 25.9396 77.7331 26.1651 77.8459 26.2778C77.921 26.3529 78.0713 26.4281 78.184 26.4281C78.4846 26.4281 78.5597 26.2027 78.4846 25.7894V25.7518Z" fill="#6E6E6B"/>
<path d="M62.741 24.6998C63.267 24.6246 63.7179 25.0755 63.7179 25.6766C63.7179 26.2027 63.3797 26.6911 62.741 26.6911C62.2901 26.6911 61.7641 26.3154 61.8017 25.6391C61.8017 25.1131 62.1774 24.6246 62.741 24.6622V24.6998ZM63.267 25.7142C63.267 25.6391 63.267 25.5639 63.267 25.4888C63.267 25.2633 63.1167 25.0755 62.8913 25.0003C62.6659 24.9252 62.5156 25.0003 62.4029 25.1506C62.1774 25.4136 62.1774 26.0524 62.478 26.2402C62.5907 26.3154 62.741 26.3529 62.8537 26.3529C63.1919 26.3529 63.3046 26.1275 63.3046 25.6766L63.267 25.7142Z" fill="#6E6E6B"/>
<path d="M95.0907 24.6998C95.6167 24.6246 96.0676 25.1131 96.0676 25.6766C96.0676 26.2402 95.6918 26.6911 95.1282 26.6911C94.6022 26.6911 94.1514 26.3154 94.1514 25.6391C94.1514 25.1131 94.5647 24.6246 95.0907 24.6622V24.6998ZM95.6167 25.7142C95.6167 25.6391 95.6167 25.5639 95.6167 25.4888C95.6167 25.2633 95.3912 25.0379 95.1658 25.0003C94.9779 25.0003 94.7525 25.1131 94.6398 25.3009C94.5271 25.6015 94.5271 25.8645 94.6398 26.1651C94.7525 26.3529 94.9404 26.4281 95.1658 26.3905C95.4664 26.3154 95.5791 26.1275 95.5791 25.7142H95.6167Z" fill="#6E6E6B"/>
<path d="M82.279 25.7142C82.3541 26.3153 81.8657 26.7286 81.3397 26.7286C80.7761 26.7286 80.4004 26.3529 80.4004 25.7142C80.4004 25.1881 80.7385 24.6997 81.4148 24.6997C81.9033 24.6997 82.3542 25.113 82.3166 25.6766L82.279 25.7142ZM80.8513 25.7142C80.8513 25.7893 80.8513 25.8269 80.8513 25.902C80.8513 26.165 81.0391 26.3529 81.3021 26.3905C81.49 26.3905 81.7154 26.3153 81.7906 26.1275C81.9409 25.8269 81.9409 25.5263 81.7906 25.2257C81.6403 24.9627 81.3021 24.9251 81.0767 25.113C80.8888 25.2633 80.8888 25.4887 80.8888 25.6766L80.8513 25.7142Z" fill="#6E6E6B"/>
<path d="M45.233 25.6763C45.1954 25.1127 45.6087 24.6619 46.1723 24.6995C46.7359 24.6995 47.1116 25.1127 47.1116 25.7139C47.1116 26.3151 46.7359 26.7284 46.1347 26.7284C45.6463 26.7284 45.1578 26.3526 45.1954 25.7139L45.233 25.6763ZM46.7359 25.7515C46.7359 25.7515 46.7359 25.7515 46.6983 25.7515C46.6983 25.6763 46.6983 25.6388 46.6983 25.5636C46.6983 25.3006 46.5104 25.1127 46.285 25.0752C46.0971 25 45.9093 25.0752 45.7966 25.2255C45.6087 25.526 45.5711 25.8642 45.759 26.2023C45.9093 26.5029 46.3977 26.5405 46.548 26.2775C46.6231 26.1272 46.6607 25.9393 46.7359 25.7891V25.7515Z" fill="#6E6E6B"/>
<path d="M99.7127 27.1419C99.7879 27.1419 99.863 27.1044 99.9382 27.0668C100.164 26.9916 100.239 26.8038 100.164 26.5783C99.9382 25.9772 99.7127 25.376 99.4873 24.7373C99.5624 24.7373 99.6376 24.7373 99.7127 24.7373C99.9006 24.7373 99.9758 24.7749 100.013 24.9627C100.126 25.4136 100.276 25.8269 100.464 26.3153C100.614 25.8269 100.765 25.4136 100.877 25.0003C100.953 24.7749 101.065 24.6997 101.291 24.8124C101.291 24.9627 101.291 25.113 101.216 25.2257C101.028 25.7893 100.802 26.3529 100.577 26.8789C100.464 27.1419 100.314 27.3674 99.9758 27.4049C99.7127 27.4049 99.6752 27.4049 99.7127 27.1419Z" fill="#6E6E6B"/>
<path d="M88.7793 24.7749H89.1926C89.1926 25.1506 89.1926 25.5639 89.1926 25.9396C89.1926 26.2778 89.3429 26.4281 89.6435 26.3905C89.7562 26.3905 89.9065 26.2778 89.944 26.1651C90.0192 26.0524 90.0192 25.8645 90.0568 25.7142C90.0568 25.4136 90.0568 25.1131 90.0568 24.7749H90.4325V26.6535H90.0568C90.0568 26.6159 90.0568 26.5408 90.0568 26.4657C89.7937 26.7287 89.4556 26.8038 89.1174 26.6535C88.892 26.5408 88.7793 26.3529 88.7793 26.1275C88.7793 25.6766 88.7793 25.2258 88.7793 24.7749Z" fill="#6E6E6B"/>
<path d="M75.591 24.7749H76.0043V26.6535H75.6286C75.6286 26.6159 75.6286 26.5783 75.591 26.5032C75.591 26.5032 75.5534 26.5032 75.5158 26.5408C75.1777 26.8414 74.6141 26.7286 74.4262 26.3529C74.4262 26.3153 74.3887 26.2778 74.3887 26.2026C74.3887 25.7142 74.3887 25.2257 74.3887 24.7373H74.802C74.802 24.8876 74.802 25.0003 74.802 25.1506C74.802 25.4136 74.802 25.6766 74.802 25.9396C74.802 26.1275 74.8771 26.2778 75.065 26.3529C75.2904 26.4281 75.4783 26.3529 75.5534 26.1275C75.591 26.0148 75.6286 25.902 75.6286 25.7893C75.6286 25.4512 75.6286 25.113 75.6286 24.7749H75.591Z" fill="#6E6E6B"/>
<path d="M47.4497 24.775H47.8254C47.8254 24.8126 47.8254 24.8877 47.863 24.9629C48.0884 24.6623 48.389 24.6999 48.652 24.7375C48.915 24.7375 49.1029 25.038 49.1029 25.3762C49.1029 25.7895 49.1029 26.2403 49.1029 26.6912H48.6896C48.6896 26.5785 48.6896 26.4658 48.6896 26.3531C48.6896 26.0149 48.6896 25.6392 48.652 25.301C48.6144 25.0005 48.2387 24.8877 48.0508 25.1132C47.9381 25.2635 47.863 25.4889 47.8254 25.6768C47.8254 25.9773 47.8254 26.3155 47.8254 26.6536H47.4121V24.775H47.4497Z" fill="#6E6E6B"/>
<path d="M42.6399 28.0435C42.6775 28.0435 42.6775 28.0435 42.7151 28.0435C42.9906 28.0435 43.1284 28.1687 43.1284 28.4192C43.1284 28.87 43.1284 29.2833 43.1284 29.7342C43.1284 30.2978 42.9405 30.5608 42.4521 30.6735C42.189 30.7487 41.8885 30.6735 41.5879 30.6735C41.5879 30.4857 41.6255 30.3354 41.663 30.1851C41.7758 30.1851 41.926 30.2602 42.0388 30.2602C42.4145 30.2978 42.7151 30.2602 42.6775 29.7342C42.6775 29.1706 42.6775 28.607 42.6775 28.0435H42.6399Z" fill="#6E6E6B"/>
<path d="M50.6425 30.1475C50.7552 30.1475 50.868 30.1851 50.9807 30.2226C51.3188 30.2978 51.6945 30.2226 51.657 29.7342C51.657 29.2458 51.657 28.7573 51.657 28.2689V28.0435C51.6945 28.0435 51.7321 28.0435 51.7321 28.0435C52.0076 28.0435 52.1454 28.1687 52.1454 28.4192C52.1454 28.87 52.1454 29.2833 52.1454 29.7342C52.1454 30.4105 51.7321 30.7111 51.2061 30.6735C51.0182 30.6735 50.7928 30.6735 50.5674 30.6735C50.5674 30.4857 50.605 30.3729 50.6425 30.2226V30.1475Z" fill="#6E6E6B"/>
<path d="M61.6143 25.4137H61.2386C61.2386 25.4137 61.201 25.3386 61.201 25.301C61.1259 25.1132 60.9756 25.0004 60.7877 25.0004C60.5999 25.0004 60.412 25.1132 60.3744 25.3386C60.3369 25.6392 60.2617 25.9398 60.4496 26.2403C60.5999 26.5033 61.0132 26.5033 61.1259 26.2403C61.2386 25.9773 61.4265 26.0525 61.6143 26.0525C61.5768 26.4282 61.3513 26.6912 60.9756 26.7288C60.5623 26.8039 60.1866 26.6536 59.9987 26.353C59.6606 25.7519 59.886 25.0004 60.4496 24.8126C60.9756 24.6247 61.5392 24.8877 61.5768 25.4513L61.6143 25.4137Z" fill="#6E6E6B"/>
<path d="M53.8739 26.6536V24.5496H53.0098V24.249H55.1138C55.1514 24.5496 55.1514 24.5496 54.8884 24.5496C54.7005 24.5496 54.5127 24.5496 54.2872 24.5496V26.6912H53.8739V26.6536Z" fill="#6E6E6B"/>
<path d="M53.2734 28.0059C53.2734 28.87 53.2734 29.6966 53.2734 30.5232C53.2734 30.7486 53.0855 30.6359 52.9728 30.6735C52.8601 30.6735 52.7474 30.6735 52.785 30.5232C52.785 29.922 52.785 29.3209 52.785 28.7197C52.785 28.5319 52.785 28.344 52.4844 28.4192V28.1186C52.7474 28.1186 52.9728 28.081 53.2734 28.0434V28.0059Z" fill="#6E6E6B"/>
<path d="M86.2617 28.3821V28.0815C86.4872 28.0815 86.675 28.0439 86.8629 28.0063C86.9756 28.0063 87.0507 28.0063 87.0507 28.1942C87.0507 28.9457 87.0507 29.7347 87.0507 30.4861C87.0507 30.674 86.938 30.674 86.8253 30.674C86.7126 30.674 86.5623 30.7116 86.5623 30.4861C86.5623 29.885 86.5623 29.2838 86.5623 28.6826C86.5623 28.4572 86.5247 28.3445 86.2617 28.3821Z" fill="#6E6E6B"/>
<path d="M100.05 28.3816V28.081C100.276 28.081 100.464 28.0434 100.651 28.0059C100.764 28.0059 100.802 28.0434 100.802 28.1561C100.802 28.9076 100.802 29.6966 100.802 30.4481C100.802 30.6735 100.651 30.5983 100.539 30.5983C100.426 30.5983 100.313 30.5983 100.313 30.4105C100.313 29.8093 100.313 29.2082 100.313 28.607C100.313 28.3816 100.276 28.2689 100.013 28.3064L100.05 28.3816Z" fill="#6E6E6B"/>
<path d="M89.0423 28.9453C89.0423 29.6216 89.0798 30.2603 89.0423 30.8991C89.0423 31.3124 88.7041 31.5002 88.2532 31.5002C88.1781 31.5002 88.103 31.5002 87.9902 31.5002V31.1621C88.4787 31.1621 88.5538 31.0494 88.5538 30.5985C88.5538 30.1476 88.5538 29.6968 88.5538 29.2459C88.5538 29.058 88.5914 28.9453 88.8168 28.9829C88.892 28.9829 88.9671 28.9829 89.0423 28.9829V28.9453Z" fill="#6E6E6B"/>
<path d="M79.4988 25.1128C79.3861 25.0752 79.1982 25.1128 79.1982 24.9249C79.1982 24.6995 79.3861 24.8122 79.4988 24.7371C79.4988 24.6243 79.4988 24.5116 79.4988 24.3613H79.8745C79.8745 24.474 79.8745 24.6243 79.8745 24.7746C79.9873 24.7746 80.0624 24.7746 80.1751 24.7746V25.0752C80.0624 25.0752 79.9873 25.0752 79.837 25.0752C79.837 25.4509 79.837 25.8642 79.837 26.2399C79.837 26.2775 79.9497 26.3527 80.0248 26.3527C80.1375 26.3527 80.2127 26.3902 80.1751 26.5029C80.1751 26.5781 80.0624 26.6532 79.9873 26.6532C79.6115 26.6532 79.3861 26.6157 79.4237 26.1272C79.4237 25.7515 79.4237 25.4134 79.4237 25.0376L79.4988 25.1128Z" fill="#6E6E6B"/>
<path d="M98.5848 25.1127C98.472 25.0752 98.3218 25.1503 98.2842 24.9249C98.2842 24.6995 98.4345 24.7746 98.5848 24.737C98.5848 24.6243 98.5848 24.474 98.5848 24.3237H98.9605C98.9605 24.4364 98.9605 24.5867 98.9605 24.737C99.0732 24.737 99.1859 24.737 99.2986 24.737V25.0376C99.1859 25.0376 99.1108 25.0376 98.9605 25.0376C98.9605 25.4509 98.9605 25.8266 98.9605 26.2399C98.9605 26.2399 99.0732 26.3151 99.1483 26.3526C99.2235 26.3902 99.2986 26.4653 99.2986 26.5029C99.2986 26.5781 99.2235 26.6532 99.1483 26.6532C98.735 26.7284 98.5472 26.5781 98.5472 26.1648C98.5472 25.8266 98.5472 25.4509 98.5472 25.1127C98.5472 25.1127 98.5472 25.1127 98.5472 25.0752L98.5848 25.1127Z" fill="#6E6E6B"/>
<path d="M91.4464 25.1128C91.4464 25.4885 91.4464 25.8266 91.4464 26.1648C91.4464 26.3527 91.5591 26.4278 91.7469 26.3902C91.8221 26.6532 91.7845 26.7284 91.5215 26.6908C91.1834 26.6908 91.0331 26.5405 91.0331 26.2024C91.0331 25.8266 91.0331 25.4509 91.0331 25.0752C90.7701 25.0752 90.7325 24.9625 90.8076 24.7746C90.8828 24.7746 90.9579 24.7746 91.0331 24.7746C91.0331 24.6619 91.0331 24.5116 91.0331 24.3613H91.4088C91.4088 24.474 91.4088 24.6243 91.4088 24.7746C91.5215 24.7746 91.6342 24.7746 91.7469 24.7746C91.797 24.975 91.6843 25.0877 91.4088 25.1128H91.4464Z" fill="#6E6E6B"/>
<path d="M43.316 25.0752C43.0154 25.0752 43.0154 24.9625 43.0906 24.7746C43.1657 24.7746 43.2409 24.7746 43.316 24.7746C43.316 24.6619 43.316 24.5116 43.316 24.3613H43.6917C43.6917 24.474 43.6917 24.6243 43.6917 24.7746C43.8044 24.7746 43.9172 24.7746 44.0299 24.7746C44.0549 24.95 43.9422 25.0627 43.6917 25.1128C43.6917 25.4509 43.6917 25.8266 43.6917 26.2024C43.6917 26.3902 43.842 26.4278 43.9923 26.4278C44.0675 26.7284 44.0299 26.766 43.7669 26.7284C43.4287 26.7284 43.2784 26.5781 43.2784 26.2399C43.2784 25.8642 43.2784 25.5261 43.2784 25.1128L43.316 25.0752Z" fill="#6E6E6B"/>
<path d="M50.3424 28.2694C50.3424 28.0815 50.4176 28.0439 50.643 28.0439C50.7933 28.0439 50.9811 28.0439 51.1314 28.0063V29.885C51.0187 29.885 50.8684 29.9601 50.6806 29.9977C50.6806 29.5468 50.6806 29.1335 50.6806 28.6826C50.6806 28.3821 50.6806 28.3821 50.3424 28.4196C50.3048 28.5699 50.2673 28.7578 50.0794 28.7202C49.9667 28.7202 49.854 28.6075 49.8164 28.4948C49.8164 28.4196 49.8915 28.2694 49.9291 28.2318C50.0418 28.1942 50.1921 28.2318 50.3048 28.2318L50.3424 28.2694Z" fill="#6E6E6B"/>
<path d="M52.146 26.3905V26.6535C52.0333 26.6535 51.9582 26.7287 51.8454 26.6911C51.62 26.6911 51.4697 26.5408 51.4697 26.3154C51.4697 25.5639 51.4697 24.8125 51.4697 24.061H51.883C51.883 24.2865 51.883 24.5119 51.883 24.7749C51.883 25.2258 51.883 25.6766 51.883 26.1275C51.883 26.3154 51.883 26.4281 52.146 26.4281V26.3905Z" fill="#6E6E6B"/>
<path d="M77.0933 26.3905V26.6159C77.0182 26.6159 76.9431 26.6159 76.9055 26.6535C76.68 26.6911 76.4922 26.5408 76.4922 26.3529C76.4922 25.6015 76.4922 24.85 76.4922 24.0986C76.4922 24.0986 76.4922 24.061 76.4922 24.0234H76.8679C76.8679 24.1737 76.8679 24.324 76.8679 24.4743C76.8679 25.0003 76.8679 25.5639 76.8679 26.0899C76.8679 26.2402 76.8679 26.3905 77.0933 26.3905Z" fill="#6E6E6B"/>
<path d="M57.1055 24.0234H57.5188C57.5188 24.1737 57.5188 24.2864 57.5188 24.4367C57.5188 25.0003 57.5188 25.5639 57.5188 26.1275C57.5188 26.2402 57.5188 26.3153 57.6691 26.3905C57.7066 26.3905 57.7442 26.5408 57.7818 26.6159C57.3309 26.8038 57.143 26.6535 57.143 26.2402C57.143 25.5263 57.143 24.8125 57.143 24.061L57.1055 24.0234Z" fill="#6E6E6B"/>
<path d="M97.3831 25.0003C96.9323 25.0755 96.782 25.2633 96.782 25.7142C96.782 26.0148 96.782 26.3154 96.782 26.6535H96.4062V24.7749H96.782C96.782 24.8125 96.782 24.8876 96.8195 24.9628C97.1953 24.9628 97.3831 24.9878 97.3831 25.0379V25.0003Z" fill="#6E6E6B"/>
<path d="M41.3623 28.3445C41.3623 28.0439 41.3623 28.0439 41.5877 28.0439C41.7756 28.0439 41.9259 28.0439 42.1513 28.0063C42.1513 28.6075 42.1513 29.2087 42.1513 29.7722C42.1513 29.7722 42.0762 29.8474 42.0386 29.885C41.9259 29.885 41.8507 29.9225 41.7005 29.9601C41.7005 29.7722 41.7005 29.622 41.7005 29.4717C41.7005 29.2087 41.7005 28.9457 41.7005 28.7202C41.7005 28.4948 41.5877 28.3695 41.3623 28.3445Z" fill="#6E6E6B"/>
<path d="M98.0222 26.6535H97.6465V24.7749H98.0222V26.6535Z" fill="#6E6E6B"/>
<path d="M44.4434 24.7749H44.8191V26.6535H44.4434V24.7749Z" fill="#6E6E6B"/>
<path d="M50.4932 31.6132V31.3878C50.5683 31.3878 50.6059 31.3878 50.681 31.3502C50.7562 30.9369 50.9816 30.7866 51.3573 30.9745C51.3573 31.0872 51.3573 31.2375 51.1319 31.1624C51.1319 31.1624 51.0192 31.2375 50.944 31.3126C51.0568 31.3126 51.1319 31.3878 51.207 31.3878C51.4325 31.3878 51.47 31.4629 51.3949 31.6508H50.4932V31.6132Z" fill="#6E6E6B"/>
<path d="M66.1224 28.7199C65.9721 28.7199 65.8594 28.6447 65.8594 28.4569C65.8594 28.3066 65.9345 28.1938 66.1224 28.1938C66.2727 28.1938 66.423 28.3066 66.3854 28.4569C66.3854 28.6071 66.3102 28.7199 66.1224 28.7574V28.7199Z" fill="#6E6E6B"/>
<path d="M97.4959 30.8989C97.6086 30.8989 97.7213 30.9741 97.7213 31.1619C97.7213 31.3498 97.6086 31.4249 97.4959 31.4249C97.3832 31.4249 97.1953 31.2746 97.1953 31.1619C97.1953 31.0492 97.3456 30.8989 97.4959 30.8989Z" fill="#6E6E6B"/>
<path d="M59.2469 28.6823C59.1342 28.6823 59.0215 28.6071 59.0215 28.4568C59.0215 28.269 59.0966 28.1938 59.2469 28.1562C59.3596 28.1562 59.5475 28.3065 59.5475 28.4193C59.5475 28.5695 59.4348 28.6823 59.2469 28.6823Z" fill="#6E6E6B"/>
<path d="M89.0791 28.4567C89.0791 28.6446 88.9664 28.7197 88.8161 28.7197C88.6282 28.7197 88.5155 28.607 88.5531 28.4567C88.5531 28.344 88.7034 28.2313 88.8161 28.1937C88.9664 28.1562 89.0791 28.2689 89.0791 28.4567Z" fill="#6E6E6B"/>
<path d="M66.912 28.7198C66.7617 28.7198 66.6865 28.6071 66.6865 28.4568C66.6865 28.3065 66.7992 28.1563 66.9495 28.1938C67.0622 28.1938 67.175 28.3441 67.2125 28.4568C67.2501 28.5696 67.0998 28.7198 66.9495 28.7198H66.912Z" fill="#6E6E6B"/>
<path d="M84.1581 28.6822C84.0453 28.6822 83.9326 28.6071 83.9326 28.4192C83.9326 28.2689 84.0453 28.1187 84.1956 28.1187C84.3459 28.1187 84.4211 28.2314 84.4586 28.3817C84.4586 28.5319 84.3459 28.6447 84.1581 28.6447V28.6822Z" fill="#6E6E6B"/>
<path d="M56.5791 31.1995C56.5791 30.974 56.6918 30.8613 56.8421 30.8613C57.03 30.8613 57.0675 30.974 57.1051 31.1243C57.1051 31.2746 56.9548 31.4249 56.8421 31.3873C56.7294 31.3873 56.6542 31.237 56.5791 31.1995Z" fill="#6E6E6B"/>
<path d="M57.4812 30.8989C57.5939 30.8989 57.7067 31.0116 57.7067 31.1619C57.7067 31.3122 57.5939 31.4625 57.4436 31.4249C57.2934 31.4249 57.1806 31.3498 57.2182 31.1619C57.2182 30.9741 57.2934 30.8989 57.5188 30.8989H57.4812Z" fill="#6E6E6B"/>
<path d="M70.9324 30.8989C71.1203 30.8989 71.1954 31.0492 71.1578 31.1619C71.1578 31.2746 71.0076 31.3874 70.8948 31.4249C70.7821 31.4625 70.6318 31.2746 70.6318 31.1619C70.6318 31.0116 70.7446 30.8989 70.9324 30.8989Z" fill="#6E6E6B"/>
<path d="M71.7589 31.1619C71.7589 31.3122 71.6462 31.4625 71.4959 31.4249C71.3457 31.4249 71.2705 31.3122 71.2705 31.1619C71.2705 31.0116 71.3457 30.8989 71.4959 30.8989C71.6838 30.8989 71.7589 30.9741 71.7589 31.1619Z" fill="#6E6E6B"/>
<path d="M67.513 28.7198C67.3627 28.7198 67.25 28.6447 67.25 28.4568C67.25 28.269 67.3251 28.1938 67.4754 28.1562C67.6257 28.1562 67.7384 28.269 67.7384 28.4193C67.7384 28.5695 67.6633 28.6447 67.513 28.6823V28.7198Z" fill="#6E6E6B"/>
<path d="M39.6341 28.7951C39.4462 28.7951 39.3711 28.7199 39.3711 28.5696C39.3711 28.4569 39.5214 28.269 39.6341 28.269C39.7468 28.269 39.9347 28.4193 39.8971 28.5696C39.8971 28.6823 39.822 28.8326 39.6717 28.8326L39.6341 28.7951Z" fill="#6E6E6B"/>
<path d="M49.7414 28.4569C49.7414 28.6071 49.6662 28.7199 49.5159 28.7199C49.3656 28.7199 49.2529 28.6447 49.2529 28.4569C49.2529 28.269 49.3656 28.1938 49.5159 28.1938C49.6662 28.1938 49.7414 28.3066 49.7414 28.4569Z" fill="#6E6E6B"/>
<path d="M83.3311 28.4193C83.3311 28.2314 83.4438 28.1562 83.5941 28.1562C83.7443 28.1562 83.8571 28.269 83.8195 28.4568C83.8195 28.6071 83.7443 28.7198 83.5565 28.7198C83.3686 28.7198 83.3311 28.6071 83.3311 28.4568V28.4193Z" fill="#6E6E6B"/>
<path d="M40.4235 28.6072C40.4235 28.7199 40.3483 28.8326 40.1605 28.8326C39.9726 28.8326 39.8975 28.7575 39.8975 28.5696C39.8975 28.4193 40.0102 28.269 40.1605 28.269C40.3108 28.269 40.3859 28.3818 40.3859 28.5696L40.4235 28.6072Z" fill="#6E6E6B"/>
<path d="M44.7063 24.061C44.7815 24.1738 44.8566 24.2489 44.8566 24.3616C44.8566 24.5119 44.7439 24.6246 44.5936 24.587C44.5185 24.587 44.3682 24.4368 44.3682 24.3616C44.3682 24.2489 44.4809 24.1738 44.556 24.0986H44.6312L44.7063 24.061Z" fill="#6E6E6B"/>
<path d="M98.0963 24.3992C97.9836 24.4744 97.9085 24.5495 97.7957 24.5495C97.7206 24.5495 97.5703 24.3992 97.5703 24.3241C97.5703 24.2113 97.7206 24.0986 97.7957 24.0986C97.8709 24.0986 97.9836 24.2113 98.0587 24.2865C98.0587 24.2865 98.0587 24.3616 98.0587 24.3992H98.0963Z" fill="#6E6E6B"/>
</svg>
