<svg width="20" height="20" viewBox="0 0 20 20" fill="none" xmlns="http://www.w3.org/2000/svg">
<g clip-path="url(#clip0_211_25671)">
<path d="M11.954 12.6034C12.2015 12.6034 12.4331 12.5058 12.6059 12.3286L14.1415 10.7543C14.492 10.3949 14.4847 9.8174 14.1253 9.46689C13.7659 9.11646 13.1883 9.12372 12.8378 9.48306L11.937 10.4066L11.7792 10.2531C11.4192 9.90329 10.8417 9.9113 10.4916 10.2712C10.1417 10.6311 10.1498 11.2086 10.5097 11.5585L11.3193 12.3457C11.4902 12.5119 11.7156 12.6034 11.954 12.6034ZM10.9126 10.6805C11.037 10.5526 11.2422 10.5499 11.3699 10.6741L11.7378 11.0319C11.8539 11.1448 12.0395 11.1423 12.1527 11.0264L13.2581 9.89302C13.3827 9.76533 13.5878 9.76287 13.7154 9.88724C13.843 10.0117 13.8456 10.2168 13.7211 10.3444L12.1856 11.9188C12.0669 12.0457 11.8507 12.0484 11.7286 11.9249L10.919 11.1377C10.7913 11.0134 10.7883 10.8083 10.9126 10.6805Z" fill="#F8F8F5"/>
<path d="M9.68375 12.8033C9.58609 12.6739 9.40207 12.6481 9.27254 12.7458C9.14308 12.8434 9.11738 13.0275 9.215 13.1569C9.32191 13.2986 9.44019 13.4344 9.56644 13.5607C10.2883 14.2824 11.248 14.6799 12.2688 14.6799C13.2896 14.6799 14.2493 14.2824 14.9712 13.5607C15.693 12.839 16.0905 11.8794 16.0905 10.8587C16.0905 9.83799 15.693 8.87842 14.9712 8.1567C13.4811 6.66682 11.0566 6.66686 9.56644 8.1567C8.55054 9.17245 8.19105 10.6542 8.62828 12.0237C8.67758 12.1782 8.84289 12.2633 8.99722 12.2141C9.15168 12.1648 9.23695 11.9996 9.18761 11.8452C8.8175 10.6859 9.12176 9.43163 9.98168 8.57186C11.2428 7.31088 13.2949 7.31088 14.556 8.57186C15.1669 9.18272 15.5034 9.99487 15.5034 10.8587C15.5034 11.7226 15.1669 12.5348 14.556 13.1456C13.9451 13.7564 13.1328 14.0929 12.2688 14.0929C11.4049 14.0929 10.5926 13.7565 9.98164 13.1456C9.87453 13.0384 9.77429 12.9233 9.68375 12.8033Z" fill="#F8F8F5"/>
<path d="M19.5961 16.2215L17.744 14.3696C17.6293 14.255 17.4434 14.255 17.3288 14.3696L17.3174 14.3809L16.6046 13.6683C17.0838 12.9296 17.3693 12.0761 17.4254 11.1854C17.4356 11.0236 17.3127 10.8842 17.1509 10.8739C16.9892 10.8641 16.8497 10.9867 16.8394 11.1484C16.7693 12.2605 16.2962 13.3074 15.5073 14.0962C14.6157 14.9877 13.4449 15.4339 12.2738 15.435C12.2723 15.435 12.2708 15.4348 12.2693 15.4348H12.246C11.0811 15.4289 9.91809 14.9829 9.03129 14.0962C8.16637 13.2314 7.69004 12.0816 7.69004 10.8586C7.69004 9.63559 8.16637 8.48578 9.03129 7.62102C10.8167 5.83578 13.7219 5.83578 15.5073 7.62102C16.1723 8.28594 16.6111 9.12465 16.7764 10.0466C16.805 10.2061 16.9577 10.3121 17.1172 10.2837C17.2768 10.2551 17.383 10.1026 17.3544 9.94297C17.1678 8.90246 16.6727 7.95598 15.9225 7.20586C15.5508 6.83418 15.1359 6.53133 14.694 6.29684V3.93098C14.6938 3.85371 14.6626 3.77809 14.608 3.7234L10.9702 0.0859766C10.9154 0.0315234 10.8398 0.000195312 10.7625 0H0.880781C0.395156 0 3.90625e-05 0.395039 3.90625e-05 0.880625V3.34793C3.90625e-05 3.51004 0.131445 3.64148 0.293633 3.64148C0.455781 3.64148 0.587227 3.51008 0.587227 3.34793V0.880625C0.587227 0.71875 0.718906 0.58707 0.88082 0.58707H10.469V3.34391C10.469 3.82949 10.8641 4.22453 11.3498 4.22453H14.107V6.03098C13.5341 5.81395 12.9302 5.70246 12.3254 5.69594C12.3225 5.69555 12.3196 5.69496 12.3166 5.69496H5.76195C5.59981 5.69496 5.46836 5.82641 5.46836 5.98852C5.46836 6.15063 5.59981 6.28207 5.76195 6.28207H9.87234C9.45356 6.50105 9.05879 6.78137 8.70129 7.12289H5.76195C5.59981 7.12289 5.46836 7.25434 5.46836 7.41644C5.46836 7.57855 5.59981 7.71 5.76195 7.71H8.17289C7.69367 8.33074 7.36617 9.04566 7.20941 9.80883H5.76199C5.59984 9.80883 5.4684 9.94027 5.4684 10.1024C5.4684 10.2645 5.59984 10.3959 5.76199 10.3959H7.12367C7.11016 10.5489 7.10301 10.7032 7.10301 10.8587C7.10301 10.9862 7.10766 11.113 7.11676 11.2389H5.76203C5.59988 11.2389 5.46844 11.3703 5.46844 11.5324C5.46844 11.6945 5.59988 11.826 5.76203 11.826H7.19328C7.34301 12.6205 7.67684 13.3651 8.17379 14.0084H5.76203C5.59988 14.0084 5.46844 14.1398 5.46844 14.302C5.46844 14.4641 5.59988 14.5955 5.76203 14.5955H8.70246C9.05945 14.9364 9.45359 15.2163 9.87164 15.435H5.76188C5.59973 15.435 5.46828 15.5664 5.46828 15.7285C5.46828 15.8906 5.59973 16.0221 5.76188 16.0221H12.2693C12.8928 16.022 13.5164 15.91 14.1069 15.6863V19.1195C14.1069 19.2814 13.9752 19.4131 13.8133 19.4131H0.880781C0.718906 19.4131 0.587188 19.2814 0.587188 19.1195V4.52227C0.587188 4.36016 0.455742 4.22871 0.293594 4.22871C0.131445 4.22871 0 4.36012 0 4.52227V19.1195C3.90625e-05 19.605 0.395156 20 0.880781 20H13.8133C14.2989 20 14.6941 19.605 14.6941 19.1194V15.4203C14.8251 15.3507 14.9537 15.2751 15.0795 15.1936L15.7921 15.9061C15.6688 16.0137 15.6622 16.2189 15.7807 16.3325L17.6329 18.1845C18.1496 18.723 19.0795 18.7229 19.5961 18.1845C20.1347 17.6679 20.1346 16.7381 19.5961 16.2215ZM11.3497 3.63746C11.1879 3.63746 11.0561 3.50578 11.0561 3.34391V1.00223L13.6917 3.63746H11.3497ZM15.5584 14.8421C15.6837 14.7386 15.8053 14.6285 15.9225 14.5113C16.039 14.3948 16.1492 14.2732 16.2533 14.1473L16.9022 14.7961L16.2073 15.4909L15.5584 14.8421ZM19.1809 17.7693C18.8828 18.0801 18.3463 18.08 18.0481 17.7693L16.4035 16.125L17.5364 14.9923L19.181 16.6366C19.4917 16.9348 19.4917 17.4712 19.1809 17.7693Z" fill="#F8F8F5"/>
<path d="M2.66449 8.00021H3.94887C4.31098 8.00021 4.60559 7.70568 4.60559 7.34365V6.05943C4.60559 5.69736 4.31102 5.40283 3.94887 5.40283H2.66449C2.30242 5.40283 2.00781 5.69736 2.00781 6.05943V7.34365C2.00781 7.70568 2.30242 8.00021 2.66449 8.00021ZM2.595 6.05943C2.595 6.02111 2.62621 5.98994 2.66449 5.98994H3.94887C3.98723 5.98994 4.0184 6.02111 4.0184 6.05943V7.34365C4.0184 7.38197 3.98719 7.41314 3.94887 7.41314H2.66449C2.62617 7.41314 2.595 7.38197 2.595 7.34365V6.05943Z" fill="#F8F8F5"/>
<path d="M2.00781 11.4593C2.00781 11.8214 2.30238 12.1159 2.66449 12.1159H3.94887C4.31098 12.1159 4.60559 11.8214 4.60559 11.4593V10.1751C4.60559 9.81309 4.31102 9.51855 3.94887 9.51855H2.66449C2.30242 9.51855 2.00781 9.81309 2.00781 10.1751V11.4593ZM2.595 10.1751C2.595 10.1368 2.62621 10.1056 2.66449 10.1056H3.94887C3.98723 10.1056 4.0184 10.1368 4.0184 10.1751V11.4593C4.0184 11.4977 3.98719 11.5288 3.94887 11.5288H2.66449C2.62617 11.5288 2.595 11.4977 2.595 11.4593V10.1751Z" fill="#F8F8F5"/>
<path d="M2.00781 15.6591C2.00781 16.0211 2.30238 16.3156 2.66449 16.3156H3.94887C4.31098 16.3156 4.60559 16.0211 4.60559 15.6591V14.3749C4.60559 14.0128 4.31102 13.7183 3.94887 13.7183H2.66449C2.30242 13.7183 2.00781 14.0128 2.00781 14.3749V15.6591ZM2.595 14.3749C2.595 14.3365 2.62621 14.3054 2.66449 14.3054H3.94887C3.98723 14.3054 4.0184 14.3365 4.0184 14.3749V15.6591C4.0184 15.6974 3.98719 15.7286 3.94887 15.7286H2.66449C2.62617 15.7286 2.595 15.6974 2.595 15.6591V14.3749Z" fill="#F8F8F5"/>
</g>
<defs>
<clipPath id="clip0_211_25671">
<rect width="20" height="20" fill="white"/>
</clipPath>
</defs>
</svg>
