<svg width="106" height="19" viewBox="0 0 106 19" fill="none" xmlns="http://www.w3.org/2000/svg">
<path d="M94.0866 7.09575C96.6039 5.93101 99.1588 6.0813 101.714 6.53217C103.254 6.79518 104.231 7.77205 104.644 9.27494C105.208 11.379 105.208 13.5206 104.644 15.6622C104.156 17.6536 102.653 18.5177 100.774 18.668C99.234 18.7807 97.6559 18.668 96.0779 18.5929C95.4392 18.5553 94.8004 18.2171 94.2369 18.0293C93.9363 18.2171 93.6357 18.5177 93.2976 18.5929C92.5085 18.7432 92.1328 18.405 92.1328 17.5784C92.1328 15.0235 92.1328 12.431 92.1328 9.8761C92.1328 7.09575 92.1328 4.31541 92.1328 1.49749C92.1328 0.971477 92.2455 0.595754 92.8467 0.445465C93.6357 0.295176 94.0866 0.633326 94.0866 1.42234C94.0866 3.03795 94.0866 4.65356 94.0866 6.26916C94.0866 6.53217 94.0866 6.79518 94.0866 7.09575ZM98.6704 16.8645C99.4594 16.7894 100.286 16.7143 101.075 16.6391C101.977 16.5264 102.615 16.0004 102.803 15.0986C103.217 13.3703 103.217 11.6044 102.803 9.8761C102.615 9.04951 102.089 8.44835 101.188 8.41078C99.5721 8.33564 97.9565 8.29807 96.3409 8.41078C95.1386 8.48593 94.3872 9.35009 94.2744 10.4773C94.1241 11.8299 94.1241 13.2576 94.2744 14.6102C94.3872 15.8125 95.2137 16.564 96.4912 16.7142C97.2051 16.7894 97.9189 16.8645 98.6328 16.9397L98.6704 16.8645Z" fill="#6E6E6B"/>
<path d="M85.7087 10.2522C85.6335 8.86207 85.2954 8.37363 84.0179 8.29848C82.4023 8.22334 80.7867 8.22334 79.1711 8.29848C78.3445 8.29848 77.6682 8.6742 77.2549 9.46322C76.9167 10.0644 76.4659 9.98923 75.9399 9.72623C75.4139 9.42565 75.3011 9.01235 75.5641 8.48634C76.1277 7.39675 77.067 6.72045 78.2318 6.49501C80.4861 6.08172 82.778 6.08172 85.0324 6.57016C86.4225 6.87074 87.2491 7.7349 87.4745 9.0875C87.6624 10.0644 87.7376 11.0788 87.7751 12.0557C87.8127 13.8967 87.7751 15.7378 87.7751 17.5788C87.7751 17.8794 87.5873 18.3678 87.3618 18.443C87.0237 18.5933 86.4977 18.5557 86.1971 18.3678C85.8589 18.1424 85.6711 18.1424 85.3705 18.2551C84.8821 18.443 84.3185 18.6309 83.7925 18.6309C81.7636 18.6309 79.7347 18.6309 77.7058 18.4054C76.278 18.2551 75.3763 17.2407 75.1133 15.8505C74.963 14.9112 74.8878 13.9343 75.0006 12.995C75.226 11.1915 76.2404 10.1771 78.0439 9.91409C80.5988 9.53837 83.1162 9.46322 85.6711 10.2147L85.7087 10.2522ZM81.2376 11.5297C80.148 11.68 79.0584 11.7551 78.0063 11.943C77.2173 12.0933 76.8792 12.6569 76.8792 13.784C76.8792 14.7609 76.6913 15.8505 77.7809 16.4517C77.856 16.4892 77.9688 16.5268 78.0439 16.5268C80.148 16.9401 82.252 16.9777 84.3185 16.5268C85.4081 16.3014 85.8214 15.6251 85.8214 14.3476C85.8214 12.9199 85.4832 12.206 84.356 11.9806C83.304 11.7551 82.2144 11.68 81.1624 11.5673L81.2376 11.5297Z" fill="#6E6E6B"/>
<path d="M40.8097 13.4079C40.9975 14.2345 41.0727 14.9484 41.3357 15.6247C41.5235 16.0004 42.012 16.3761 42.4253 16.4889C44.379 16.9397 46.3703 16.9022 48.3617 16.6016C49.1507 16.4889 49.7143 16.0756 50.0524 15.3241C50.3154 14.6854 50.7663 14.5727 51.3674 14.8732C52.0062 15.1738 52.1189 15.4744 51.8183 16.1883C51.2547 17.5409 50.1651 18.405 48.7374 18.5178C46.6709 18.668 44.5669 18.7056 42.5004 18.5178C40.4339 18.3299 39.5698 17.3154 39.194 15.249C38.8559 13.4455 38.8559 11.6045 39.194 9.76342C39.5698 7.65937 40.5091 6.64492 42.6131 6.45706C44.4917 6.2692 46.4079 6.23163 48.249 6.45706C50.7287 6.72007 51.668 7.80966 51.9686 10.2519C52.0438 10.9657 52.0813 11.6796 52.1189 12.3559C52.1189 13.2201 51.8935 13.4831 50.9917 13.4831C47.9108 13.4831 44.8675 13.4831 41.7865 13.4831C41.5235 13.4831 41.2605 13.4831 40.8472 13.4831L40.8097 13.4079ZM40.8097 11.4542H50.2027C50.0524 10.6652 49.9773 9.95128 49.7143 9.27498C49.564 8.93683 49.1507 8.52354 48.8125 8.44839C46.6334 7.92238 44.379 7.92238 42.1998 8.44839C41.8617 8.52354 41.4859 8.89926 41.3357 9.23741C41.0727 9.91371 40.9975 10.6276 40.8097 11.4166V11.4542Z" fill="#6E6E6B"/>
<path d="M27.471 12.1304C27.471 13.6333 27.471 15.1362 27.471 16.6766C27.471 17.5032 26.8698 17.9165 26.0808 17.6535C25.5923 17.4657 25.5548 17.0899 25.5548 16.6391C25.5548 13.7836 25.5548 10.9281 25.5548 8.07259C25.5548 6.08126 25.5548 4.1275 25.5548 2.13617C25.5548 1.6853 25.4796 1.15929 26.0808 0.971431C26.6444 0.78357 27.1328 0.858714 27.471 1.38473C30.1386 0.144841 32.8814 0.257558 35.6241 0.933859C36.9767 1.27201 37.7282 2.32403 38.0663 3.60149C38.5923 5.63039 38.5923 7.69686 38.1039 9.76334C37.7282 11.4165 36.6762 12.431 34.9854 12.7691C33.1068 13.1073 31.2282 13.1448 29.3496 12.8067C28.7484 12.694 28.1473 12.3934 27.471 12.168V12.1304ZM32.2802 2.32403C31.3785 2.39918 30.627 2.47432 29.8756 2.54947C28.7108 2.69976 28.0345 3.33848 27.734 4.46565C27.3582 5.93097 27.3582 7.39629 27.734 8.89918C27.997 9.98877 28.6357 10.6651 29.7629 10.8529C31.4536 11.1535 33.1444 11.1159 34.7975 10.7778C35.4738 10.6275 35.9247 10.2142 36.1126 9.5379C36.6386 7.65929 36.6386 5.78068 36.1126 3.90207C35.9247 3.26334 35.5114 2.7749 34.7975 2.66218C33.8958 2.51189 32.9941 2.39918 32.2426 2.32403H32.2802Z" fill="#6E6E6B"/>
<path d="M54.5605 7.09589C57.2282 5.89357 59.9334 5.89357 62.601 6.72016C64.4796 7.28375 65.1935 8.93692 65.3438 10.7028C65.4941 13.0323 65.4565 15.3994 65.4941 17.7288C65.4941 18.3676 65.0808 18.5179 64.4796 18.5179C63.8785 18.5179 63.5403 18.2548 63.5403 17.6537C63.5403 15.9629 63.5403 14.2722 63.5403 12.5814C63.5403 11.8676 63.4276 11.1161 63.3149 10.4022C63.0895 9.2375 62.4132 8.41091 61.1733 8.2982C59.7455 8.18548 58.2802 8.14791 56.8525 8.2982C55.3496 8.48606 54.6357 9.46294 54.5605 11.3415C54.4854 13.408 54.523 15.4369 54.4854 17.5034C54.4854 18.2924 54.1848 18.5554 53.3958 18.5179C52.7195 18.5179 52.5317 18.067 52.5317 17.4658C52.5317 15.2491 52.5317 13.0699 52.5317 10.8531C52.5317 9.87623 52.5317 8.89935 52.5317 7.92248C52.5317 7.43404 52.4565 6.90802 53.0201 6.64502C53.4334 6.45716 54.0721 6.64502 54.4854 7.02074L54.5605 7.09589Z" fill="#6E6E6B"/>
<path d="M67.3725 8.37339C66.0199 8.22311 65.832 8.11039 65.832 7.32137C65.832 6.6075 66.0199 6.45721 67.3725 6.30692C67.3725 5.33004 67.3725 4.39073 67.3725 3.41386C67.3725 2.73756 67.3725 2.09883 67.3725 1.42253C67.3725 0.370503 67.5228 0.220215 68.3869 0.220215C69.2135 0.220215 69.3638 0.408076 69.3638 1.38495C69.3638 3.00056 69.3638 4.65374 69.3638 6.38206C70.3783 6.38206 71.3552 6.38206 72.2945 6.38206C73.1211 6.38206 73.3465 6.6075 73.3465 7.32137C73.3465 8.07281 73.1211 8.29825 72.2945 8.29825C71.3552 8.29825 70.3783 8.29825 69.4014 8.29825C69.4014 8.48611 69.3638 8.6364 69.3638 8.78669C69.3638 11.1162 69.3638 13.4832 69.3638 15.8127C69.3638 16.2636 69.5141 16.4514 69.965 16.5266C70.8667 16.7144 71.6557 16.6017 72.2945 15.8503C72.7078 15.3994 73.1211 15.437 73.5719 15.8503C74.0228 16.226 74.1355 16.6393 73.7598 17.1277C72.6326 18.593 69.5141 19.1191 68.0488 17.9543C67.7106 17.6913 67.4476 17.0526 67.4476 16.5641C67.3725 14.0844 67.4476 11.6422 67.4476 9.16241C67.4476 8.8994 67.4476 8.6364 67.4476 8.33582L67.3725 8.37339Z" fill="#6E6E6B"/>
<path d="M16.5755 13.8591C16.5755 15.2868 15.3732 16.4891 13.9455 16.4891C12.5177 16.4891 11.3154 15.2493 11.3154 13.8591C11.3154 12.4689 12.5177 11.3042 13.9079 11.2666C15.2981 11.2666 16.538 12.4689 16.538 13.8591H16.5755Z" fill="#6E6E6B"/>
<path d="M0.945227 13.8215C0.719793 12.6192 1.92211 11.2666 3.46257 11.2666C4.85274 11.2666 6.09263 12.4689 6.09263 13.8967C6.09263 15.2868 4.85274 16.5267 3.46257 16.4891C2.14754 16.4891 0.757366 15.362 0.945227 13.8215Z" fill="#6E6E6B"/>
<path d="M13.9079 6.08145C12.4802 6.08145 11.3154 4.91672 11.3154 3.48897C11.3154 2.06122 12.5177 0.896484 13.9455 0.896484C15.3732 0.896484 16.5755 2.0988 16.5755 3.52654C16.5755 4.95429 15.3732 6.11903 13.9079 6.08145Z" fill="#6E6E6B"/>
<path d="M11.2776 8.67403C11.2776 10.1393 10.1129 11.3041 8.68514 11.3041C7.25739 11.3041 6.05508 10.1393 6.09265 8.67403C6.09265 7.24628 7.21982 6.11912 8.64757 6.08154C10.1129 6.08154 11.2776 7.20871 11.2776 8.63646V8.67403Z" fill="#6E6E6B"/>
<path d="M3.42508 6.08145C1.88462 6.08145 0.945312 4.99186 0.945312 3.26354C0.945312 1.91093 2.07248 0.858911 3.50023 0.896484C4.96554 0.896484 6.13028 2.0988 6.09271 3.52654C6.09271 4.95429 4.8904 6.08145 3.42508 6.08145Z" fill="#6E6E6B"/>
<path d="M91.7195 10.252V11.9803H88.4883V10.252H91.7195Z" fill="#6E6E6B"/>
</svg>
