<svg width="20" height="20" viewBox="0 0 20 20" fill="none" xmlns="http://www.w3.org/2000/svg">
<path d="M19.6812 16.9121L16.1696 13.4005C16.1695 13.4004 16.1695 13.4004 16.1693 13.4002C16.1692 13.4001 16.1692 13.4001 16.1691 13.4L14.9138 12.1447C14.4898 11.7207 13.7997 11.7205 13.3755 12.1447L13.2216 12.2986L12.6915 11.7685C13.7301 10.5232 14.3559 8.92234 14.3559 7.17789C14.3558 3.22 11.1358 0 7.17785 0C3.21992 0 0 3.22 0 7.17789C0 11.1358 3.21992 14.3558 7.17785 14.3558C8.9223 14.3558 10.5232 13.73 11.7684 12.6915L12.2986 13.2216L12.1446 13.3755C11.7207 13.7996 11.7207 14.4896 12.1447 14.9138L16.912 19.6811C17.3371 20.1062 18.0253 20.1063 18.4504 19.6811L19.6811 18.4504C20.1053 18.0263 20.1053 17.3363 19.6812 16.9121ZM7.17785 13.0504C3.93973 13.0504 1.30531 10.416 1.30531 7.17789C1.30531 3.93977 3.93973 1.30535 7.17785 1.30535C10.416 1.30535 13.0504 3.93977 13.0504 7.17789C13.0504 10.416 10.416 13.0504 7.17785 13.0504ZM13.2216 14.1446L14.1446 13.2216L14.7848 13.8618L13.8618 14.7848L13.2216 14.1446ZM17.6812 18.6043L14.7848 15.7078L15.7078 14.7848L18.6043 17.6813L17.6812 18.6043Z" fill="#F8F8F5"/>
</svg>
