<svg width="33" height="34" viewBox="0 0 33 34" fill="none" xmlns="http://www.w3.org/2000/svg">
<path fill-rule="evenodd" clip-rule="evenodd" d="M4.83333 3.25C4.2808 3.25 3.75089 3.46949 3.36019 3.86019C2.96949 4.25089 2.75 4.7808 2.75 5.33333V28.6667C2.75 29.2192 2.96949 29.7491 3.36019 30.1398C3.7509 30.5305 4.2808 30.75 4.83333 30.75H28.1667C28.7192 30.75 29.2491 30.5305 29.6398 30.1398C30.0305 29.7491 30.25 29.2192 30.25 28.6667V5.33333C30.25 4.7808 30.0305 4.2509 29.6398 3.86019C29.2491 3.46949 28.7192 3.25 28.1667 3.25H4.83333ZM1.59243 2.09243C2.45197 1.23289 3.61776 0.75 4.83333 0.75H28.1667C29.3822 0.75 30.548 1.23289 31.4076 2.09243C32.2671 2.95197 32.75 4.11776 32.75 5.33333V28.6667C32.75 29.8822 32.2671 31.048 31.4076 31.9076C30.548 32.7671 29.3822 33.25 28.1667 33.25H4.83333C3.61776 33.25 2.45197 32.7671 1.59243 31.9076C0.732885 31.048 0.25 29.8822 0.25 28.6667V5.33333C0.25 4.11776 0.732885 2.95197 1.59243 2.09243ZM22.3839 12.7828C22.872 13.2709 22.872 14.0624 22.3839 14.5506L15.7172 21.2172C15.2291 21.7054 14.4376 21.7054 13.9494 21.2172L10.6161 17.8839C10.128 17.3957 10.128 16.6043 10.6161 16.1161C11.1043 15.628 11.8957 15.628 12.3839 16.1161L14.8333 18.5656L20.6161 12.7828C21.1043 12.2946 21.8957 12.2946 22.3839 12.7828Z" fill="#F8F8F5"/>
</svg>
