<svg width="19" height="18" viewBox="0 0 19 18" fill="none" xmlns="http://www.w3.org/2000/svg">
<path d="M8.91607 14.6251C8.23279 14.6273 7.55692 14.4835 6.9338 14.2031C6.31069 13.9227 5.75475 13.5123 5.30329 12.9994C4.85182 12.4865 4.51528 11.8829 4.31622 11.2293C4.11717 10.5756 4.06022 9.88697 4.14919 9.2095C4.23816 8.53202 4.471 7.88141 4.83207 7.30132C5.19315 6.72122 5.67412 6.22506 6.24271 5.84612C6.81129 5.46718 7.45435 5.21423 8.12873 5.10424C8.80311 4.99425 9.49321 5.02976 10.1527 5.20839C10.3054 5.25742 10.4335 5.36319 10.5105 5.50388C10.5874 5.64457 10.6075 5.80945 10.5664 5.96447C10.5253 6.1195 10.4263 6.25285 10.2898 6.33701C10.1533 6.42116 9.98969 6.44969 9.83274 6.41672C9.53409 6.33455 9.22582 6.29252 8.91607 6.29172C8.2156 6.29172 7.53085 6.49944 6.94843 6.8886C6.36601 7.27776 5.91206 7.8309 5.644 8.47805C5.37594 9.12521 5.3058 9.83732 5.44246 10.5243C5.57912 11.2113 5.91643 11.8424 6.41174 12.3377C6.90705 12.833 7.53811 13.1703 8.22513 13.307C8.91215 13.4437 9.62426 13.3735 10.2714 13.1055C10.9186 12.8374 11.4717 12.3835 11.8609 11.801C12.25 11.2186 12.4577 10.5339 12.4577 9.83339C12.4582 9.52383 12.4175 9.21559 12.3369 8.91672C12.2984 8.75804 12.3235 8.59061 12.4068 8.45016C12.49 8.3097 12.6249 8.20735 12.7826 8.16494C12.9403 8.12253 13.1083 8.14343 13.2507 8.22316C13.3932 8.30289 13.4989 8.43515 13.5452 8.59172C13.7358 9.30182 13.7603 10.0462 13.617 10.7673C13.4737 11.4885 13.1664 12.1669 12.7188 12.7502C12.2713 13.3335 11.6955 13.806 11.0361 14.1311C10.3767 14.4562 9.65129 14.6252 8.91607 14.6251Z" fill="#F8F8F5"/>
<path d="M8.91619 17.9584C7.67614 17.9594 6.45231 17.6767 5.33844 17.1317C4.22457 16.5867 3.25021 15.794 2.49001 14.8143C1.72982 13.8346 1.20395 12.6939 0.952703 11.4796C0.701453 10.2653 0.731486 9.00957 1.0405 7.80865C1.34952 6.60773 1.92931 5.49347 2.73548 4.55123C3.54164 3.609 4.55278 2.86379 5.69143 2.3727C6.83008 1.8816 8.06603 1.65765 9.30461 1.718C10.5432 1.77835 11.7515 2.1214 12.837 2.72087C12.9105 2.75982 12.9755 2.81306 13.0282 2.87745C13.0808 2.94184 13.1201 3.0161 13.1437 3.09587C13.1673 3.17564 13.1747 3.25932 13.1656 3.34199C13.1564 3.42467 13.1308 3.50469 13.0903 3.57735C13.0498 3.65002 12.9952 3.71387 12.9297 3.76516C12.8643 3.81645 12.7892 3.85416 12.7089 3.87606C12.6287 3.89797 12.5449 3.90363 12.4624 3.89272C12.3799 3.88181 12.3005 3.85455 12.2287 3.81254C11.2152 3.25047 10.0751 2.95646 8.91619 2.95837C7.55644 2.95837 6.22723 3.36158 5.09664 4.11702C3.96605 4.87245 3.08487 5.94618 2.56451 7.20242C2.04416 8.45867 1.90801 9.841 2.17329 11.1746C2.43856 12.5082 3.09334 13.7332 4.05483 14.6947C5.01631 15.6562 6.24132 16.311 7.57494 16.5763C8.90856 16.8415 10.2909 16.7054 11.5471 16.185C12.8034 15.6647 13.8771 14.7835 14.6325 13.6529C15.388 12.5223 15.7912 11.1931 15.7912 9.83337C15.7929 8.67452 15.4989 7.53439 14.937 6.52087C14.8605 6.37642 14.8436 6.20773 14.8899 6.05096C14.9363 5.8942 15.0422 5.76184 15.185 5.68226C15.3278 5.60268 15.4961 5.58222 15.6538 5.62527C15.8116 5.66832 15.9461 5.77144 16.0287 5.91254C16.7119 7.14911 17.0607 8.54256 17.0405 9.9552C17.0204 11.3678 16.6319 12.7508 15.9136 13.9673C15.1953 15.1838 14.172 16.1919 12.9448 16.8919C11.7176 17.5918 10.329 17.9594 8.91619 17.9584Z" fill="#F8F8F5"/>
<path d="M8.91644 10.4584C8.79291 10.4583 8.67218 10.4216 8.5695 10.3529C8.46682 10.2843 8.3868 10.1867 8.33954 10.0726C8.29228 9.95842 8.2799 9.83284 8.30397 9.71167C8.32804 9.5905 8.38748 9.47919 8.47478 9.39178L15.1414 2.72512C15.2599 2.61472 15.4166 2.55461 15.5785 2.55747C15.7405 2.56033 15.8949 2.62592 16.0095 2.74043C16.124 2.85494 16.1896 3.00943 16.1924 3.17135C16.1953 3.33327 16.1352 3.48997 16.0248 3.60845L9.35811 10.2751C9.30029 10.3334 9.23148 10.3796 9.15566 10.4111C9.07985 10.4426 8.99853 10.4587 8.91644 10.4584Z" fill="#F8F8F5"/>
<path d="M18.083 3.79175H15.583C15.4172 3.79175 15.2583 3.7259 15.1411 3.60869C15.0239 3.49148 14.958 3.33251 14.958 3.16675V0.666748C14.958 0.500988 15.0239 0.342017 15.1411 0.224806C15.2583 0.107596 15.4172 0.041748 15.583 0.041748C15.7488 0.041748 15.9077 0.107596 16.025 0.224806C16.1422 0.342017 16.208 0.500988 16.208 0.666748V2.54175H18.083C18.2488 2.54175 18.4077 2.6076 18.525 2.72481C18.6422 2.84202 18.708 3.00099 18.708 3.16675C18.708 3.33251 18.6422 3.49148 18.525 3.60869C18.4077 3.7259 18.2488 3.79175 18.083 3.79175Z" fill="#F8F8F5"/>
<path d="M8.91602 11.0835C9.60637 11.0835 10.166 10.5239 10.166 9.8335C10.166 9.14314 9.60637 8.5835 8.91602 8.5835C8.22566 8.5835 7.66602 9.14314 7.66602 9.8335C7.66602 10.5239 8.22566 11.0835 8.91602 11.0835Z" fill="#F8F8F5"/>
</svg>
